<?xml version="1.0" encoding="UTF-8" standalone="no"?>
<!-- Created with Inkscape (http://www.inkscape.org/) -->

<svg
   xmlns:dc="http://purl.org/dc/elements/1.1/"
   xmlns:cc="http://creativecommons.org/ns#"
   xmlns:rdf="http://www.w3.org/1999/02/22-rdf-syntax-ns#"
   xmlns:svg="http://www.w3.org/2000/svg"
   xmlns="http://www.w3.org/2000/svg"
   xmlns:sodipodi="http://sodipodi.sourceforge.net/DTD/sodipodi-0.dtd"
   xmlns:inkscape="http://www.inkscape.org/namespaces/inkscape"
   width="297mm"
   height="210mm"
   viewBox="0 0 1052.3622 744.09448"
   id="svg4188"
   version="1.1"
   inkscape:version="0.91 r13725"
   sodipodi:docname="neuraltaylor.svg"
   inkscape:export-filename="/Volumes/ExtraDiskSpace/Documents/Notes/neuraltaylor.png"
   inkscape:export-xdpi="90"
   inkscape:export-ydpi="90">
  <defs
     id="defs4190" />
  <sodipodi:namedview
     id="base"
     pagecolor="#ffffff"
     bordercolor="#666666"
     borderopacity="1.0"
     inkscape:pageopacity="0.0"
     inkscape:pageshadow="2"
     inkscape:zoom="0.7"
     inkscape:cx="497.66899"
     inkscape:cy="405.71429"
     inkscape:document-units="px"
     inkscape:current-layer="layer1"
     showgrid="false"
     inkscape:window-width="1356"
     inkscape:window-height="723"
     inkscape:window-x="10"
     inkscape:window-y="0"
     inkscape:window-maximized="0" />
  <metadata
     id="metadata4193">
    <rdf:RDF>
      <cc:Work
         rdf:about="">
        <dc:format>image/svg+xml</dc:format>
        <dc:type
           rdf:resource="http://purl.org/dc/dcmitype/StillImage" />
        <dc:title />
      </cc:Work>
    </rdf:RDF>
  </metadata>
  <g
     inkscape:label="Layer 1"
     inkscape:groupmode="layer"
     id="layer1"
     transform="translate(0,-308.26772)">
    <path
       style="opacity:1;fill:#727272;fill-opacity:0.57647059;stroke:none;stroke-width:0.1;stroke-miterlimit:4;stroke-dasharray:none;stroke-opacity:1"
       id="path4859"
       d="m 161.07586,326.4559 c -0.85462,24.48508 -3.76574,48.72501 -5.86584,73.05426 -0.91238,10.56971 -1.67657,21.15969 -2.51487,31.73952 -3.86735,59.36414 -6.15146,118.88249 -10.33673,178.21399 -2.27715,32.28125 -4.80893,60.46963 -7.56255,92.6182 -4.7408,57.20539 -11.87341,114.07262 -15.14281,171.46775 -0.10716,8.5477 -0.78632,17.39831 0.53805,25.88449 0.0194,0.12667 0.63357,3.41694 1.39235,3.80169 0.22127,0.11289 0.43371,-0.25203 0.6506,-0.37786 0.33769,-0.17099 0.65167,-0.46972 1.01308,-0.5138 4.3901,-0.53899 8.82018,0.0808 13.22946,0.19107 5.64083,0.13879 11.28264,0.22006 16.92287,0.39569 28.21451,0.88061 35.01619,1.36171 66.04961,2.85101 118.94389,8.9858 237.86925,18.3187 356.75428,28.5131 77.56174,5.4916 155.35899,9.5443 233.0293,5.2865 32.03686,-1.7563 46.33789,-3.8698 77.19353,-7.493 21.59154,-2.7387 43.021,-6.903 64.3484,-11.9316 0,0 -16.73155,16.1376 -16.73155,16.1376 l 0,0 c -20.00201,3.3196 -40.0581,5.9737 -60.18662,7.7156 -30.47833,2.3413 -42.16822,3.616 -73.95644,4.3102 -76.5542,1.6722 -153.08455,-3.4996 -229.49977,-8.6807 -21.78395,-1.7235 -43.57062,-3.3907 -65.35184,-5.1704 -21.06256,-1.7209 -42.10992,-3.7515 -63.17917,-5.331 -21.20895,-1.5903 -42.43416,-2.7997 -63.65209,-4.1782 -56.6452,-3.6796 -113.29942,-7.7916 -170.02563,-8.6937 -33.3742,0.5846 -40.66179,0.3915 -71.06614,1.9135 -6.19893,0.3104 -12.39472,0.7303 -18.58713,1.21 -3.60429,0.2794 -7.20183,0.6888 -10.80062,1.0671 -1.47085,0.1549 -2.93215,0.5171 -4.40788,0.5328 -0.54879,0 -1.07036,-0.3125 -1.60554,-0.4686 -0.487,-0.4853 -1.07358,-0.8404 -1.46103,-1.4561 -1.734419,-2.7574 -1.294209,-8.5362 -1.228139,-11.5093 0.21486,-9.66455 0.53384,-11.19769 1.420879,-21.76263 6.2105,-58.45878 14.89563,-116.43432 20.62458,-174.98649 3.583,-37.80984 5.40848,-54.60065 8.06502,-92.86038 4.06819,-58.5901 5.80522,-117.39103 7.17125,-176.16987 0.37044,-10.29775 0.6776,-20.59965 1.11137,-30.89331 0.9832,-23.33166 3.22379,-46.78345 1.85725,-70.1613 0,0 21.79051,-14.26544 21.79051,-14.26544 z"
       inkscape:connector-curvature="0" />
    <g
       id="g4305"
       transform="translate(-18.571429,-95.714286)">
      <path
         inkscape:connector-curvature="0"
         d="m 100.36198,990.18117 c 0.76323,0.6053 1.51667,1.1111 2.26729,1.9457 0.86429,0.9816 1.7637,0.8723 2.64033,1.4918 1.1549,0.7332 2.31135,1.2537 3.46484,2.0215 1.39666,0.9208 2.81124,1.1124 4.22206,1.2595 1.72712,0.1285 3.45455,0.1339 5.18188,0.1274 1.85481,-0.027 3.70963,0.01 5.56444,0.011 2.09004,0.2566 4.16101,-1.3159 6.19306,-3.2033 2.22022,-2.4518 4.33626,-6.4302 6.39978,-10.60519 1.95101,-3.36117 10.11007,-23.18627 1.67482,-2.97568 2.09774,-4.74012 4.03168,-10.51092 5.86497,-16.86202 1.63571,-5.82925 3.0413,-12.65778 4.5714,-18.95217 1.53208,-6.54778 3.02645,-13.24791 4.54775,-19.83993 1.44373,-6.13842 2.9748,-11.8639 4.60586,-17.10668 2.94904,-8.87805 6.15341,-16.1802 9.37041,-23.20846 1.48048,-3.37635 2.98032,-6.57904 4.59765,-8.62858 1.53406,-1.59156 3.12224,-1.67603 4.69321,-1.7846 1.64859,-0.21374 3.28937,-0.0517 4.91542,1.15102 1.68292,1.61589 3.24584,4.77903 4.79547,7.87922 1.85939,4.12345 3.63198,8.84262 5.35687,13.87747 1.96762,5.71761 3.69308,12.68743 5.48748,19.28564 1.63956,6.3155 3.35929,12.2309 5.08858,18.10325 1.5779,5.7171 3.18916,11.28654 4.80843,16.79892 1.53326,5.28585 3.30902,9.01366 5.07357,12.7154 1.96326,3.89553 3.94873,7.61028 6.02019,10.36881 3.13301,3.86404 6.3971,5.43797 9.63321,6.95393 4.27591,1.9947 8.55907,3.72505 12.85481,4.75044 0.55334,0.0214 1.10668,0.0428 1.66002,0.0643 0,0 -4.42111,13.38671 -4.42111,13.38671 l 0,0 c -0.53691,-0.1075 -1.07383,-0.215 -1.61074,-0.3225 -4.28638,-1.4072 -8.56833,-3.0336 -12.84501,-4.8893 -3.31607,-1.4366 -6.66544,-2.855 -9.8742,-6.8242 -2.09636,-2.88582 -4.12268,-6.53964 -6.11045,-10.55192 -1.79174,-3.81838 -3.59201,-7.68567 -5.13772,-13.15408 -1.60774,-5.555 -3.21557,-11.11915 -4.79123,-16.83106 -1.73331,-5.88942 -3.43739,-11.91936 -5.08303,-18.23893 -1.76348,-6.61189 -3.49031,-13.44948 -5.45618,-19.02395 -1.72825,-4.87499 -3.4879,-9.54925 -5.35803,-13.42564 -1.52389,-2.97121 -3.06721,-5.97386 -4.73228,-7.2515 -1.60875,-0.96446 -3.22502,-1.069 -4.84824,-0.8221 -1.54803,0.19076 -3.11513,0.4206 -4.60499,2.38142 -1.5694,2.33628 -3.04553,5.52157 -4.50838,8.84077 -1.7438,3.89541 -5.24828,12.41826 2.47536,-6.26171 0.252,-0.60948 -0.5029,1.22752 -0.7508,1.86589 -0.69457,1.78851 -0.78532,2.10584 -1.45846,4.05089 -1.65784,5.1712 -3.23306,10.71794 -4.69374,16.86354 -1.52,6.57966 -3.01602,13.25389 -4.52548,19.87564 -1.54738,6.27398 -2.96402,13.07523 -4.56157,19.12464 -1.82541,6.50519 -3.74639,12.53161 -5.86732,17.26561 -3.69072,8.98959 -7.33401,18.37139 -11.21286,25.89689 -2.09574,4.08473 -4.2314,8.06463 -6.49319,10.22533 -2.07007,1.8014 -4.16882,3.1817 -6.29086,2.8904 -1.86027,0.01 -3.72053,0.053 -5.5808,0.038 -1.73848,0 -3.47722,0.041 -5.21545,-0.1038 -1.43464,-0.1698 -2.87223,-0.4165 -4.29021,-1.4199 -1.15879,-0.706 -2.32496,-1.146 -3.48171,-1.9167 -0.90905,-0.3679 -1.826444,-0.5493 -2.70888,-1.6356 -0.751539,-0.7678 -1.520467,-1.1482 -2.279984,-1.7558 0,0 4.763744,-13.91613 4.763744,-13.91613 z"
         id="path4177"
         style="opacity:1;fill:#20e658;fill-opacity:0.37254902;stroke:none;stroke-width:0.1;stroke-miterlimit:4;stroke-dasharray:none;stroke-opacity:1" />
      <path
         inkscape:connector-curvature="0"
         d="m 218.10439,990.18147 c 0.76323,0.6054 1.51667,1.1111 2.2673,1.9457 0.86428,0.9816 1.76369,0.8724 2.64032,1.4918 1.1549,0.7333 2.31135,1.2537 3.46484,2.0215 1.39666,0.9208 2.81124,1.1124 4.22206,1.2596 1.72712,0.1284 3.45455,0.1338 5.18188,0.1273 1.85482,-0.027 3.70963,0.01 5.56445,0.011 2.09004,0.2566 4.161,-1.3159 6.19305,-3.2032 2.22022,-2.4518 4.33627,-6.43034 6.39978,-10.60534 1.95101,-3.3611 10.11007,-23.18622 1.67482,-2.9756 2.09775,-4.7402 4.03168,-10.51095 5.86498,-16.86205 1.6357,-5.82925 3.04129,-12.65778 4.57139,-18.95217 1.53208,-6.54778 3.02646,-13.24791 4.54775,-19.83993 1.44374,-6.13842 2.9748,-11.8639 4.60586,-17.10668 2.94904,-8.87805 6.15342,-16.1802 9.37042,-23.20846 1.48047,-3.37635 2.98032,-6.57904 4.59764,-8.62858 1.53406,-1.59156 3.12224,-1.67603 4.69321,-1.7846 1.64859,-0.21374 3.28938,-0.0517 4.91542,1.15102 1.68292,1.61589 3.24584,4.77903 4.79547,7.87922 1.85939,4.12345 3.63199,8.84262 5.35688,13.87747 1.96761,5.71761 3.69307,12.68743 5.48747,19.28564 1.63956,6.3155 3.3593,12.2309 5.08858,18.10325 1.57791,5.7171 3.18916,11.28654 4.80843,16.79892 1.53326,5.28585 3.30902,9.01366 5.07358,12.7154 1.96325,3.89553 3.94873,7.61028 6.02018,10.36881 3.13301,3.86404 6.3971,5.43794 9.63321,6.95394 4.27591,1.9947 8.55908,3.725 12.85482,4.7504 0.55333,0.021 1.10667,0.043 1.66001,0.064 0,0 -4.4211,13.38674 -4.4211,13.38674 l 0,0 c -0.53692,-0.1075 -1.07384,-0.215 -1.61075,-0.3224 -4.28637,-1.4073 -8.56832,-3.0336 -12.84501,-4.8894 -3.31607,-1.4365 -6.66544,-2.855 -9.8742,-6.82424 -2.09636,-2.8858 -4.12267,-6.5396 -6.11044,-10.5519 -1.79174,-3.81836 -3.59202,-7.68565 -5.13773,-13.15406 -1.60774,-5.555 -3.21557,-11.11915 -4.79123,-16.83106 -1.7333,-5.88942 -3.43739,-11.91936 -5.08303,-18.23893 -1.76348,-6.61189 -3.4903,-13.44948 -5.45618,-19.02395 -1.72825,-4.87499 -3.4879,-9.54925 -5.35803,-13.42564 -1.52389,-2.97121 -3.0672,-5.97386 -4.73228,-7.2515 -1.60874,-0.96446 -3.22501,-1.069 -4.84824,-0.8221 -1.54803,0.19076 -3.11513,0.4206 -4.60499,2.38142 -1.56939,2.33628 -3.04553,5.52157 -4.50838,8.84077 -1.74379,3.89541 -5.24828,12.41826 2.47536,-6.26171 0.252,-0.60948 -0.5029,1.22752 -0.7508,1.86589 -0.69457,1.78851 -0.78531,2.10584 -1.45846,4.05089 -1.65784,5.1712 -3.23306,10.71794 -4.69374,16.86354 -1.51999,6.57966 -3.01602,13.25389 -4.52548,19.87564 -1.54738,6.27398 -2.96402,13.07523 -4.56156,19.12464 -1.82542,6.50519 -3.74639,12.53161 -5.86733,17.26561 -3.69072,8.98955 -7.334,18.37139 -11.21285,25.89689 -2.09575,4.08483 -4.23141,8.06473 -6.4932,10.22533 -2.07007,1.8014 -4.16881,3.1817 -6.29085,2.8904 -1.86028,0.01 -3.72053,0.053 -5.5808,0.038 -1.73848,0 -3.47723,0.041 -5.21546,-0.1038 -1.43464,-0.1698 -2.87223,-0.4165 -4.29021,-1.4199 -1.15879,-0.706 -2.32496,-1.146 -3.48171,-1.9167 -0.90905,-0.3679 -1.82644,-0.5493 -2.70887,-1.6355 -0.75154,-0.7679 -1.52047,-1.1482 -2.27999,-1.7559 0,0 4.76374,-13.91613 4.76374,-13.91613 z"
         id="path4177-4"
         style="opacity:1;fill:#20e6c1;fill-opacity:0.37254902;stroke:none;stroke-width:0.1;stroke-miterlimit:4;stroke-dasharray:none;stroke-opacity:1" />
      <path
         inkscape:connector-curvature="0"
         d="m 335.84686,990.18157 c 0.76323,0.6053 1.51668,1.111 2.2673,1.9456 0.86428,0.9817 1.7637,0.8724 2.64032,1.4919 1.15491,0.7332 2.31136,1.2537 3.46484,2.0214 1.39667,0.9208 2.81125,1.1124 4.22206,1.2596 1.72713,0.1285 3.45455,0.1339 5.18189,0.1274 1.85481,-0.027 3.70963,0.01 5.56444,0.011 2.09004,0.2565 4.16101,-1.316 6.19306,-3.2033 2.22022,-2.4518 4.33626,-6.43024 6.39978,-10.60524 1.951,-3.3612 10.11006,-23.18629 1.67481,-2.9757 2.09775,-4.74012 4.03169,-10.51092 5.86498,-16.86202 1.63571,-5.82925 3.0413,-12.65778 4.57139,-18.95217 1.53209,-6.54778 3.02646,-13.24791 4.54775,-19.83993 1.44374,-6.13842 2.97481,-11.8639 4.60587,-17.10668 2.94904,-8.87805 6.15341,-16.1802 9.37041,-23.20846 1.48047,-3.37635 2.98032,-6.57904 4.59765,-8.62858 1.53405,-1.59156 3.12224,-1.67603 4.69321,-1.7846 1.64858,-0.21374 3.28937,-0.0517 4.91542,1.15102 1.68292,1.61589 3.24584,4.77903 4.79547,7.87922 1.85939,4.12345 3.63198,8.84262 5.35687,13.87747 1.96761,5.71761 3.69307,12.68743 5.48747,19.28564 1.63957,6.3155 3.3593,12.2309 5.08858,18.10325 1.57791,5.7171 3.18916,11.28654 4.80844,16.79892 1.53325,5.28585 3.30902,9.01366 5.07357,12.7154 1.96326,3.89553 3.94873,7.61028 6.02018,10.36881 3.13302,3.86401 6.39711,5.43801 9.63321,6.95391 4.27592,1.9947 8.55908,3.7251 12.85482,4.7505 0.55334,0.021 1.10668,0.043 1.66001,0.064 0,0 -4.4211,13.38664 -4.4211,13.38664 l 0,0 c -0.53691,-0.1074 -1.07383,-0.2149 -1.61074,-0.3224 -4.28638,-1.4072 -8.56833,-3.0336 -12.84502,-4.8894 -3.31607,-1.4365 -6.66543,-2.8549 -9.87419,-6.82414 -2.09636,-2.8859 -4.12268,-6.5397 -6.11045,-10.552 -1.79174,-3.81833 -3.59201,-7.68562 -5.13772,-13.15403 -1.60775,-5.555 -3.21558,-11.11915 -4.79123,-16.83106 -1.73331,-5.88942 -3.4374,-11.91936 -5.08303,-18.23893 -1.76349,-6.61189 -3.49031,-13.44948 -5.45618,-19.02395 -1.72825,-4.87499 -3.4879,-9.54925 -5.35803,-13.42564 -1.52389,-2.97121 -3.06721,-5.97386 -4.73228,-7.2515 -1.60875,-0.96446 -3.22502,-1.069 -4.84824,-0.8221 -1.54803,0.19076 -3.11513,0.4206 -4.60499,2.38142 -1.5694,2.33628 -3.04553,5.52157 -4.50838,8.84077 -1.7438,3.89541 -5.24828,12.41826 2.47536,-6.26171 0.252,-0.60948 -0.5029,1.22752 -0.7508,1.86589 -0.69457,1.78851 -0.78532,2.10584 -1.45846,4.05089 -1.65785,5.1712 -3.23306,10.71794 -4.69374,16.86354 -1.52,6.57966 -3.01602,13.25389 -4.52549,19.87564 -1.54737,6.27398 -2.96401,13.07523 -4.56156,19.12464 -1.82542,6.50519 -3.74639,12.53161 -5.86733,17.26561 -3.69071,8.98962 -7.334,18.37136 -11.21285,25.89696 -2.09575,4.08473 -4.2314,8.06463 -6.49319,10.22523 -2.07007,1.8014 -4.16882,3.1817 -6.29086,2.8904 -1.86027,0.01 -3.72053,0.053 -5.5808,0.038 -1.73848,0 -3.47723,0.041 -5.21545,-0.1038 -1.43464,-0.1698 -2.87223,-0.4165 -4.29022,-1.4199 -1.15878,-0.706 -2.32496,-1.146 -3.4817,-1.9167 -0.90905,-0.3679 -1.82644,-0.5492 -2.70888,-1.6355 -0.75154,-0.7678 -1.52047,-1.1482 -2.27998,-1.7558 0,0 4.76373,-13.91613 4.76373,-13.91613 z"
         id="path4177-8"
         style="opacity:1;fill:#20d3e6;fill-opacity:0.37254902;stroke:none;stroke-width:0.1;stroke-miterlimit:4;stroke-dasharray:none;stroke-opacity:1" />
      <path
         inkscape:connector-curvature="0"
         d="m 453.58924,990.18157 c 0.76324,0.6053 1.51668,1.111 2.2673,1.9456 0.86429,0.9817 1.7637,0.8724 2.64032,1.4919 1.15491,0.7332 2.31136,1.2537 3.46485,2.0214 1.39666,0.9208 2.81124,1.1124 4.22206,1.2596 1.72712,0.1285 3.45455,0.1339 5.18188,0.1274 1.85481,-0.027 3.70963,0.01 5.56444,0.011 2.09004,0.2565 4.16101,-1.316 6.19306,-3.2033 2.22022,-2.4518 4.33626,-6.4302 6.39978,-10.6052 1.95101,-3.3612 10.11007,-23.18629 1.67482,-2.9757 2.09774,-4.7401 4.03168,-10.5109 5.86497,-16.86202 1.63571,-5.82925 3.0413,-12.65778 4.57139,-18.95217 1.53209,-6.54778 3.02646,-13.24791 4.54776,-19.83993 1.44373,-6.13842 2.9748,-11.8639 4.60586,-17.10668 2.94904,-8.87805 6.15341,-16.1802 9.37041,-23.20846 1.48047,-3.37635 2.98032,-6.57904 4.59765,-8.62858 1.53406,-1.59156 3.12224,-1.67603 4.69321,-1.7846 1.64859,-0.21374 3.28937,-0.0517 4.91542,1.15102 1.68292,1.61589 3.24584,4.77903 4.79547,7.87922 1.85939,4.12345 3.63198,8.84262 5.35687,13.87747 1.96762,5.71761 3.69308,12.68743 5.48748,19.28564 1.63956,6.3155 3.35929,12.2309 5.08858,18.10325 1.5779,5.7171 3.18915,11.28654 4.80843,16.79892 1.53326,5.28585 3.30902,9.01366 5.07357,12.7154 1.96326,3.89552 3.94873,7.61032 6.02019,10.36882 3.13301,3.864 6.3971,5.438 9.63321,6.9539 4.27591,1.9947 8.55907,3.7251 12.85481,4.7505 0.55334,0.021 1.10668,0.043 1.66002,0.064 0,0 -4.42111,13.3866 -4.42111,13.3866 l 0,0 c -0.53691,-0.1074 -1.07383,-0.2149 -1.61074,-0.3224 -4.28638,-1.4072 -8.56833,-3.0336 -12.84501,-4.8894 -3.31607,-1.4365 -6.66544,-2.8549 -9.8742,-6.8241 -2.09636,-2.8859 -4.12268,-6.5397 -6.11045,-10.552 -1.79174,-3.8183 -3.59201,-7.6856 -5.13772,-13.15403 -1.60774,-5.555 -3.21557,-11.11915 -4.79123,-16.83106 -1.73331,-5.88942 -3.43739,-11.91936 -5.08303,-18.23893 -1.76348,-6.61189 -3.49031,-13.44948 -5.45618,-19.02395 -1.72825,-4.87499 -3.4879,-9.54925 -5.35803,-13.42564 -1.52389,-2.97121 -3.06721,-5.97386 -4.73228,-7.2515 -1.60875,-0.96446 -3.22502,-1.069 -4.84824,-0.8221 -1.54803,0.19076 -3.11513,0.4206 -4.60499,2.38142 -1.5694,2.33628 -3.04553,5.52157 -4.50838,8.84077 -1.7438,3.89541 -5.24828,12.41826 2.47536,-6.26171 0.252,-0.60948 -0.5029,1.22752 -0.7508,1.86589 -0.69457,1.78851 -0.78532,2.10584 -1.45846,4.05089 -1.65785,5.1712 -3.23306,10.71794 -4.69374,16.86354 -1.52,6.57966 -3.01602,13.25389 -4.52548,19.87564 -1.54738,6.27398 -2.96402,13.07523 -4.56157,19.12464 -1.82541,6.50519 -3.74639,12.53163 -5.86732,17.26563 -3.69072,8.9896 -7.33401,18.3713 -11.21286,25.8969 -2.09574,4.08473 -4.2314,8.06463 -6.49319,10.22523 -2.07007,1.8014 -4.16882,3.1817 -6.29086,2.8904 -1.86027,0.01 -3.72053,0.053 -5.5808,0.038 -1.73848,0 -3.47723,0.041 -5.21545,-0.1038 -1.43464,-0.1698 -2.87223,-0.4165 -4.29021,-1.4199 -1.15879,-0.706 -2.32496,-1.146 -3.48171,-1.9167 -0.90905,-0.3679 -1.82644,-0.5492 -2.70888,-1.6355 -0.75154,-0.7678 -1.52046,-1.1482 -2.27998,-1.7558 0,0 4.76373,-13.91613 4.76373,-13.91613 z"
         id="path4177-7"
         style="opacity:1;fill:#2077e6;fill-opacity:0.37254902;stroke:none;stroke-width:0.1;stroke-miterlimit:4;stroke-dasharray:none;stroke-opacity:1" />
      <path
         inkscape:connector-curvature="0"
         d="m 571.33164,990.18147 c 0.76323,0.6054 1.51668,1.1111 2.2673,1.9457 0.86428,0.9816 1.7637,0.8724 2.64032,1.4918 1.15491,0.7333 2.31136,1.2537 3.46484,2.0215 1.39667,0.9208 2.81125,1.1124 4.22206,1.2596 1.72713,0.1284 3.45455,0.1338 5.18189,0.1273 1.85481,-0.027 3.70963,0.01 5.56444,0.011 2.09004,0.2566 4.16101,-1.3159 6.19306,-3.2032 2.22022,-2.4518 4.33626,-6.43034 6.39977,-10.60534 1.95101,-3.36109 10.11007,-23.18621 1.67482,-2.9756 2.09775,-4.74019 4.03169,-10.51094 5.86498,-16.86204 1.63571,-5.82925 3.0413,-12.65778 4.57139,-18.95217 1.53209,-6.54778 3.02646,-13.24791 4.54775,-19.83993 1.44374,-6.13842 2.97481,-11.8639 4.60587,-17.10668 2.94904,-8.87805 6.15341,-16.1802 9.37041,-23.20846 1.48047,-3.37635 2.98032,-6.57904 4.59765,-8.62858 1.53405,-1.59156 3.12223,-1.67603 4.6932,-1.7846 1.64859,-0.21374 3.28938,-0.0517 4.91543,1.15102 1.68292,1.61589 3.24584,4.77903 4.79546,7.87922 1.8594,4.12345 3.63199,8.84262 5.35688,13.87747 1.96761,5.71761 3.69307,12.68743 5.48747,19.28564 1.63957,6.3155 3.3593,12.2309 5.08858,18.10325 1.57791,5.7171 3.18916,11.28654 4.80844,16.79892 1.53325,5.28585 3.30902,9.01366 5.07357,12.7154 1.96326,3.89553 3.94873,7.61028 6.02018,10.36881 3.13302,3.86404 6.3971,5.43794 9.63321,6.95393 4.27592,1.9947 8.55905,3.725 12.85484,4.7504 0.55335,0.021 1.10662,0.043 1.65998,0.064 0,0 -4.42112,13.38674 -4.42112,13.38674 l 0,0 c -0.53686,-0.1075 -1.07379,-0.215 -1.61073,-0.3224 -4.28636,-1.4073 -8.56831,-3.0336 -12.845,-4.8894 -3.31607,-1.4365 -6.66543,-2.855 -9.87419,-6.82424 -2.09636,-2.8858 -4.12268,-6.5396 -6.11045,-10.55189 -1.79174,-3.81836 -3.59201,-7.68565 -5.13772,-13.15406 -1.60775,-5.555 -3.21558,-11.11915 -4.79123,-16.83106 -1.73331,-5.88942 -3.4374,-11.91936 -5.08303,-18.23893 -1.76349,-6.61189 -3.49031,-13.44948 -5.45618,-19.02395 -1.72825,-4.87499 -3.4879,-9.54925 -5.35803,-13.42564 -1.52389,-2.97121 -3.06721,-5.97386 -4.73228,-7.2515 -1.60875,-0.96446 -3.22502,-1.069 -4.84824,-0.8221 -1.54803,0.19076 -3.11513,0.4206 -4.60499,2.38142 -1.5694,2.33628 -3.04553,5.52157 -4.50838,8.84077 -1.7438,3.89541 -5.24828,12.41826 2.47535,-6.26171 0.25201,-0.60948 -0.50289,1.22752 -0.75079,1.86589 -0.69457,1.78851 -0.78532,2.10584 -1.45846,4.05089 -1.65785,5.1712 -3.23306,10.71794 -4.69374,16.86354 -1.52,6.57966 -3.01602,13.25389 -4.52549,19.87564 -1.54737,6.27398 -2.96401,13.07523 -4.56156,19.12464 -1.82542,6.50519 -3.74639,12.53161 -5.86733,17.26561 -3.69071,8.98954 -7.334,18.37138 -11.21285,25.89688 -2.09575,4.08483 -4.2314,8.06473 -6.49319,10.22533 -2.07007,1.8014 -4.16882,3.1817 -6.29086,2.8904 -1.86027,0.01 -3.72053,0.053 -5.5808,0.038 -1.73848,0 -3.47723,0.041 -5.21545,-0.1038 -1.43464,-0.1698 -2.87223,-0.4165 -4.29022,-1.4199 -1.15878,-0.706 -2.32496,-1.146 -3.4817,-1.9167 -0.90905,-0.3679 -1.82644,-0.5493 -2.70888,-1.6355 -0.75154,-0.7679 -1.52047,-1.1482 -2.27998,-1.7559 0,0 4.76373,-13.91613 4.76373,-13.91613 z"
         id="path4177-5"
         style="opacity:1;fill:#2032e6;fill-opacity:0.37254902;stroke:none;stroke-width:0.1;stroke-miterlimit:4;stroke-dasharray:none;stroke-opacity:1" />
      <path
         inkscape:connector-curvature="0"
         d="m 689.07406,990.18143 c 0.76323,0.6054 1.51668,1.1111 2.2673,1.9457 0.86428,0.9816 1.7637,0.8724 2.64032,1.4918 1.15491,0.73334 2.31136,1.25374 3.46484,2.02154 1.39667,0.9208 2.81125,1.1124 4.22206,1.2596 1.72713,0.1284 3.45455,0.1338 5.18189,0.1273 1.85481,-0.027 3.70963,0.01 5.56444,0.011 2.09004,0.2566 4.16101,-1.3159 6.19306,-3.20324 2.22022,-2.4518 4.33626,-6.43034 6.39978,-10.60534 1.95101,-3.36109 10.11006,-23.18621 1.67481,-2.9756 2.09775,-4.74019 4.03169,-10.51094 5.86498,-16.86204 1.63571,-5.82925 3.0413,-12.65778 4.57139,-18.95217 1.53209,-6.54778 3.02646,-13.24791 4.54775,-19.83993 1.44374,-6.13842 2.97481,-11.8639 4.60587,-17.10668 2.94904,-8.87805 6.15341,-16.1802 9.37041,-23.20846 1.48047,-3.37635 2.98032,-6.57904 4.59765,-8.62858 1.53405,-1.59156 3.12224,-1.67603 4.69321,-1.7846 1.64857,-0.21374 3.28936,-0.0517 4.91542,1.15102 1.68288,1.61589 3.24582,4.77903 4.7955,7.87922 1.85938,4.12345 3.63198,8.84262 5.35686,13.87747 1.9676,5.71761 3.69302,12.68743 5.48743,19.28564 1.63956,6.3155 3.35935,12.2309 5.08863,18.10325 1.57789,5.7171 3.18916,11.28654 4.80845,16.79892 1.53318,5.28585 3.30901,9.01366 5.07351,12.7154 1.96329,3.89553 3.94878,7.61028 6.02021,10.36881 3.13305,3.86404 6.39713,5.43794 9.63323,6.95393 4.2759,1.9947 8.55904,3.725 12.85483,4.7504 0.55335,0.021 1.10663,0.043 1.65998,0.064 0,0 -4.42112,13.38678 -4.42112,13.38678 l 0,0 c -0.53685,-0.1075 -1.07379,-0.215 -1.61072,-0.3224 -4.28639,-1.4073 -8.5683,-3.0336 -12.84505,-4.88944 -3.31603,-1.4365 -6.66544,-2.855 -9.87417,-6.82424 -2.09633,-2.8858 -4.12267,-6.5396 -6.11047,-10.55189 -1.79171,-3.81836 -3.59198,-7.68565 -5.13773,-13.15406 -1.60772,-5.555 -3.21552,-11.11915 -4.79118,-16.83106 -1.73336,-5.88942 -3.43743,-11.91936 -5.08308,-18.23893 -1.76349,-6.61189 -3.4903,-13.44948 -5.45613,-19.02395 -1.72828,-4.87499 -3.48792,-9.54925 -5.35802,-13.42564 -1.52394,-2.97121 -3.06722,-5.97386 -4.73231,-7.2515 -1.60875,-0.96446 -3.22502,-1.069 -4.84824,-0.8221 -1.54803,0.19076 -3.11513,0.4206 -4.60499,2.38142 -1.5694,2.33628 -3.04553,5.52157 -4.50838,8.84077 -1.7438,3.89541 -5.24828,12.41826 2.47536,-6.26171 0.252,-0.60948 -0.5029,1.22752 -0.7508,1.86589 -0.69457,1.78851 -0.78532,2.10584 -1.45846,4.05089 -1.65785,5.1712 -3.23306,10.71794 -4.69374,16.86354 -1.52,6.57966 -3.01602,13.25389 -4.52548,19.87564 -1.54738,6.27398 -2.96402,13.07523 -4.56157,19.12464 -1.82542,6.50519 -3.74639,12.53161 -5.86733,17.26561 -3.69071,8.98954 -7.334,18.37138 -11.21285,25.89692 -2.09575,4.08483 -4.2314,8.06473 -6.49319,10.22533 -2.07007,1.8014 -4.16882,3.1817 -6.29086,2.8904 -1.86027,0.01 -3.72053,0.053 -5.5808,0.038 -1.73848,0 -3.47723,0.041 -5.21545,-0.1038 -1.43464,-0.1698 -2.87223,-0.4165 -4.29022,-1.4199 -1.15878,-0.706 -2.32496,-1.146 -3.4817,-1.9167 -0.90905,-0.3679 -1.82644,-0.5493 -2.70888,-1.6355 -0.75154,-0.7679 -1.52047,-1.1482 -2.27998,-1.7559 0,0 4.76373,-13.91617 4.76373,-13.91617 z"
         id="path4177-5-0"
         style="opacity:1;fill:#6c20e6;fill-opacity:0.37254902;stroke:none;stroke-width:0.1;stroke-miterlimit:4;stroke-dasharray:none;stroke-opacity:1" />
    </g>
    <g
       id="g4296"
       transform="translate(-18.571429,-95.714286)">
      <path
         inkscape:connector-curvature="0"
         d="m 326.08989,568.14603 c 2.20518,7.16963 4.57863,14.27168 7.2225,21.2923 4.99755,12.71248 10.5554,25.18616 16.1926,37.62417 8.0859,18.63783 16.26469,37.20523 25.34489,55.38393 10.88707,20.89055 22.93954,41.12533 35.75361,60.88148 10.50017,16.14812 21.07671,32.25631 30.22095,49.22212 4.70982,8.94596 8.11912,18.48203 11.36184,28.03309 1.21715,2.51273 1.69603,5.62425 3.84343,7.57316 0.67736,0.38644 0.62754,0.51318 0.10552,-0.66903 0,0 -15.61786,12.41337 -15.61786,12.41337 l 0,0 c -0.48417,-0.48534 -0.98263,-0.95618 -1.44484,-1.46236 -1.98528,-2.51648 -2.66751,-5.65843 -3.71037,-8.63549 -2.71701,-9.66345 -5.72051,-19.2925 -10.1504,-28.33071 -8.60449,-17.18738 -19.0691,-33.32022 -29.37827,-49.52008 -12.7316,-19.87846 -24.69052,-40.22912 -35.76073,-61.08434 -9.22476,-18.09086 -17.81682,-36.46848 -26.26228,-54.93411 -5.81047,-12.37665 -11.47587,-24.81945 -16.73658,-37.44156 -2.78557,-6.82872 -5.28715,-13.77509 -8.19454,-20.54654 0,0 17.21053,-9.7994 17.21053,-9.7994 z"
         id="path4224"
         style="opacity:1;fill:#20e6c1;fill-opacity:0.37254902;stroke:none;stroke-width:0.1;stroke-miterlimit:4;stroke-dasharray:none;stroke-opacity:1" />
      <path
         inkscape:connector-curvature="0"
         d="m 337.71486,647.5117 c 5.12772,3.00873 9.96404,6.4405 14.60994,10.14397 8.40894,7.12841 16.91974,14.14435 25.64859,20.87882 12.95603,10.1258 26.88093,18.8872 40.65028,27.84011 18.95129,12.17693 37.2468,25.3048 55.43335,38.58201 16.03269,12.06213 31.7703,24.50834 47.67505,36.73693 8.59181,6.58835 17.4873,12.79797 25.62989,19.94787 2.44241,1.89729 4.14493,4.20187 5.60983,6.85086 0.39703,1.30858 1.37,2.1563 2.09418,3.25957 0.29221,0.4543 0.55798,0.92445 0.8027,1.40569 0.0522,0.1075 0.10671,0.21382 0.16096,0.32027 0,0 -17.73948,9.23024 -17.73948,9.23024 l 0,0 c 0.0244,0.0418 0.0667,0.14475 0.11969,0.16641 -0.11747,-0.38771 -0.28364,-0.75945 -0.49672,-1.10805 -0.72071,-1.14688 -1.73998,-2.08443 -2.10989,-3.43994 -1.27243,-2.46552 -2.6174,-4.74702 -4.81231,-6.58627 -7.4698,-7.5795 -16.10407,-13.86463 -24.35631,-20.54669 -15.54158,-12.51905 -31.08784,-25.03711 -46.99022,-37.09772 -18.17108,-13.34119 -36.5431,-26.40677 -55.73477,-38.25876 -14.04798,-8.80562 -28.23811,-17.44511 -41.43747,-27.5124 -8.88025,-6.65472 -17.51439,-13.62644 -26.17993,-20.55683 -4.79992,-3.56715 -9.75335,-6.92658 -15.15539,-9.52979 0,0 16.57803,-10.7263 16.57803,-10.7263 z"
         id="path4228"
         style="opacity:1;fill:#20d3e6;fill-opacity:0.37254902;stroke:none;stroke-width:0.1;stroke-miterlimit:4;stroke-dasharray:none;stroke-opacity:1" />
      <path
         inkscape:connector-curvature="0"
         d="m 433.38847,726.86587 c 7.7841,1.31813 15.47741,3.09457 23.26423,4.41078 15.74599,2.61146 31.60221,4.51689 47.46982,6.21425 20.42901,1.85588 40.71522,4.91401 61.01445,7.81255 22.09944,3.59949 44.23618,6.94835 66.39938,10.12901 17.60986,2.37952 35.28275,4.22525 52.92855,6.29415 5.67858,0.61459 11.33089,1.51193 17.02741,1.9585 1.6035,-0.22809 2.82178,0.77152 4.30897,1.13335 0.72671,0.15306 1.45712,0.33799 2.20206,0.37517 0.4119,-0.1639 0.87946,-0.0997 1.3321,-0.0997 0.13825,-0.002 0.2765,-0.003 0.41475,-0.005 0,0 -16.09052,11.70065 -16.09052,11.70065 l 0,0 c -0.13589,-5e-4 -0.27177,-10e-4 -0.40766,-10e-4 -0.54048,0.004 -1.09678,0.0929 -1.60044,-0.14474 -0.74506,-0.22318 -1.50087,-0.41119 -2.23542,-0.66907 -1.32384,-0.50009 -2.56994,-0.84586 -4.00016,-0.89439 -5.33572,-0.84555 -10.62541,-1.97571 -15.97553,-2.73785 -17.27881,-2.57825 -34.63918,-4.5993 -51.94089,-7.01742 -22.16501,-3.25603 -44.31394,-6.61319 -66.44562,-10.08863 -20.40241,-2.85785 -40.80143,-5.8099 -61.34293,-7.5029 -16.08551,-1.65239 -32.15926,-3.47671 -48.15593,-5.85084 -8.10509,-1.23698 -16.15577,-2.8811 -24.32155,-3.68207 0,0 16.15493,-11.33441 16.15493,-11.33441 z"
         id="path4232"
         style="opacity:1;fill:#2077e6;fill-opacity:0.37254902;stroke:none;stroke-width:0.1;stroke-miterlimit:4;stroke-dasharray:none;stroke-opacity:1" />
      <path
         inkscape:connector-curvature="0"
         d="m 586.08989,712.43174 c 1.98282,3.29748 4.97191,5.7923 7.79961,8.33462 5.09909,4.78773 10.09301,9.68229 15.15729,14.50719 8.74267,8.1803 17.28161,16.56995 25.91962,24.85924 9.92358,9.76433 20.6004,18.68531 31.59763,27.20241 11.40975,8.44074 22.64728,17.10076 33.63524,26.0838 10.12799,8.43597 18.69673,18.45692 27.4614,28.24128 8.85694,10.12858 18.01495,19.93099 28.39045,28.51702 5.26473,4.35844 11.01152,8.07201 16.27711,12.42329 0,0 -16.52143,10.27911 -16.52143,10.27911 l 0,0 c -4.94231,-4.5667 -10.60567,-8.27373 -15.53715,-12.86398 -10.0919,-8.95553 -19.12881,-18.93014 -28.17866,-28.92081 -8.81015,-9.63798 -17.4164,-19.51984 -27.4499,-27.93544 -10.87556,-9.04449 -21.96276,-17.81646 -33.37357,-26.17961 -11.08766,-8.53956 -21.95706,-17.36663 -31.90859,-27.2333 -8.69864,-8.26696 -17.32009,-16.61263 -26.29095,-24.58831 -5.2683,-4.67203 -10.41896,-9.46859 -15.65598,-14.17481 -3.02579,-2.72552 -6.1654,-5.40671 -8.53265,-8.7523 0,0 17.21053,-9.7994 17.21053,-9.7994 z"
         id="path4236"
         style="opacity:1;fill:#2032e6;fill-opacity:0.37254902;stroke:none;stroke-width:0.1;stroke-miterlimit:4;stroke-dasharray:none;stroke-opacity:1" />
      <path
         inkscape:connector-curvature="0"
         d="m 645.70946,815.11837 c 3.00067,-0.0375 5.95809,0.12583 8.93565,0.46127 4.24287,0.48538 8.45431,1.22533 12.6689,1.90832 5.55972,0.73511 11.14297,1.27976 16.71272,1.93831 6.47158,0.6337 12.86355,1.81652 19.30614,2.65507 7.05968,1.09737 14.06403,2.49966 21.11837,3.62668 9.46984,1.56982 18.95928,3.03399 28.41139,4.70087 9.01448,1.72186 17.9704,3.74816 26.82433,6.11948 10.70255,2.82028 21.21042,6.26702 31.83598,9.33935 12.85421,3.86839 25.90837,7.04309 39.0571,9.82298 12.28181,2.53186 24.63504,4.71894 37.04638,6.569 5.764,0.94389 11.5341,1.86313 17.3418,2.5218 1.1242,0.1481 1.5071,-0.14894 2.2065,0.71216 0,0 -13.639,8.0768 -13.639,8.0768 l 0,0 c 0.3067,0.60896 -1.0555,-0.13622 -1.4473,-0.066 -5.5041,-1.06139 -11.01718,-2.08151 -16.53327,-3.08345 -12.27185,-2.08604 -24.5053,-4.38125 -36.68999,-6.89831 -13.22549,-2.81227 -26.37395,-5.96243 -39.33519,-9.7627 -10.68773,-3.06398 -21.29047,-6.41428 -32.0811,-9.13333 -8.8567,-2.25188 -17.77392,-4.29506 -26.75884,-6.01727 -9.47756,-1.66579 -18.9779,-3.21891 -28.50405,-4.60469 -7.12162,-1.09943 -14.21505,-2.36175 -21.34025,-3.43954 -6.40602,-0.91828 -12.78412,-2.03331 -19.23278,-2.65633 -5.66014,-0.57885 -11.33055,-1.08093 -16.96648,-1.86044 -4.22163,-0.6802 -8.45477,-1.34478 -12.71327,-1.76245 -3.02319,-0.26199 -6.04743,-0.28286 -9.08068,-0.16837 0,0 12.85694,-8.99922 12.85694,-8.99922 z"
         id="path4238"
         style="opacity:1;fill:#6c20e6;fill-opacity:0.37254902;stroke:none;stroke-width:0.1;stroke-miterlimit:4;stroke-dasharray:none;stroke-opacity:1" />
      <path
         inkscape:connector-curvature="0"
         d="m 379.87716,587.53797 c -5.87618,2.39597 -11.41842,5.12883 -16.74245,8.07805 -9.63634,5.67664 -19.3894,11.26372 -29.39234,16.62665 -14.84714,8.06359 -30.80456,15.04064 -46.58373,22.17021 -21.71748,9.69698 -42.68346,20.15124 -63.52458,30.72442 -18.37288,9.60556 -36.4076,19.51698 -54.63386,29.2551 -9.8459,5.24657 -20.0398,10.19154 -29.37091,15.8853 -2.79891,1.51089 -4.74994,3.34612 -6.42866,5.45562 -0.45498,1.04207 -1.56997,1.71715 -2.39985,2.59572 -0.33486,0.36178 -0.63943,0.73618 -0.91987,1.11941 -0.0598,0.0856 -0.12228,0.17028 -0.18445,0.25505 0,0 20.32879,7.35041 20.32879,7.35041 l 0,0 c -0.028,0.0333 -0.0764,0.11527 -0.13716,0.13252 0.13462,-0.30875 0.32504,-0.60478 0.56922,-0.88239 0.82591,-0.9133 1.99396,-1.65991 2.41786,-2.73936 1.45816,-1.96339 2.99945,-3.78024 5.51473,-5.24491 8.56012,-6.03587 18.45467,-11.04097 27.91144,-16.36216 17.81008,-9.96943 35.62552,-19.93807 53.84906,-29.54242 20.82339,-10.62413 41.87705,-21.02878 63.87,-30.467 16.09847,-7.01228 32.35984,-13.89225 47.48582,-21.90924 10.17644,-5.29943 20.07084,-10.85129 30.00123,-16.37024 5.50054,-2.84067 11.17699,-5.51592 17.36752,-7.58896 0,0 -18.99781,-8.54178 -18.99781,-8.54178 z"
         id="path4228-1"
         style="opacity:1;fill:#20e658;fill-opacity:0.37254902;stroke:none;stroke-width:0.1;stroke-miterlimit:4;stroke-dasharray:none;stroke-opacity:1" />
      <path
         inkscape:connector-curvature="0"
         d="m 65.359751,716.55214 c 4.785859,1.74647 9.610579,3.32039 14.554229,4.56376 6.97549,1.52114 14.13193,2.04246 21.25633,1.8731 8.85726,-0.77957 17.58521,-2.57058 26.2589,-4.47049 10.8436,-2.87237 21.58624,-6.0925 32.28072,-9.47169 11.4959,-3.31776 22.67363,-7.52192 33.72035,-12.08951 11.36573,-4.3312 22.35458,-9.54175 33.20322,-15.01913 4.56734,-2.33587 6.14153,-3.10226 10.63356,-5.55306 1.70513,-0.9303 6.76138,-3.82682 5.08783,-2.84084 -23.45146,13.81647 -6.48841,3.63002 -1.65005,0.6391 8.27713,-5.3154 16.65374,-10.48522 24.66489,-16.19853 6.94504,-4.96568 13.71421,-10.15951 20.37231,-15.50176 5.59188,-4.43152 11.04481,-9.0437 16.37881,-13.78256 3.78702,-3.13082 6.83306,-6.96459 9.63863,-10.96565 1.45551,-2.01224 2.53435,-4.29128 4.24298,-6.11027 5.04197,-5.02649 7.46667,-4.49643 17.99788,-10.36305 0.26356,-0.14683 0.45803,0.15184 0.5873,0.30244 0.56718,0.23741 1.77424,2.92635 0.43713,2.1287 -0.4743,-0.0957 -0.0514,0.59244 -0.006,0.85706 0.0535,0.35381 0.0978,0.70891 0.15091,1.06278 0.0421,0.11952 0.0533,0.2382 0.0625,0.34094 -0.32299,0.95011 0.0965,1.98602 0.3807,2.88415 0.45371,2.5935 1.08571,5.1191 1.91487,7.62102 1.25049,3.51375 3.00554,6.80113 4.49527,10.20974 2.03778,4.9734 4.70113,9.61812 7.39165,14.25585 3.55857,5.68957 7.19427,11.32832 11.05798,16.81594 4.09752,5.78524 8.76571,11.10263 13.89416,15.98766 5.37603,4.99403 11.12159,9.56286 16.97195,13.98291 6.57522,5.3172 13.22655,10.52969 19.93358,15.68008 7.26977,5.35951 15.01582,9.9972 22.82923,14.50435 8.55577,4.57886 17.37819,8.62726 26.26613,12.51187 8.65052,3.96986 17.80295,6.45536 27.02764,8.64603 8.54199,1.88163 17.29822,2.39244 25.98864,3.17503 8.87855,0.51188 17.74646,1.13341 26.62033,1.72598 8.635,0.64843 17.29075,1.18356 25.91204,2.00734 7.5226,0.45635 14.94103,1.62848 22.29217,3.25341 6.42991,1.60843 12.61464,4.07887 18.44726,7.20779 5.97023,3.13641 11.28178,7.22112 15.89136,12.1188 4.617,5.23428 8.7363,10.88742 12.87007,16.50494 4.81862,7.03453 11.0046,12.77586 17.57634,18.1216 7.88729,6.2593 16.27893,11.7806 24.97327,16.8359 9.69401,5.4328 20.32535,8.7493 30.95906,11.7743 12.76833,3.5497 25.77823,6.1001 38.69721,9.016 16.57223,3.7622 33.40807,6.3032 50.25277,8.4875 14.79401,2.0701 29.69878,3.0497 44.61368,3.6631 0,0 -14.70254,10.5576 -14.70254,10.5576 l 0,0 c -14.7996,-1.0476 -29.61133,-2.0771 -44.32604,-4.0282 -16.98852,-2.1906 -33.97432,-4.6591 -50.70827,-8.359 -13.06456,-2.7829 -26.19728,-5.3089 -39.07664,-8.8888 -10.7977,-3.0539 -21.55826,-6.4986 -31.36896,-12.0613 -8.77673,-5.1201 -17.24135,-10.7253 -25.23889,-17.0083 -6.72213,-5.4306 -13.05545,-11.2602 -18.02782,-18.39412 -4.18156,-5.49685 -8.23198,-11.11795 -12.86644,-16.24779 -4.50701,-4.71897 -9.71906,-8.61351 -15.54585,-11.58591 -5.77029,-2.92258 -11.80504,-5.34269 -18.1197,-6.81297 -7.26733,-1.55264 -14.59968,-2.65308 -22.01894,-3.16586 -8.59598,-0.79591 -17.21447,-1.39985 -25.82504,-2.00997 -8.87688,-0.61973 -17.75651,-1.14586 -26.63295,-1.76345 -8.7544,-0.76084 -17.56935,-1.34998 -26.13993,-3.41074 -9.27151,-2.27115 -18.41265,-4.99834 -27.115,-8.98439 -8.96045,-3.91238 -17.83465,-8.032 -26.46917,-12.62616 -7.88952,-4.52772 -15.65,-9.28729 -22.96397,-14.71168 -6.73371,-5.13914 -13.46784,-10.27156 -20.07621,-15.57159 -5.9312,-4.44674 -11.74288,-9.06406 -17.15517,-14.13881 -5.17397,-5.01509 -9.92411,-10.40345 -14.09741,-16.28836 -3.91884,-5.51838 -7.5778,-11.20792 -11.23242,-16.90345 -2.76601,-4.67155 -5.58785,-9.31202 -7.6802,-14.3395 -1.55805,-3.44 -3.46167,-6.71798 -4.74296,-10.28552 -0.83817,-2.48335 -1.66155,-4.96433 -2.09954,-7.55404 -0.37421,-1.17507 -0.90742,-2.28309 -0.91927,-3.52874 0.097,-0.0571 -0.0141,0.0171 0.0779,-0.0459 0.0112,-0.31943 -0.004,-0.63894 -0.03,-0.9575 -0.0467,-0.57173 -0.30967,-1.10601 -0.42545,-1.71381 -0.25463,-2.08538 0.6437,-0.37294 1.29744,0.98574 0.0706,0.10596 0.23713,0.24234 0.16269,0.34567 -0.0277,0.0385 -0.15814,0.10482 -0.11687,0.0814 21.59655,-12.28096 22.57024,-11.98076 16.10038,-9.30454 -2.22626,1.35548 -3.39759,3.5737 -4.79433,5.71457 -2.75354,4.20351 -5.89012,8.22786 -9.71064,11.51637 -5.39593,4.81666 -10.92588,9.4926 -16.60297,13.97246 -6.65163,5.40616 -13.42929,10.64263 -20.405,15.62548 -8.0202,5.84979 -16.49924,11.01045 -24.82916,16.40226 -14.91503,9.29832 -30.1437,18.126 -45.8508,26.02123 -10.87356,5.43396 -21.91502,10.52105 -33.26458,14.89267 -11.08534,4.55977 -22.35285,8.60988 -33.85709,11.9966 -10.7862,3.40486 -21.62308,6.66591 -32.57819,9.48771 -8.80971,1.9262 -17.69535,3.76455 -26.71297,4.33254 -7.26967,0.0211 -14.55979,-0.50746 -21.650429,-2.20452 -5.12253,-1.30502 -10.1562,-2.88984 -15.2111,-4.42916 0,0 16.42056,-11.00086 16.42056,-11.00086 z"
         id="path4169"
         style="opacity:1;fill:#e62054;fill-opacity:0.79428573;stroke:none;stroke-width:0.1;stroke-miterlimit:4;stroke-dasharray:none;stroke-opacity:1" />
    </g>
    <g
       id="g4329"
       style="fill:#000000;fill-opacity:0.84571425"
       transform="matrix(0.10154492,0,0,0.44992763,656.27252,643.98858)">
      <path
         inkscape:connector-curvature="0"
         d="m 598.07817,527.52087 c -2.45949,-0.95087 -5.04467,-1.53923 -7.62218,-2.07267 -0.16446,-0.0594 -0.6376,-0.0794 -0.49339,-0.17833 5.77275,-3.95973 11.46077,-8.08215 17.55573,-11.52533 0.7837,-0.44273 1.80036,0.0325 2.69905,0.0829 1.56424,0.0879 3.12479,0.23328 4.68839,0.33202 5.83305,0.36836 11.66849,0.69818 17.50177,1.0629 46.07627,3.23186 92.28017,3.91855 138.44788,4.67656 75.1247,1.01518 150.25788,1.02877 225.38752,0.79129 49.35426,-0.39104 98.71116,-0.6081 148.06426,-1.13924 0,0 -13.5287,9.79136 -13.5287,9.79136 l 0,0 c -47.6738,-2.37817 -95.4223,-1.94775 -143.13935,-2.40152 -75.4018,-0.28792 -150.80377,-0.26461 -226.20602,-0.2086 -47.69021,-0.0465 -95.39139,0.0208 -143.0657,-1.39207 -8.89424,-0.14606 -10.51592,-0.22208 -18.66568,-0.19973 -1.68607,0.005 -3.37278,-5e-5 -5.05789,0.0569 -0.97498,0.033 -3.62937,0.88126 -2.91888,0.21278 12.74114,-11.98769 8.82382,-13.08238 15.01642,-11.20535 2.59407,0.74267 5.19938,1.45411 7.75733,2.3152 0,0 -16.42056,11.00085 -16.42056,11.00085 z"
         id="path4323"
         style="opacity:1;fill:#000000;fill-opacity:0.84571425;stroke:none;stroke-width:0.1;stroke-miterlimit:4;stroke-dasharray:none;stroke-opacity:1" />
      <path
         inkscape:connector-curvature="0"
         d="m 607.96523,528.25927 c 6.16046,5.91793 12.99575,11.05378 19.83796,16.14341 3.68149,2.27676 6.97773,5.12201 10.56456,7.53089 0.28537,0.19165 1.19672,0.31494 0.90432,0.49567 -5.85199,3.61702 -12.00735,6.71848 -18.01102,10.07772 -11.52769,-5.691 -23.47443,-10.48305 -35.31204,-15.48308 -14.79066,-6.34041 -29.87365,-12.294 -43.2202,-21.40714 -1.02651,-0.96642 -2.23795,-1.76813 -3.07951,-2.89925 -5.89322,-7.92091 6.04133,-14.78009 11.14978,-18.38229 17.64541,-11.39579 36.4484,-20.6494 55.38912,-29.61319 0,0 -14.04957,11.17967 -14.04957,11.17967 l 0,0 c -5.99242,2.77784 -9.4396,4.33274 -15.50895,7.34314 -2.98408,1.4801 -5.61561,4.00725 -8.90446,4.53537 -0.30753,0.0494 18.76741,-11.21883 0.0226,-0.11322 -3.14192,2.14434 -12.89106,7.63038 -12.80047,12.48817 0.0482,2.58663 1.92993,3.76157 3.53799,5.45183 12.67099,9.62068 27.48952,15.61911 42.11977,21.61848 12.26978,4.90959 24.57733,9.73203 36.93628,14.40966 -4.98395,3.78482 -9.77807,7.83358 -14.95186,11.35446 -0.2736,0.18619 -0.45822,-0.47837 -0.70335,-0.70071 -0.5071,-0.45992 -1.02888,-0.90351 -1.55213,-1.34497 -2.70679,-2.28372 -5.5119,-4.44783 -8.3843,-6.5192 -6.92141,-5.28507 -13.87761,-10.52308 -20.72152,-15.90896 0,0 16.73703,-10.25646 16.73703,-10.25646 z"
         id="path4325"
         style="opacity:1;fill:#000000;fill-opacity:0.84571425;stroke:none;stroke-width:0.1;stroke-miterlimit:4;stroke-dasharray:none;stroke-opacity:1" />
      <path
         inkscape:connector-curvature="0"
         d="m 1140.5313,484.00874 c 9.7102,1.52087 19.4584,2.76087 29.2049,4.03039 7.1505,0.87397 14.373,1.25854 21.4207,2.84535 2.2362,0.50348 5.7485,1.15946 7.4154,3.20061 0.5929,0.72603 0.6216,1.7687 0.9324,2.65306 -0.8099,1.32127 -1.3675,2.83522 -2.4296,3.96381 -2.2082,2.34668 -9.0066,6.61328 -11.4345,8.14925 -6.4703,4.09316 -13.0138,8.00952 -19.3874,12.25678 -5.1656,3.30068 -9.7744,7.31192 -14.0618,11.66502 0,0 -17.7401,7.35582 -17.7401,7.35582 l 0,0 c 4.5789,-4.57965 9.406,-8.92363 14.898,-12.40411 10.9542,-7.34976 22.624,-13.62844 33.0318,-21.76679 -0.013,-0.51975 0.2521,-1.12876 -0.04,-1.55925 -1.2017,-1.77456 -4.7366,-2.5528 -6.3211,-2.95717 -6.8626,-1.75137 -13.9567,-2.22003 -20.9691,-2.98799 -10.2264,-1.0257 -20.4355,-2.23417 -30.675,-3.11036 0,0 16.1549,-11.33442 16.1549,-11.33442 z"
         id="path4327"
         style="opacity:1;fill:#000000;fill-opacity:0.84571425;stroke:none;stroke-width:0.1;stroke-miterlimit:4;stroke-dasharray:none;stroke-opacity:1" />
    </g>
    <text
       xml:space="preserve"
       style="font-style:normal;font-weight:normal;font-size:25px;line-height:125%;font-family:sans-serif;letter-spacing:0px;word-spacing:0px;fill:#000000;fill-opacity:1;stroke:none;stroke-width:1px;stroke-linecap:butt;stroke-linejoin:miter;stroke-opacity:1"
       x="705.71429"
       y="869.50507"
       id="text4362"
       sodipodi:linespacing="125%"><tspan
         sodipodi:role="line"
         id="tspan4364"
         x="705.71429"
         y="869.50507">w</tspan></text>
    <text
       xml:space="preserve"
       style="font-style:normal;font-weight:normal;font-size:25px;line-height:125%;font-family:sans-serif;letter-spacing:0px;word-spacing:0px;fill:#000000;fill-opacity:1;stroke:none;stroke-width:1px;stroke-linecap:butt;stroke-linejoin:miter;stroke-opacity:1"
       x="738.57147"
       y="932.36218"
       id="text4366"
       sodipodi:linespacing="125%"><tspan
         sodipodi:role="line"
         id="tspan4368"
         x="738.57147"
         y="932.36218">b</tspan></text>
    <g
       id="g4380"
       transform="matrix(0.20408586,0,0,0.30524947,547.35486,663.97666)">
      <path
         inkscape:connector-curvature="0"
         d="m 967.38427,324.44053 c -0.28535,5.42108 -0.25339,10.85189 -0.28846,16.27848 -0.0224,6.11939 0.004,12.23812 0.11408,18.35644 0,0 -17.27692,8.80303 -17.27692,8.80303 l 0,0 c 0.10871,-6.15708 0.13703,-12.31455 0.11407,-18.47269 -0.0347,-5.32855 0.002,-10.66178 -0.28845,-15.98452 0,0 17.62568,-8.98074 17.62568,-8.98074 z"
         id="path4370"
         style="opacity:1;fill:#000000;fill-opacity:0.84571425;stroke:none;stroke-width:0.1;stroke-miterlimit:4;stroke-dasharray:none;stroke-opacity:1" />
      <path
         inkscape:connector-curvature="0"
         d="m 970.31607,425.90614 c 0.52621,7.43791 0.64297,14.89039 1.09544,22.33421 0.66064,9.05857 1.89229,18.08441 4.46573,26.80568 0.26819,0.79106 0.53638,1.58211 0.80457,2.37316 0,0 -16.97642,9.28157 -16.97642,9.28157 l 0,0 c -0.21994,-0.83916 -0.43988,-1.67832 -0.65982,-2.51748 -2.16146,-8.98557 -3.45305,-18.13015 -4.25071,-27.33699 -0.5218,-7.23472 -0.82425,-14.51781 -1.91202,-21.69172 0,0 17.43323,-9.24843 17.43323,-9.24843 z"
         id="path4372"
         style="opacity:1;fill:#000000;fill-opacity:0.84571425;stroke:none;stroke-width:0.1;stroke-miterlimit:4;stroke-dasharray:none;stroke-opacity:1" />
      <path
         inkscape:connector-curvature="0"
         d="m 971.65054,544.62132 c -0.17362,6.5283 -0.4574,13.03808 -1.10596,19.53891 -0.95739,7.41939 -1.50896,14.87472 -1.79618,22.34718 -0.0558,3.63635 -0.0456,1.91783 -0.0408,5.15549 0,0 -17.31564,8.7649 -17.31564,8.7649 l 0,0 c 0.17931,-3.34138 0.0869,-1.57223 0.27551,-5.30757 0.34426,-7.52644 0.9058,-15.03951 1.86664,-22.515 0.69289,-6.31805 1.01314,-12.67374 0.52966,-19.02299 0,0 17.5868,-8.96092 17.5868,-8.96092 z"
         id="path4374"
         style="opacity:1;fill:#000000;fill-opacity:0.84571425;stroke:none;stroke-width:0.1;stroke-miterlimit:4;stroke-dasharray:none;stroke-opacity:1" />
      <path
         inkscape:connector-curvature="0"
         d="m 971.66999,655.86911 c -0.0941,4.82434 -0.67499,9.61683 -1.07485,14.42161 -0.62207,6.50164 0.0414,12.99692 1.06254,19.41692 0,0 -17.05595,8.98781 -17.05595,8.98781 l 0,0 c -0.77602,-6.56483 -1.70977,-13.17105 -1.20361,-19.79576 0.2766,-4.67946 0.96663,-9.36026 0.64618,-14.04985 0,0 17.62569,-8.98073 17.62569,-8.98073 z"
         id="path4376"
         style="opacity:1;fill:#000000;fill-opacity:0.84571425;stroke:none;stroke-width:0.1;stroke-miterlimit:4;stroke-dasharray:none;stroke-opacity:1" />
      <path
         inkscape:connector-curvature="0"
         d="m 973.09856,764.44053 c -0.0669,5.25286 -0.49585,10.47936 -0.91335,15.71331 -0.58642,6.63356 -0.7203,13.26979 0.0456,19.8876 0.56912,3.2652 0.26487,1.72283 0.89273,4.631 0,0 -17.16338,9.15239 -17.16338,9.15239 l 0,0 c -0.49863,-3.06004 -0.24696,-1.44234 -0.74672,-4.85439 -0.84108,-6.74622 -0.63016,-13.48576 -0.12111,-20.25645 0.30241,-5.09434 0.80755,-10.18896 0.38051,-15.29272 0,0 17.62569,-8.98074 17.62569,-8.98074 z"
         id="path4378"
         style="opacity:1;fill:#000000;fill-opacity:0.84571425;stroke:none;stroke-width:0.1;stroke-miterlimit:4;stroke-dasharray:none;stroke-opacity:1" />
    </g>
    <text
       xml:space="preserve"
       style="font-style:normal;font-weight:normal;font-size:25px;line-height:125%;font-family:sans-serif;letter-spacing:0px;word-spacing:0px;fill:#000000;fill-opacity:1;stroke:none;stroke-width:1px;stroke-linecap:butt;stroke-linejoin:miter;stroke-opacity:1"
       x="311.42856"
       y="393.79077"
       id="text4387"
       sodipodi:linespacing="125%"><tspan
         sodipodi:role="line"
         id="tspan4389"
         x="311.42856"
         y="393.79077">A first order neural taylor approximation</tspan></text>
  </g>
</svg>
