<?xml version="1.0" encoding="UTF-8" standalone="no"?>
<!-- Created with Inkscape (http://www.inkscape.org/) -->

<svg
   xmlns:dc="http://purl.org/dc/elements/1.1/"
   xmlns:cc="http://creativecommons.org/ns#"
   xmlns:rdf="http://www.w3.org/1999/02/22-rdf-syntax-ns#"
   xmlns:svg="http://www.w3.org/2000/svg"
   xmlns="http://www.w3.org/2000/svg"
   xmlns:sodipodi="http://sodipodi.sourceforge.net/DTD/sodipodi-0.dtd"
   xmlns:inkscape="http://www.inkscape.org/namespaces/inkscape"
   width="297mm"
   height="210mm"
   viewBox="0 0 1052.3622 744.09448"
   id="svg3344"
   version="1.1"
   inkscape:version="0.91 r13725"
   sodipodi:docname="continuiousfn.svg">
  <defs
     id="defs3346" />
  <sodipodi:namedview
     id="base"
     pagecolor="#ffffff"
     bordercolor="#666666"
     borderopacity="1.0"
     inkscape:pageopacity="0.0"
     inkscape:pageshadow="2"
     inkscape:zoom="0.7"
     inkscape:cx="531.66697"
     inkscape:cy="363.07771"
     inkscape:document-units="px"
     inkscape:current-layer="layer1"
     showgrid="false"
     inkscape:window-width="1356"
     inkscape:window-height="723"
     inkscape:window-x="0"
     inkscape:window-y="0"
     inkscape:window-maximized="0" />
  <metadata
     id="metadata3349">
    <rdf:RDF>
      <cc:Work
         rdf:about="">
        <dc:format>image/svg+xml</dc:format>
        <dc:type
           rdf:resource="http://purl.org/dc/dcmitype/StillImage" />
        <dc:title />
      </cc:Work>
    </rdf:RDF>
  </metadata>
  <g
     inkscape:label="Layer 1"
     inkscape:groupmode="layer"
     id="layer1"
     transform="translate(0,-308.26772)">
    <path
       style="fill:none;fill-rule:evenodd;stroke:#000000;stroke-width:1.89999998;stroke-linecap:butt;stroke-linejoin:miter;stroke-miterlimit:4;stroke-dasharray:15.2, 15.2;stroke-dashoffset:0;stroke-opacity:1"
       d="m 412,820.64792 0,158.57143 0,0"
       id="path4241"
       inkscape:connector-curvature="0" />
    <path
       style="fill:none;fill-rule:evenodd;stroke:#000000;stroke-width:1.044649px;stroke-linecap:butt;stroke-linejoin:miter;stroke-opacity:1"
       d="m 25.753023,325.23186 0,271.7222 389.981467,0"
       id="path3354"
       inkscape:connector-curvature="0" />
    <path
       style="fill:#000000;fill-opacity:1;fill-rule:nonzero;stroke:none;stroke-width:1px;stroke-linecap:butt;stroke-linejoin:miter;stroke-opacity:1"
       id="path3356"
       d="m 97.946723,578.24774 c -1.73767,3.73651 -2.02968,7.94469 -0.73828,11.88302 0.4156,1.26743 1.04042,2.4575 1.56062,3.68625 3.185597,6.53267 8.100597,11.90545 12.900127,17.28158 0,0 -9.15719,5.47845 -9.15719,5.47845 l 0,0 c -4.679287,-5.5936 -9.550487,-11.11351 -12.968917,-17.59933 -0.59112,-1.26301 -1.28819,-2.48226 -1.77334,-3.78905 -1.50203,-4.04584 -1.3706,-8.27931 -0.0709,-12.33615 0,0 10.24795,-4.60477 10.24795,-4.60477 z"
       inkscape:connector-curvature="0" />
    <path
       style="fill:#000000;fill-opacity:1;fill-rule:nonzero;stroke:none;stroke-width:1px;stroke-linecap:butt;stroke-linejoin:miter;stroke-opacity:1"
       id="path3358"
       d="m 276.57627,584.83564 c 3.83017,2.68653 6.80554,6.4064 9.05952,10.46574 0.57732,1.03972 1.04267,2.137 1.564,3.20552 1.77358,4.14799 2.4945,8.53966 0.46553,12.72825 -0.28835,0.59527 -0.67536,1.13824 -1.01304,1.70737 -0.36738,0.47694 -0.73477,0.95388 -1.10216,1.43082 0,0 -10.16822,4.29943 -10.16822,4.29943 l 0,0 c 0.39343,-0.44346 0.78685,-0.88691 1.18029,-1.33036 0.37187,-0.51793 0.79128,-1.00525 1.11563,-1.55378 2.35528,-3.98305 1.81474,-7.87619 0.20903,-12.03624 -0.49408,-1.03739 -0.92269,-2.10811 -1.48222,-3.11219 -2.21981,-3.98352 -5.33567,-7.52159 -9.32573,-9.8079 0,0 9.49737,-5.99666 9.49737,-5.99666 z"
       inkscape:connector-curvature="0" />
    <path
       style="fill:#000000;fill-opacity:1;fill-rule:nonzero;stroke:none;stroke-width:1px;stroke-linecap:butt;stroke-linejoin:miter;stroke-opacity:1"
       id="path3360"
       d="m 47.031923,574.90591 c -0.31052,-7.51011 -0.0164,-15.00456 1.39327,-22.40693 0.52019,-2.73159 1.22708,-5.42482 1.84061,-8.13724 4.9325,-17.12845 12.39865,-33.40358 20.90941,-49.04123 3.41953,-5.92705 6.80155,-12.08551 12.49019,-16.18543 3.85287,-2.77684 17.650387,-9.6215 17.874097,-9.73879 9.35542,-3.49532 18.63243,-4.44285 28.46946,-2.50807 1.8245,0.35885 3.6031,0.91838 5.40465,1.37756 3.94316,1.51791 6.22067,2.16785 9.80095,4.43531 6.6583,4.21684 11.44334,10.58359 16.048,16.79875 3.04621,4.44123 5.67761,9.1376 8.45274,13.74441 0.77067,1.27933 2.44258,4.37804 3.89976,5.38605 0.55912,0.38676 1.31247,0.36422 1.9687,0.54632 0.7536,-0.43124 3.09728,-1.53033 2.26081,-1.29373 -1.9491,0.55133 -4.79337,4.07793 -5.64193,2.25011 -0.92801,-1.99896 2.99623,-3.24893 4.37994,-4.96845 5.59793,-6.95647 10.27072,-14.55257 14.95371,-22.12286 7.01323,-12.55507 13.05325,-25.98537 17.13086,-39.79058 0.47318,-1.60203 0.8246,-3.23707 1.23691,-4.8556 0.23252,-1.21438 0.51114,-2.42092 0.69758,-3.64311 0.25729,-1.6866 0.33701,-3.17043 0.30867,-4.85401 -3.7e-4,-0.0219 -0.17183,-3.04264 -0.16216,-3.18179 0.0416,-0.59891 0.19826,-1.18441 0.29739,-1.77663 1.45616,-3.41752 3.96291,-5.96321 7.17177,-7.89341 6.99263,-4.20623 13.90593,-8.54688 21.83214,-10.73248 3.43236,-0.94644 6.96773,-1.47565 10.4516,-2.21347 27.85297,-4.35684 56.11191,-4.70719 84.2204,-5.98678 8.36398,-0.64135 16.94505,-0.76584 25.07613,-3.1012 1.61927,-0.46508 5.80676,-3.07824 4.72219,-1.79672 -1.36454,1.61231 -3.55517,3.20062 -5.65383,2.89752 -1.42353,-0.2056 1.81961,-2.21327 2.72941,-3.31989 0.73904,-1.47954 1.58803,-2.90975 2.21714,-4.43859 1.4247,-3.46218 2.41822,-7.50021 3.21193,-11.13061 1.19774,-5.47847 2.02032,-11.03241 2.82891,-16.57695 0,0 9.32662,-4.5427 9.32662,-4.5427 l 0,0 c -0.91685,5.58486 -1.83139,11.18273 -2.96644,16.72894 -0.76614,3.74352 -1.61108,7.62828 -2.92872,11.23336 -0.57292,1.56754 -1.34203,3.05732 -2.01303,4.58598 -0.84319,1.21115 -1.33508,2.76116 -2.52956,3.63342 -3.88015,2.83347 -8.16831,5.08925 -12.44013,7.29816 -1.42848,0.73868 -3.02295,1.12608 -4.58723,1.50657 -7.90766,1.92341 -16.14725,1.80846 -24.2114,2.27286 -28.17609,0.84531 -56.53583,1.20412 -84.34392,6.29147 -3.61161,0.89148 -7.28044,1.57935 -10.83483,2.67444 -2.58446,0.79627 -4.88736,2.4573 -7.54027,2.98687 -1.24172,0.24786 4.03697,-3.00827 3.14986,-2.11047 -1.07317,1.0861 -2.56473,1.68256 -3.71753,2.68497 -1.7273,1.50195 -2.1318,2.44709 -3.20837,4.25378 -0.12594,0.51112 -0.31653,1.01068 -0.37782,1.53336 -0.0293,0.25026 0.0765,3.2169 0.0753,3.30309 -0.0452,3.049 -0.58259,6.05125 -1.43119,8.97903 -4.58944,15.73248 -11.31263,30.83452 -19.06309,45.26789 -4.43866,7.34768 -5.08333,8.64072 -9.81267,15.61232 -6.1313,9.03826 -12.06488,17.86699 -23.92726,20.39994 -0.71398,-0.36076 -1.53937,-0.55805 -2.14193,-1.0823 -1.41332,-1.22962 -2.87273,-4.26213 -3.67963,-5.7253 -2.57665,-4.67232 -5.13407,-9.36364 -8.16665,-13.76774 -1.19153,-1.59711 -2.3218,-3.24115 -3.5746,-4.79131 -3.53825,-4.3781 -7.5262,-8.54912 -12.36031,-11.53479 -3.65251,-2.25588 -5.60443,-2.75953 -9.61986,-4.26258 -1.77279,-0.43335 -3.52405,-0.96541 -5.31839,-1.30003 -9.70257,-1.80943 -19.06929,-0.63915 -28.191807,3.01518 1.38331,-0.97854 4.23553,-1.25107 4.14991,-2.93562 -0.081,-1.5938 -2.84596,1.49553 -4.17772,2.38842 -5.92147,3.97008 -9.54459,10.10652 -13.1584,16.05198 -1.23803,2.16695 -2.52502,4.30701 -3.71407,6.50084 -7.28993,13.45015 -13.29848,27.64313 -17.46948,42.35197 -0.55902,2.65786 -1.2202,5.29655 -1.67709,7.97359 -1.2198,7.14704 -1.3369,14.40062 -0.36773,21.5806 0,0 -9.97196,5.20233 -9.97196,5.20233 z"
       inkscape:connector-curvature="0" />
    <path
       style="fill:none;fill-rule:evenodd;stroke:#000000;stroke-width:1.09138346px;stroke-linecap:butt;stroke-linejoin:miter;stroke-opacity:1"
       d="m 562.47427,364.11101 0,270.81763 427.07697,0"
       id="path3354-1"
       inkscape:connector-curvature="0" />
    <path
       style="fill:#000000;fill-opacity:1;fill-rule:nonzero;stroke:none;stroke-width:1px;stroke-linecap:butt;stroke-linejoin:miter;stroke-opacity:1"
       id="path3413"
       d="m 589.3268,620.08054 c 0.42303,-0.5141 0.81352,-1.0489 1.26909,-1.5422 0.9889,-1.0707 5.29049,-5.3191 6.01842,-6.0427 4.99318,-4.9636 10.16834,-9.75121 15.40589,-14.52735 12.60442,-11.28756 25.49709,-22.33154 38.34769,-33.4128 6.9924,-6.26621 14.7133,-11.88607 21.92359,-17.95718 5.88018,-5.14076 10.86572,-10.95968 16.11729,-16.56052 3.75155,-4.1842 7.87643,-8.09874 12.00287,-12.00993 0,0 11.82119,-4.2369 11.82119,-4.2369 l 0,0 c -4.24983,3.89569 -8.53248,7.77225 -12.28909,12.03397 -5.18105,5.54586 -9.98581,11.37171 -15.6832,16.54649 -7.46291,6.2368 -15.625,11.83938 -22.86956,18.27879 -12.92985,11.03824 -25.89768,22.04207 -38.43736,33.40765 -5.05459,4.6699 -10.03492,9.34918 -14.78589,14.24708 -1.84665,1.9037 -3.76164,3.762 -5.50965,5.7326 -0.40205,0.4533 -0.72814,0.9523 -1.09221,1.4285 0,0 -12.23907,4.6145 -12.23907,4.6145 z"
       inkscape:connector-curvature="0" />
    <path
       style="fill:#000000;fill-opacity:1;fill-rule:nonzero;stroke:none;stroke-width:1px;stroke-linecap:butt;stroke-linejoin:miter;stroke-opacity:1"
       id="path3417"
       d="m 791.24352,506.47527 c 4.60423,-8.47153 11.39136,-15.91628 17.79518,-23.42948 13.04213,-13.97867 26.72324,-27.51339 40.10832,-41.25292 10.79859,-11.51099 22.96833,-21.98089 35.80604,-31.81574 4.10636,-3.04749 8.34185,-5.96248 12.52102,-8.93569 0,0 11.76306,-4.0517 11.76306,-4.0517 l 0,0 c -4.36338,3.03711 -8.80362,5.99141 -13.10364,9.09503 -13.0534,9.80453 -25.38146,20.31191 -36.35816,31.8492 -6.76697,6.89962 -13.53217,13.80053 -20.30305,20.69721 -3.94782,4.02117 -9.67833,9.70372 -13.53866,13.8057 -2.03164,2.15882 -3.97831,4.37509 -5.96746,6.56263 -5.2473,6.28377 -4.10783,4.81019 -8.85044,10.88431 -2.92619,3.74773 -5.86592,7.51496 -7.72601,11.76184 0,0 -12.1462,4.82961 -12.1462,4.82961 z"
       inkscape:connector-curvature="0" />
    <path
       style="fill:#000000;fill-opacity:1;fill-rule:nonzero;stroke:none;stroke-width:1px;stroke-linecap:butt;stroke-linejoin:miter;stroke-opacity:1"
       id="path3419"
       d="m 770.24431,619.85804 c -1.33016,3.2633 -3.0487,6.365 -4.12485,9.7048 -0.83213,4.0799 0.51568,8.0723 2.57371,11.7281 0.60377,1.1875 1.44582,2.1965 2.46201,3.1379 0,0 -11.41971,5.8796 -11.41971,5.8796 l 0,0 c -1.00809,-1.0734 -1.88184,-2.1948 -2.48643,-3.4843 -2.04642,-3.8978 -3.58583,-8.1033 -2.98347,-12.4222 0.45292,-1.5411 0.60758,-2.22 1.22884,-3.7217 0.82109,-1.9846 2.09413,-3.831 2.62486,-5.8991 0,0 12.12504,-4.9231 12.12504,-4.9231 z"
       inkscape:connector-curvature="0" />
    <path
       style="fill:#000000;fill-opacity:1;fill-rule:nonzero;stroke:none;stroke-width:1px;stroke-linecap:butt;stroke-linejoin:miter;stroke-opacity:1"
       id="path3421"
       d="m 871.32664,619.22664 c 3.90279,0.4265 7.56088,1.3441 10.95559,3.0509 2.83121,1.7428 4.46819,4.3312 5.4603,7.1245 1.24435,4.1842 0.81932,8.3829 -0.50905,12.4953 -0.58501,1.8546 -1.74922,3.4436 -3.11242,4.9398 0,0 -12.25025,4.4216 -12.25025,4.4216 l 0,0 c 1.51422,-1.3232 2.76251,-2.7993 3.48634,-4.5674 1.57151,-3.8813 2.0202,-7.8498 0.80237,-11.8716 -0.89381,-2.5325 -2.3852,-4.8351 -4.99008,-6.3734 -3.32782,-1.613 -6.9356,-2.4015 -10.75769,-2.5969 0,0 10.91489,-6.6228 10.91489,-6.6228 z"
       inkscape:connector-curvature="0" />
    <path
       style="fill:none;fill-rule:evenodd;stroke:#000000;stroke-width:1.10389042px;stroke-linecap:butt;stroke-linejoin:miter;stroke-opacity:1"
       d="m 43.861223,724.50263 0,275.20874 429.950107,0"
       id="path3354-1-1"
       inkscape:connector-curvature="0" />
    <path
       style="fill:#000000;fill-opacity:1;fill-rule:nonzero;stroke:none;stroke-width:1px;stroke-linecap:butt;stroke-linejoin:miter;stroke-opacity:1"
       id="path3419-8"
       d="m 211.79128,983.56742 c -1.3391,3.31621 -3.0692,6.46821 -4.15259,9.86218 -0.83773,4.14603 0.51915,8.2032 2.59102,11.9183 0.60783,1.2067 1.45554,2.232 2.47857,3.1887 0,0 -11.49653,5.9749 -11.49653,5.9749 l 0,0 c -1.01487,-1.0908 -1.89451,-2.2303 -2.50316,-3.5407 -2.06019,-3.9611 -3.60996,-8.2347 -3.00354,-12.62368 0.45596,-1.56608 0.61167,-2.25598 1.2371,-3.78201 0.82662,-2.01679 2.10822,-3.89314 2.64252,-5.99476 0,0 12.20661,-5.00293 12.20661,-5.00293 z"
       inkscape:connector-curvature="0" />
    <path
       style="fill:#000000;fill-opacity:1;fill-rule:nonzero;stroke:none;stroke-width:1px;stroke-linecap:butt;stroke-linejoin:miter;stroke-opacity:1"
       id="path3421-6"
       d="m 278.87644,986.24172 c 3.92904,0.43342 7.61174,1.36588 11.02929,3.10035 2.85026,1.77109 4.49825,4.40141 5.49703,7.24005 1.25273,4.25208 0.82484,8.51888 -0.51247,12.69788 -0.58894,1.8846 -1.76099,3.4995 -3.13335,5.0198 0,0 -12.33267,4.4934 -12.33267,4.4934 l 0,0 c 1.52441,-1.3447 2.78109,-2.8447 3.50979,-4.6415 1.58209,-3.9442 2.03379,-7.977 0.80777,-12.0641 -0.89982,-2.57353 -2.40125,-4.91347 -5.02365,-6.4767 -3.35021,-1.63914 -6.98225,-2.44045 -10.83006,-2.63903 0,0 10.98832,-6.73015 10.98832,-6.73015 z"
       inkscape:connector-curvature="0" />
    <path
       style="fill:#000000;fill-opacity:1;fill-rule:nonzero;stroke:none;stroke-width:1px;stroke-linecap:butt;stroke-linejoin:miter;stroke-opacity:1"
       id="path3464"
       d="m 95.78568,962.80665 c 13.19013,-4.33079 26.80015,-7.55097 40.21798,-11.2601 4.44564,-1.22893 8.85898,-2.54745 13.28847,-3.82118 16.3528,-4.88072 32.49441,-10.29578 48.64699,-15.66748 0,0 -9.39478,6.4992 -9.39478,6.4992 l 0,0 c -16.0209,5.14998 -31.99802,10.41363 -48.13787,15.26726 -4.49121,1.30761 -8.9713,2.64552 -13.47362,3.92285 -14.07434,3.99312 -28.36235,7.53907 -42.008507,12.61396 0,0 10.861337,-7.55451 10.861337,-7.55451 z"
       inkscape:connector-curvature="0" />
    <path
       style="fill:#000000;fill-opacity:1;fill-rule:nonzero;stroke:none;stroke-width:1px;stroke-linecap:butt;stroke-linejoin:miter;stroke-opacity:1"
       id="path3468"
       d="m 211.37266,823.60619 c 7.09371,-3.05716 13.71678,-6.87954 20.74903,-10.04392 3.29766,-1.48389 6.65903,-2.8543 9.98855,-4.28145 25.92599,-10.8556 52.32797,-20.76143 78.73962,-30.64483 12.04089,-4.31975 23.88422,-9.05799 36.03071,-13.14541 0,0 -10.40364,7.20046 -10.40364,7.20046 l 0,0 c -11.66735,3.7546 -23.05392,8.13752 -34.58639,12.19818 -26.58234,9.78644 -53.0627,19.79977 -78.98594,30.89913 -3.47561,1.55053 -6.98178,3.0486 -10.42683,4.65158 -7.42264,3.45375 -14.43154,7.57738 -22.00098,10.78291 0,0 10.89587,-7.61665 10.89587,-7.61665 z"
       inkscape:connector-curvature="0" />
    <ellipse
       style="fill:#000000;fill-rule:evenodd;stroke:#000000;stroke-width:0.61700845px;stroke-linecap:butt;stroke-linejoin:miter;stroke-opacity:1;fill-opacity:1"
       id="path3472"
       cx="201.8597"
       cy="830.19885"
       rx="6.0919399"
       ry="4.9738774" />
    <ellipse
       style="fill:#000000;fill-opacity:0;fill-rule:evenodd;stroke:#000000;stroke-width:1.31700003;stroke-linecap:butt;stroke-linejoin:miter;stroke-miterlimit:4;stroke-dasharray:none;stroke-opacity:1"
       id="path3472-3"
       cx="201.71428"
       cy="931.79077"
       rx="6.0919399"
       ry="4.9738774" />
    <ellipse
       style="fill:#000000;fill-opacity:0;fill-rule:evenodd;stroke:#000000;stroke-width:1.31700003;stroke-linecap:butt;stroke-linejoin:miter;stroke-miterlimit:4;stroke-dasharray:none;stroke-opacity:1"
       id="path3472-3-2"
       cx="714.28571"
       cy="512.36218"
       rx="6.0919399"
       ry="4.9738774" />
    <ellipse
       style="fill:#000000;fill-opacity:1;fill-rule:evenodd;stroke:#000000;stroke-width:0.61700845px;stroke-linecap:butt;stroke-linejoin:miter;stroke-opacity:1"
       id="path3472-7"
       cx="793.14288"
       cy="506.07651"
       rx="6.0919399"
       ry="4.9738774" />
    <path
       style="fill:none;fill-rule:evenodd;stroke:#000000;stroke-width:1.10389042px;stroke-linecap:butt;stroke-linejoin:miter;stroke-opacity:1"
       d="m 542.44377,712.35978 0,275.20874 429.95011,0"
       id="path3354-1-1-4"
       inkscape:connector-curvature="0" />
    <path
       style="fill:#000000;fill-opacity:1;fill-rule:nonzero;stroke:none;stroke-width:1px;stroke-linecap:butt;stroke-linejoin:miter;stroke-opacity:1"
       id="path3464-1"
       d="m 596.36823,950.6638 c 13.19013,-4.33079 26.80015,-7.55097 40.21798,-11.2601 4.44564,-1.22893 8.85898,-2.54745 13.28847,-3.82118 16.3528,-4.88072 32.49441,-10.29578 48.64699,-15.66748 0,0 -9.39478,6.4992 -9.39478,6.4992 l 0,0 c -16.0209,5.14998 -31.99802,10.41363 -48.13787,15.26726 -4.49121,1.30761 -8.9713,2.64552 -13.47362,3.92285 -14.07434,3.99312 -28.36235,7.53907 -42.00851,12.61396 0,0 10.86134,-7.55451 10.86134,-7.55451 z"
       inkscape:connector-curvature="0" />
    <path
       style="fill:#000000;fill-opacity:1;fill-rule:nonzero;stroke:none;stroke-width:1px;stroke-linecap:butt;stroke-linejoin:miter;stroke-opacity:1"
       id="path3468-3"
       d="m 719.95521,809.46334 c 7.09371,-3.05716 13.71678,-6.87954 20.74903,-10.04392 3.29766,-1.48389 6.65903,-2.8543 9.98855,-4.28145 25.92599,-10.8556 52.32797,-20.76143 78.73962,-30.64483 12.04089,-4.31975 23.88422,-9.05799 36.03071,-13.14541 0,0 -10.40364,7.20046 -10.40364,7.20046 l 0,0 c -11.66735,3.7546 -23.05392,8.13752 -34.58639,12.19818 -26.58234,9.78644 -53.0627,19.79977 -78.98594,30.89913 -3.47561,1.55053 -6.98178,3.0486 -10.42683,4.65158 -7.42264,3.45375 -14.43154,7.57738 -22.00098,10.78291 0,0 10.89587,-7.61665 10.89587,-7.61665 z"
       inkscape:connector-curvature="0" />
    <ellipse
       style="fill:#000000;fill-opacity:0;fill-rule:evenodd;stroke:#000000;stroke-width:1.31700003;stroke-linecap:butt;stroke-linejoin:miter;stroke-miterlimit:4;stroke-dasharray:none;stroke-opacity:1"
       id="path3472-3-9"
       cx="704.29681"
       cy="919.64789"
       rx="6.0919399"
       ry="4.9738774" />
    <ellipse
       style="fill:#000000;fill-opacity:0;fill-rule:evenodd;stroke:#000000;stroke-width:1.31700003;stroke-linecap:butt;stroke-linejoin:miter;stroke-miterlimit:4;stroke-dasharray:none;stroke-opacity:1"
       id="path3472-3-9-3"
       cx="704.28571"
       cy="818.07648"
       rx="6.0919399"
       ry="4.9738774" />
    <path
       style="fill:none;fill-rule:evenodd;stroke:#000000;stroke-width:2.14006186;stroke-linecap:butt;stroke-linejoin:miter;stroke-miterlimit:4;stroke-dasharray:17.12049572, 17.12049572;stroke-dashoffset:0;stroke-opacity:1"
       d="m 784.57143,786.03007 0,201.17334 0,0"
       id="path4241-1"
       inkscape:connector-curvature="0" />
    <path
       style="fill:none;fill-rule:evenodd;stroke:#000000;stroke-width:2.32925963;stroke-linecap:butt;stroke-linejoin:miter;stroke-miterlimit:4;stroke-dasharray:18.63407771, 18.63407771;stroke-dashoffset:0;stroke-opacity:1"
       d="m 543.69905,783.25576 238.3162,0 0,0"
       id="path4241-1-2"
       inkscape:connector-curvature="0" />
    <path
       style="fill:none;fill-rule:evenodd;stroke:#000000;stroke-width:1.87259758;stroke-linecap:butt;stroke-linejoin:miter;stroke-miterlimit:4;stroke-dasharray:14.98078124, 14.98078124;stroke-dashoffset:0;stroke-opacity:1"
       d="m 250.8419,809.50507 154.03049,0 0,0"
       id="path4241-1-2-8"
       inkscape:connector-curvature="0" />
    <path
       style="fill:none;fill-rule:evenodd;stroke:#000000;stroke-width:2.07382631;stroke-linecap:butt;stroke-linejoin:miter;stroke-miterlimit:4;stroke-dasharray:16.59061065, 16.59061065;stroke-dashoffset:0;stroke-opacity:1"
       d="m 662.85714,938.88721 0,46.26997 0,0"
       id="path4241-8"
       inkscape:connector-curvature="0" />
    <path
       style="fill:none;fill-rule:evenodd;stroke:#000000;stroke-width:1.62126911;stroke-linecap:butt;stroke-linejoin:miter;stroke-miterlimit:4;stroke-dasharray:12.9701537, 12.9701537;stroke-dashoffset:0;stroke-opacity:1"
       d="m 545.98476,928.64792 115.45906,0 0,0"
       id="path4241-1-2-84"
       inkscape:connector-curvature="0" />
    <path
       style="fill:none;fill-rule:evenodd;stroke:#000000;stroke-width:1.56147039;stroke-linecap:butt;stroke-linejoin:miter;stroke-miterlimit:4;stroke-dasharray:none;stroke-opacity:1"
       d="m 517.89577,802.68574 c 0,0 20.67287,-44.21122 45.03733,0"
       id="path4320"
       inkscape:connector-curvature="0" />
    <path
       style="fill:none;fill-rule:evenodd;stroke:#000000;stroke-width:1.56147039;stroke-linecap:butt;stroke-linejoin:miter;stroke-miterlimit:4;stroke-dasharray:none;stroke-opacity:1"
       d="m 518.06449,910.05418 c 0,0 20.67287,44.21122 45.03733,0"
       id="path4320-5"
       inkscape:connector-curvature="0" />
    <path
       style="fill:none;fill-rule:evenodd;stroke:#000000;stroke-width:1.25925505;stroke-linecap:butt;stroke-linejoin:miter;stroke-miterlimit:4;stroke-dasharray:none;stroke-opacity:1"
       d="m 677.29721,965.2383 c 0,0 -28.59868,20.78486 0,45.2814"
       id="path4320-5-2"
       inkscape:connector-curvature="0" />
    <path
       style="fill:none;fill-rule:evenodd;stroke:#000000;stroke-width:1.80374515;stroke-linecap:butt;stroke-linejoin:miter;stroke-miterlimit:4;stroke-dasharray:14.42996169, 14.42996169;stroke-dashoffset:0;stroke-opacity:1"
       d="m 704.28571,837.52624 0,142.91182 0,0"
       id="path4241-1-3"
       inkscape:connector-curvature="0" />
    <path
       style="fill:none;fill-rule:evenodd;stroke:#000000;stroke-width:1.25925505;stroke-linecap:butt;stroke-linejoin:miter;stroke-miterlimit:4;stroke-dasharray:none;stroke-opacity:1"
       d="m 718.75031,964.02279 c 0,0 -28.59868,20.78486 0,45.28141"
       id="path4320-5-2-7"
       inkscape:connector-curvature="0" />
    <path
       style="fill:none;fill-rule:evenodd;stroke:#000000;stroke-width:1.25925505;stroke-linecap:butt;stroke-linejoin:miter;stroke-miterlimit:4;stroke-dasharray:none;stroke-opacity:1"
       d="m 772.39255,965.45136 c 0,0 28.59868,20.78486 0,45.28144"
       id="path4320-5-2-8"
       inkscape:connector-curvature="0" />
    <path
       style="fill:none;fill-rule:evenodd;stroke:#000000;stroke-width:1.25925505;stroke-linecap:butt;stroke-linejoin:miter;stroke-miterlimit:4;stroke-dasharray:none;stroke-opacity:1"
       d="m 690.96398,964.02279 c 0,0 28.59868,20.78486 0,45.28141"
       id="path4320-5-2-75"
       inkscape:connector-curvature="0" />
    <ellipse
       style="fill:#000000;fill-opacity:1;stroke-width:2.5;stroke-miterlimit:4;stroke-dasharray:none;stroke-dashoffset:0"
       id="path4396"
       cx="705.71429"
       cy="987.21936"
       rx="4.2857146"
       ry="4.2857132" />
  </g>
</svg>
