<?xml version="1.0" encoding="UTF-8" standalone="no"?>
<!-- Created with Inkscape (http://www.inkscape.org/) -->

<svg
   xmlns:dc="http://purl.org/dc/elements/1.1/"
   xmlns:cc="http://creativecommons.org/ns#"
   xmlns:rdf="http://www.w3.org/1999/02/22-rdf-syntax-ns#"
   xmlns:svg="http://www.w3.org/2000/svg"
   xmlns="http://www.w3.org/2000/svg"
   xmlns:sodipodi="http://sodipodi.sourceforge.net/DTD/sodipodi-0.dtd"
   xmlns:inkscape="http://www.inkscape.org/namespaces/inkscape"
   width="297mm"
   height="210mm"
   viewBox="0 0 1052.3622 744.09448"
   id="svg4194"
   version="1.1"
   inkscape:version="0.91 r13725"
   sodipodi:docname="associative.svg">
  <defs
     id="defs4196" />
  <sodipodi:namedview
     id="base"
     pagecolor="#ffffff"
     bordercolor="#666666"
     borderopacity="1.0"
     inkscape:pageopacity="0.0"
     inkscape:pageshadow="2"
     inkscape:zoom="0.7"
     inkscape:cx="566.09806"
     inkscape:cy="387.18279"
     inkscape:document-units="px"
     inkscape:current-layer="layer1"
     showgrid="false"
     inkscape:window-width="1356"
     inkscape:window-height="723"
     inkscape:window-x="6"
     inkscape:window-y="0"
     inkscape:window-maximized="0" />
  <metadata
     id="metadata4199">
    <rdf:RDF>
      <cc:Work
         rdf:about="">
        <dc:format>image/svg+xml</dc:format>
        <dc:type
           rdf:resource="http://purl.org/dc/dcmitype/StillImage" />
        <dc:title></dc:title>
      </cc:Work>
    </rdf:RDF>
  </metadata>
  <g
     inkscape:label="Layer 1"
     inkscape:groupmode="layer"
     id="layer1"
     transform="translate(0,-308.26772)">
    <path
       style="opacity:1;fill:#7f63ff;fill-opacity:0.57647059;stroke:none;stroke-width:0.1;stroke-miterlimit:4;stroke-dasharray:none;stroke-opacity:1"
       id="path4777"
       d="m 65.960045,338.88425 c -3.530659,-0.1868 -6.978706,-1.05185 -10.488911,-1.38388 -0.602753,-0.057 -1.210423,-0.0471 -1.815638,-0.0707 -0.460999,0.13587 -1.810982,0.61994 -1.382996,0.40761 1.48622,-0.7373 2.897059,-1.96009 4.57253,-1.98993 0.693366,-0.0123 -0.436745,1.26246 -0.522902,1.91781 -0.152261,1.15817 -0.17053,2.32993 -0.188974,3.49702 -0.06435,4.07231 0.168619,7.75306 0.345991,11.85787 0.632329,12.12798 0.81512,24.2714 1.505176,36.39737 0.238494,4.19094 0.723624,10.70946 1.036503,15.03793 0.271548,3.03254 0.452827,6.14906 1.036387,9.15548 0.329573,1.69791 0.845494,4.12785 2.340966,5.35446 0.313356,0.25702 0.719127,0.38912 1.078693,0.58368 0.46602,0.11101 0.926002,0.24826 1.39806,0.33303 1.107424,0.19887 2.976914,0.36394 4.048327,0.46457 2.131833,0.20023 4.2667,0.35246 6.397838,0.55889 0.525561,0.0548 1.051129,0.10959 1.57669,0.16438 0,0 -5.20943,3.51039 -5.20943,3.51039 l 0,0 c -0.500458,-0.0685 -1.000917,-0.13704 -1.501376,-0.20555 -2.096708,-0.24898 -4.194617,-0.43759 -6.29977,-0.61122 -1.102628,-0.091 -3.146761,-0.21181 -4.281166,-0.44204 -0.527225,-0.10699 -1.029727,-0.30415 -1.544589,-0.45625 -0.395272,-0.26523 -0.854444,-0.46033 -1.185815,-0.79568 -1.381637,-1.39823 -1.674728,-4.2292 -1.836709,-5.96684 -0.270738,-2.90428 -0.260939,-6.72647 -0.305069,-9.54466 -0.158998,-8.22307 -0.429024,-16.43957 -0.796666,-24.65695 -0.201283,-4.49894 -0.675926,-14.09922 -1.028402,-18.67647 -0.20725,-2.69131 -0.509975,-5.37517 -0.764962,-8.06276 -0.467634,-4.22022 -0.852062,-7.35295 -1.189016,-11.48423 -0.09274,-1.13698 -0.216092,-2.27449 -0.21837,-3.4149 -0.0013,-0.71301 -0.326076,-1.62957 0.207297,-2.12993 4.231683,-3.96963 4.36222,-3.79387 7.846767,-4.30381 4.179368,0.40351 8.310685,1.46253 12.543555,1.23674 0,0 -5.374019,3.71858 -5.374019,3.71858 z"
       inkscape:connector-curvature="0" />
    <path
       style="opacity:1;fill:#7f63ff;fill-opacity:0.57647059;stroke:none;stroke-width:0.1;stroke-miterlimit:4;stroke-dasharray:none;stroke-opacity:1"
       id="path4777-8"
       d="m 142.37166,340.68241 c 3.53066,-0.1868 6.97871,-1.05185 10.48891,-1.38388 0.60276,-0.057 1.21042,-0.0471 1.81564,-0.0707 0.461,0.13587 1.81098,0.61994 1.38299,0.40762 -1.48621,-0.73731 -2.89705,-1.9601 -4.57253,-1.98994 -0.69336,-0.0123 0.43675,1.26246 0.52291,1.91782 0.15226,1.15816 0.17053,2.32993 0.18897,3.49701 0.0644,4.07231 -0.16862,7.75306 -0.34599,11.85787 -0.63233,12.12798 -0.81512,24.2714 -1.50518,36.39737 -0.23849,4.19094 -0.72362,10.70946 -1.0365,15.03793 -0.27155,3.03254 -0.45283,6.14906 -1.03639,9.15548 -0.32957,1.69791 -0.84549,4.12785 -2.34096,5.35446 -0.31335,0.25702 -0.71913,0.38912 -1.07869,0.58368 -0.46603,0.11102 -0.92601,0.24826 -1.39807,0.33302 -1.10742,0.19889 -2.97691,0.36396 -4.04832,0.46457 -2.13184,0.20025 -4.2667,0.35247 -6.39784,0.55889 -0.52556,0.0548 -1.05113,0.10959 -1.57669,0.16438 0,0 5.20943,3.51038 5.20943,3.51038 l 0,0 c 0.50046,-0.0685 1.00092,-0.13703 1.50137,-0.20554 2.09672,-0.24898 4.19462,-0.43759 6.29978,-0.61122 1.10262,-0.091 3.14676,-0.2118 4.28117,-0.44204 0.52722,-0.10699 1.02972,-0.30415 1.54458,-0.45625 0.39528,-0.26522 0.85444,-0.46033 1.18582,-0.79568 1.38163,-1.39822 1.67473,-4.22919 1.83671,-5.96683 0.27073,-2.90428 0.26093,-6.72647 0.30507,-9.54466 0.15899,-8.22307 0.42902,-16.43957 0.79666,-24.65694 0.20128,-4.49895 0.67592,-14.09923 1.0284,-18.67648 0.20725,-2.69131 0.50998,-5.37517 0.76496,-8.06275 0.46764,-4.22023 0.85207,-7.35296 1.18902,-11.48423 0.0927,-1.13699 0.21609,-2.2745 0.21837,-3.41491 0.001,-0.71302 0.32608,-1.62957 -0.2073,-2.12992 -4.23168,-3.96964 -4.36222,-3.79388 -7.84677,-4.30382 -4.17936,0.40351 -8.31068,1.46253 -12.54355,1.23674 0,0 5.37402,3.71858 5.37402,3.71858 z"
       inkscape:connector-curvature="0" />
    <path
       style="opacity:1;fill:#e163ff;fill-opacity:0.57647059;stroke:none;stroke-width:0.1;stroke-miterlimit:4;stroke-dasharray:none;stroke-opacity:1"
       id="path4777-9"
       d="m 188.84795,341.34215 c -3.53066,-0.18679 -6.9787,-1.05184 -10.48891,-1.38387 -0.60275,-0.057 -1.21043,-0.0471 -1.81564,-0.0707 -0.461,0.13587 -1.81098,0.61994 -1.38299,0.40761 1.48621,-0.73731 2.89705,-1.96009 4.57253,-1.98994 0.69336,-0.0123 -0.43675,1.26247 -0.52291,1.91782 -0.15226,1.15817 -0.17053,2.32993 -0.18897,3.49702 -0.0644,4.07231 0.16862,7.75306 0.34599,11.85787 0.63233,12.12798 0.81512,24.2714 1.50517,36.39737 0.2385,4.19093 0.72363,10.70945 1.03651,15.03793 0.27155,3.03254 0.45282,6.14906 1.03639,9.15548 0.32957,1.69791 0.84549,4.12785 2.34096,5.35446 0.31336,0.25702 0.71913,0.38912 1.07869,0.58368 0.46603,0.11101 0.92601,0.24826 1.39807,0.33303 1.10742,0.19887 2.97691,0.36394 4.04832,0.46457 2.13184,0.20023 4.2667,0.35245 6.39784,0.55889 0.52556,0.0548 1.05113,0.10959 1.57669,0.16438 0,0 -5.20943,3.51039 -5.20943,3.51039 l 0,0 c -0.50046,-0.0685 -1.00091,-0.13704 -1.50137,-0.20555 -2.09671,-0.24898 -4.19462,-0.43759 -6.29978,-0.61122 -1.10262,-0.091 -3.14675,-0.21181 -4.28116,-0.44204 -0.52723,-0.10699 -1.02973,-0.30415 -1.54459,-0.45625 -0.39527,-0.26523 -0.85444,-0.46033 -1.18582,-0.79568 -1.38163,-1.39823 -1.67473,-4.2292 -1.8367,-5.96684 -0.27074,-2.90428 -0.26094,-6.72647 -0.30507,-9.54466 -0.159,-8.22308 -0.42903,-16.43957 -0.79667,-24.65695 -0.20128,-4.49894 -0.67593,-14.09922 -1.0284,-18.67647 -0.20725,-2.69131 -0.50998,-5.37517 -0.76497,-8.06276 -0.46762,-4.22022 -0.85205,-7.35296 -1.18901,-11.48423 -0.0927,-1.13698 -0.21609,-2.27449 -0.21837,-3.4149 -0.001,-0.71301 -0.32608,-1.62957 0.2073,-2.12993 4.23168,-3.96963 4.36222,-3.79387 7.84677,-4.30381 4.17937,0.40351 8.31068,1.46253 12.54355,1.23673 0,0 -5.37402,3.71858 -5.37402,3.71858 z"
       inkscape:connector-curvature="0" />
    <path
       style="opacity:1;fill:#e163ff;fill-opacity:0.57647059;stroke:none;stroke-width:0.1;stroke-miterlimit:4;stroke-dasharray:none;stroke-opacity:1"
       id="path4777-8-8"
       d="m 265.25957,343.14032 c 3.53065,-0.1868 6.97871,-1.05185 10.48891,-1.38388 0.60275,-0.057 1.21042,-0.0471 1.81564,-0.0707 0.46099,0.13587 1.81098,0.61994 1.38299,0.40761 -1.48622,-0.7373 -2.89706,-1.96009 -4.57253,-1.98993 -0.69336,-0.0123 0.43674,1.26246 0.5229,1.91781 0.15226,1.15817 0.17053,2.32993 0.18898,3.49702 0.0643,4.07231 -0.16862,7.75306 -0.34599,11.85787 -0.63233,12.12798 -0.81512,24.2714 -1.50518,36.39737 -0.23849,4.19094 -0.72362,10.70946 -1.03651,15.03793 -0.27154,3.03254 -0.45282,6.14906 -1.03638,9.15548 -0.32957,1.69791 -0.84549,4.12785 -2.34097,5.35446 -0.31335,0.25702 -0.71912,0.38912 -1.07869,0.58368 -0.46602,0.11102 -0.926,0.24826 -1.39806,0.33302 -1.10742,0.19889 -2.97691,0.36396 -4.04832,0.46457 -2.13184,0.20025 -4.26671,0.35247 -6.39784,0.55889 -0.52557,0.0548 -1.05113,0.10959 -1.5767,0.16438 0,0 5.20943,3.51038 5.20943,3.51038 l 0,0 c 0.50046,-0.0685 1.00093,-0.13703 1.50138,-0.20554 2.09671,-0.24899 4.19462,-0.43759 6.29977,-0.61122 1.10263,-0.091 3.14677,-0.21181 4.28117,-0.44204 0.52723,-0.10699 1.02972,-0.30416 1.54459,-0.45625 0.39527,-0.26522 0.85444,-0.46034 1.18581,-0.79568 1.38164,-1.39822 1.67473,-4.22919 1.83671,-5.96683 0.27074,-2.90428 0.26094,-6.72647 0.30507,-9.54466 0.159,-8.22307 0.42902,-16.43957 0.79667,-24.65695 0.20128,-4.49894 0.67592,-14.09922 1.0284,-18.67647 0.20725,-2.69131 0.50997,-5.37517 0.76496,-8.06276 0.46764,-4.22022 0.85206,-7.35295 1.18902,-11.48423 0.0927,-1.13698 0.21609,-2.27449 0.21837,-3.4149 0.001,-0.71302 0.32607,-1.62957 -0.2073,-2.12993 -4.23168,-3.96963 -4.36222,-3.79387 -7.84677,-4.30381 -4.17936,0.40351 -8.31068,1.46253 -12.54355,1.23674 0,0 5.37402,3.71858 5.37402,3.71858 z"
       inkscape:connector-curvature="0" />
    <path
       style="opacity:1;fill:#ff63a2;fill-opacity:0.57647059;stroke:none;stroke-width:0.1;stroke-miterlimit:4;stroke-dasharray:none;stroke-opacity:1"
       id="path4777-7"
       d="m 334.65565,345.15203 c -3.53065,-0.1868 -6.9787,-1.05185 -10.48891,-1.38388 -0.60275,-0.057 -1.21042,-0.0471 -1.81564,-0.0707 -0.46099,0.13587 -1.81098,0.61994 -1.38299,0.40762 1.48622,-0.73731 2.89706,-1.9601 4.57253,-1.98994 0.69336,-0.0123 -0.43675,1.26246 -0.5229,1.91782 -0.15226,1.15817 -0.17053,2.32993 -0.18898,3.49701 -0.0643,4.07231 0.16862,7.75306 0.34599,11.85787 0.63233,12.12798 0.81512,24.2714 1.50518,36.39737 0.23849,4.19094 0.72362,10.70946 1.0365,15.03794 0.27155,3.03253 0.45283,6.14906 1.03639,9.15548 0.32957,1.6979 0.84549,4.12784 2.34096,5.35445 0.31336,0.25702 0.71913,0.38913 1.0787,0.58369 0.46602,0.11101 0.926,0.24825 1.39806,0.33303 1.10742,0.19886 2.97691,0.36394 4.04833,0.46457 2.13183,0.20022 4.2667,0.35245 6.39783,0.55889 0.52557,0.0548 1.05113,0.10959 1.57669,0.16437 0,0 -5.20943,3.51039 -5.20943,3.51039 l 0,0 c -0.50046,-0.0685 -1.00091,-0.13703 -1.50137,-0.20555 -2.09671,-0.24898 -4.19462,-0.43758 -6.29977,-0.61122 -1.10263,-0.091 -3.14676,-0.21181 -4.28117,-0.44203 -0.52722,-0.10699 -1.02972,-0.30416 -1.54459,-0.45625 -0.39527,-0.26523 -0.85444,-0.46034 -1.18581,-0.79568 -1.38164,-1.39823 -1.67473,-4.2292 -1.83671,-5.96685 -0.27074,-2.90428 -0.26094,-6.72647 -0.30507,-9.54465 -0.159,-8.22308 -0.42902,-16.43957 -0.79667,-24.65695 -0.20128,-4.49895 -0.67592,-14.09923 -1.0284,-18.67647 -0.20725,-2.69132 -0.50997,-5.37518 -0.76496,-8.06276 -0.46763,-4.22023 -0.85207,-7.35296 -1.18902,-11.48423 -0.0927,-1.13699 -0.21609,-2.27449 -0.21837,-3.41491 -0.001,-0.71301 -0.32607,-1.62957 0.2073,-2.12992 4.23168,-3.96964 4.36222,-3.79387 7.84677,-4.30382 4.17937,0.40352 8.31068,1.46253 12.54355,1.23674 0,0 -5.37402,3.71858 -5.37402,3.71858 z"
       inkscape:connector-curvature="0" />
    <path
       style="opacity:1;fill:#ff63a2;fill-opacity:0.57647059;stroke:none;stroke-width:0.1;stroke-miterlimit:4;stroke-dasharray:none;stroke-opacity:1"
       id="path4777-8-3"
       d="m 411.06727,346.95019 c 3.53066,-0.1868 6.97871,-1.05184 10.48891,-1.38388 0.60276,-0.057 1.21042,-0.0471 1.81564,-0.0707 0.461,0.13587 1.81098,0.61995 1.38299,0.40762 -1.48621,-0.73731 -2.89705,-1.9601 -4.57253,-1.98994 -0.69336,-0.0123 0.43675,1.26246 0.52291,1.91782 0.15226,1.15817 0.17053,2.32993 0.18897,3.49701 0.0644,4.07231 -0.16862,7.75306 -0.34599,11.85787 -0.63233,12.12799 -0.81512,24.2714 -1.50518,36.39737 -0.23849,4.19094 -0.72362,10.70946 -1.0365,15.03793 -0.27155,3.03254 -0.45283,6.14907 -1.03639,9.15549 -0.32957,1.6979 -0.84549,4.12784 -2.34096,5.35446 -0.31335,0.25701 -0.71913,0.38911 -1.07869,0.58368 -0.46603,0.11101 -0.92601,0.24825 -1.39807,0.33301 -1.10742,0.1989 -2.97691,0.36396 -4.04832,0.46457 -2.13184,0.20026 -4.2667,0.35247 -6.39784,0.5589 -0.52556,0.0548 -1.05113,0.10959 -1.57669,0.16437 0,0 5.20943,3.51039 5.20943,3.51039 l 0,0 c 0.50046,-0.0685 1.00092,-0.13703 1.50137,-0.20555 2.09672,-0.24898 4.19462,-0.43759 6.29978,-0.61121 1.10262,-0.091 3.14676,-0.21181 4.28117,-0.44205 0.52722,-0.10699 1.02972,-0.30415 1.54458,-0.45624 0.39528,-0.26523 0.85444,-0.46034 1.18582,-0.79569 1.38163,-1.39822 1.67473,-4.22918 1.83671,-5.96682 0.27073,-2.90429 0.26093,-6.72648 0.30507,-9.54467 0.15899,-8.22307 0.42902,-16.43956 0.79666,-24.65694 0.20128,-4.49895 0.67592,-14.09923 1.0284,-18.67647 0.20725,-2.69131 0.50998,-5.37518 0.76496,-8.06276 0.46764,-4.22023 0.85207,-7.35296 1.18902,-11.48423 0.0927,-1.13699 0.21609,-2.27449 0.21837,-3.41491 0.001,-0.71302 0.32608,-1.62957 -0.2073,-2.12992 -4.23168,-3.96964 -4.36222,-3.79387 -7.84677,-4.30381 -4.17936,0.40351 -8.31068,1.46252 -12.54355,1.23673 0,0 5.37402,3.71858 5.37402,3.71858 z"
       inkscape:connector-curvature="0" />
    <path
       style="opacity:1;fill:#5c5c5c;fill-opacity:0.77142861;stroke:none;stroke-width:0.1;stroke-miterlimit:4;stroke-dasharray:none;stroke-opacity:1"
       id="path4834"
       d="m 49.217526,326.10159 c -1.996053,1.39443 -3.655535,3.15419 -5.149571,5.11291 -2.23486,3.61947 -4.13608,7.46689 -6.148356,11.2312 -2.684276,4.53429 -3.413571,9.63696 -3.86635,14.85745 -0.755839,7.86583 -0.04505,15.67508 1.04622,23.45465 1.283611,9.38162 3.841439,18.46559 6.951894,27.32996 1.985487,5.05953 4.352938,9.97486 7.054584,14.6503 0.918254,1.5014 1.914381,2.92876 2.990843,4.30494 0,0 -11.205059,7.08939 -11.205059,7.08939 l 0,0 c -1.072872,-1.45822 -2.110807,-2.94095 -3.051674,-4.50001 -2.588271,-4.86376 -4.704376,-10.00038 -6.580439,-15.21273 -3.045946,-8.97864 -5.635458,-18.12283 -7.025841,-27.57139 -0.457965,-2.8253 -1.021467,-6.02292 -1.314363,-8.885 -0.497915,-4.86549 -0.409654,-9.77167 -0.223592,-14.65189 0.3145,-5.35591 0.761332,-10.66098 3.506651,-15.33774 2.023674,-3.7179 3.883759,-7.51734 5.806267,-11.291 1.417802,-1.97597 2.847209,-3.93012 4.800583,-5.35908 0,0 12.408203,-5.22196 12.408203,-5.22196 z"
       inkscape:connector-curvature="0" />
    <path
       style="opacity:1;fill:#5c5c5c;fill-opacity:0.77142861;stroke:none;stroke-width:0.1;stroke-miterlimit:4;stroke-dasharray:none;stroke-opacity:1"
       id="path4836"
       d="m 296.07188,329.47282 c 1.50882,1.2717 2.97323,2.59064 4.24246,4.13011 1.65506,2.36688 3.36141,4.69298 4.74221,7.25351 1.88899,4.77176 2.85341,9.89328 4.09518,14.88368 1.856,7.41749 2.34911,15.05322 2.00571,22.68725 -0.78103,7.8366 -2.12706,15.62012 -3.92723,23.26491 -1.74863,7.08906 -3.69302,14.11155 -6.39205,20.86397 -0.91649,2.30698 -2.15743,4.44232 -3.32856,6.60875 0,0 -11.76561,5.53836 -11.76561,5.53836 l 0,0 c 1.20493,-2.15477 2.46298,-4.28189 3.49502,-6.53858 1.00051,-2.18056 1.67256,-3.53259 2.50169,-5.85413 1.73308,-4.85257 2.82065,-9.92667 4.19094,-14.89693 1.86172,-7.57802 3.23508,-15.312 4.13456,-23.08231 0.0732,-1.37873 0.20595,-2.75536 0.2197,-4.13619 0.0605,-6.08327 -0.93344,-12.16259 -2.26939,-18.05482 -1.25801,-4.82845 -2.35954,-9.7561 -4.30145,-14.34006 -1.40181,-2.43264 -2.94817,-4.76811 -4.6774,-6.95481 -1.23714,-1.3502 -2.57031,-2.68235 -4.13407,-3.59637 0,0 11.16829,-7.77634 11.16829,-7.77634 z"
       inkscape:connector-curvature="0" />
    <path
       style="opacity:1;fill:#7f63ff;fill-opacity:0.57647059;stroke:none;stroke-width:0.1;stroke-miterlimit:4;stroke-dasharray:none;stroke-opacity:1"
       id="path4777-2"
       d="m 600.63368,346.55827 c -3.53065,-0.1868 -6.9787,-1.05185 -10.48891,-1.38388 -0.60275,-0.057 -1.21042,-0.0471 -1.81563,-0.0707 -0.461,0.13587 -1.81099,0.61994 -1.383,0.40761 1.48622,-0.7373 2.89706,-1.96009 4.57253,-1.98993 0.69337,-0.0123 -0.43675,1.26246 -0.5229,1.91781 -0.15226,1.15817 -0.17053,2.32993 -0.18898,3.49702 -0.0643,4.07231 0.16862,7.75306 0.34599,11.85787 0.63233,12.12798 0.81512,24.2714 1.50518,36.39737 0.23849,4.19094 0.72362,10.70946 1.0365,15.03793 0.27155,3.03254 0.45283,6.14906 1.03639,9.15548 0.32957,1.69791 0.84549,4.12785 2.34097,5.35446 0.31335,0.25702 0.71912,0.38912 1.07869,0.58368 0.46602,0.11101 0.926,0.24826 1.39806,0.33303 1.10742,0.19887 2.97691,0.36394 4.04833,0.46457 2.13183,0.20023 4.2667,0.35246 6.39783,0.55889 0.52557,0.0548 1.05113,0.10959 1.57669,0.16438 0,0 -5.20943,3.51039 -5.20943,3.51039 l 0,0 c -0.50045,-0.0685 -1.00091,-0.13704 -1.50137,-0.20555 -2.09671,-0.24898 -4.19462,-0.43759 -6.29977,-0.61122 -1.10263,-0.091 -3.14676,-0.21181 -4.28117,-0.44204 -0.52722,-0.10699 -1.02972,-0.30415 -1.54459,-0.45625 -0.39527,-0.26523 -0.85444,-0.46033 -1.18581,-0.79568 -1.38164,-1.39823 -1.67473,-4.2292 -1.83671,-5.96684 -0.27074,-2.90428 -0.26094,-6.72647 -0.30507,-9.54466 -0.159,-8.22307 -0.42902,-16.43957 -0.79667,-24.65695 -0.20128,-4.49894 -0.67592,-14.09922 -1.0284,-18.67647 -0.20725,-2.69131 -0.50997,-5.37517 -0.76496,-8.06276 -0.46763,-4.22022 -0.85206,-7.35295 -1.18902,-11.48423 -0.0927,-1.13698 -0.21609,-2.27449 -0.21837,-3.4149 -10e-4,-0.71301 -0.32607,-1.62957 0.2073,-2.12993 4.23168,-3.96963 4.36222,-3.79387 7.84677,-4.30381 4.17937,0.40351 8.31068,1.46253 12.54355,1.23674 0,0 -5.37402,3.71858 -5.37402,3.71858 z"
       inkscape:connector-curvature="0" />
    <path
       style="opacity:1;fill:#7f63ff;fill-opacity:0.57647059;stroke:none;stroke-width:0.1;stroke-miterlimit:4;stroke-dasharray:none;stroke-opacity:1"
       id="path4777-8-37"
       d="m 677.0453,348.35643 c 3.53066,-0.1868 6.97871,-1.05185 10.48891,-1.38388 0.60276,-0.057 1.21042,-0.0471 1.81564,-0.0707 0.461,0.13587 1.81098,0.61994 1.38299,0.40762 -1.48621,-0.73731 -2.89705,-1.9601 -4.57253,-1.98994 -0.69336,-0.0123 0.43675,1.26246 0.52291,1.91782 0.15226,1.15816 0.17053,2.32993 0.18897,3.49701 0.0644,4.07231 -0.16862,7.75306 -0.34599,11.85787 -0.63233,12.12798 -0.81512,24.2714 -1.50518,36.39737 -0.23849,4.19094 -0.72362,10.70946 -1.0365,15.03793 -0.27155,3.03254 -0.45283,6.14906 -1.03639,9.15548 -0.32957,1.69791 -0.84549,4.12785 -2.34096,5.35446 -0.31335,0.25702 -0.71913,0.38912 -1.07869,0.58368 -0.46603,0.11102 -0.92601,0.24826 -1.39807,0.33302 -1.10742,0.19889 -2.97691,0.36396 -4.04832,0.46457 -2.13184,0.20025 -4.2667,0.35247 -6.39784,0.55889 -0.52556,0.0548 -1.05113,0.10959 -1.57669,0.16438 0,0 5.20943,3.51038 5.20943,3.51038 l 0,0 c 0.50046,-0.0685 1.00092,-0.13703 1.50137,-0.20554 2.09672,-0.24898 4.19462,-0.43759 6.29978,-0.61122 1.10262,-0.091 3.14676,-0.2118 4.28117,-0.44204 0.52722,-0.10699 1.02972,-0.30415 1.54458,-0.45625 0.39528,-0.26522 0.85444,-0.46033 1.18582,-0.79568 1.38163,-1.39822 1.67473,-4.22919 1.83671,-5.96683 0.27073,-2.90428 0.26093,-6.72647 0.30507,-9.54466 0.15899,-8.22307 0.42902,-16.43957 0.79666,-24.65694 0.20128,-4.49895 0.67592,-14.09923 1.0284,-18.67648 0.20725,-2.69131 0.50998,-5.37517 0.76496,-8.06275 0.46764,-4.22023 0.85207,-7.35296 1.18902,-11.48423 0.0927,-1.13699 0.21609,-2.2745 0.21837,-3.41491 10e-4,-0.71302 0.32608,-1.62957 -0.2073,-2.12992 -4.23168,-3.96964 -4.36222,-3.79388 -7.84677,-4.30382 -4.17936,0.40351 -8.31068,1.46253 -12.54355,1.23674 0,0 5.37402,3.71858 5.37402,3.71858 z"
       inkscape:connector-curvature="0" />
    <path
       style="opacity:1;fill:#e163ff;fill-opacity:0.57647059;stroke:none;stroke-width:0.1;stroke-miterlimit:4;stroke-dasharray:none;stroke-opacity:1"
       id="path4777-9-9"
       d="m 747.52159,349.01617 c -3.53066,-0.18679 -6.9787,-1.05184 -10.48891,-1.38387 -0.60275,-0.057 -1.21043,-0.0471 -1.81564,-0.0707 -0.461,0.13587 -1.81098,0.61994 -1.38299,0.40761 1.48621,-0.73731 2.89705,-1.96009 4.57253,-1.98994 0.69336,-0.0123 -0.43675,1.26247 -0.52291,1.91782 -0.15226,1.15817 -0.17053,2.32993 -0.18897,3.49702 -0.0644,4.07231 0.16862,7.75306 0.34599,11.85787 0.63233,12.12798 0.81512,24.2714 1.50517,36.39737 0.2385,4.19093 0.72363,10.70945 1.03651,15.03793 0.27155,3.03254 0.45282,6.14906 1.03639,9.15548 0.32957,1.69791 0.84549,4.12785 2.34096,5.35446 0.31336,0.25702 0.71913,0.38912 1.07869,0.58368 0.46603,0.11101 0.92601,0.24826 1.39807,0.33303 1.10742,0.19887 2.97691,0.36394 4.04832,0.46457 2.13184,0.20023 4.2667,0.35245 6.39784,0.55889 0.52556,0.0548 1.05113,0.10959 1.57669,0.16438 0,0 -5.20943,3.51039 -5.20943,3.51039 l 0,0 c -0.50046,-0.0685 -1.00091,-0.13704 -1.50137,-0.20555 -2.09671,-0.24898 -4.19462,-0.43759 -6.29978,-0.61122 -1.10262,-0.091 -3.14675,-0.21181 -4.28116,-0.44204 -0.52723,-0.10699 -1.02973,-0.30415 -1.54459,-0.45625 -0.39527,-0.26523 -0.85444,-0.46033 -1.18582,-0.79568 -1.38163,-1.39823 -1.67473,-4.2292 -1.8367,-5.96684 -0.27074,-2.90428 -0.26094,-6.72647 -0.30507,-9.54466 -0.159,-8.22308 -0.42903,-16.43957 -0.79667,-24.65695 -0.20128,-4.49894 -0.67593,-14.09922 -1.0284,-18.67647 -0.20725,-2.69131 -0.50998,-5.37517 -0.76497,-8.06276 -0.46762,-4.22022 -0.85205,-7.35296 -1.18901,-11.48423 -0.0927,-1.13698 -0.21609,-2.27449 -0.21837,-3.4149 -10e-4,-0.71301 -0.32608,-1.62957 0.2073,-2.12993 4.23168,-3.96963 4.36222,-3.79387 7.84677,-4.30381 4.17937,0.40351 8.31068,1.46253 12.54355,1.23673 0,0 -5.37402,3.71858 -5.37402,3.71858 z"
       inkscape:connector-curvature="0" />
    <path
       style="opacity:1;fill:#e163ff;fill-opacity:0.57647059;stroke:none;stroke-width:0.1;stroke-miterlimit:4;stroke-dasharray:none;stroke-opacity:1"
       id="path4777-8-8-6"
       d="m 823.93321,350.81434 c 3.53065,-0.1868 6.97871,-1.05185 10.48891,-1.38388 0.60275,-0.057 1.21042,-0.0471 1.81564,-0.0707 0.46099,0.13587 1.81098,0.61994 1.38299,0.40761 -1.48622,-0.7373 -2.89706,-1.96009 -4.57253,-1.98993 -0.69336,-0.0123 0.43674,1.26246 0.5229,1.91781 0.15226,1.15817 0.17053,2.32993 0.18898,3.49702 0.0643,4.07231 -0.16862,7.75306 -0.34599,11.85787 -0.63233,12.12798 -0.81512,24.2714 -1.50518,36.39737 -0.23849,4.19094 -0.72362,10.70946 -1.03651,15.03793 -0.27154,3.03254 -0.45282,6.14906 -1.03638,9.15548 -0.32957,1.69791 -0.84549,4.12785 -2.34097,5.35446 -0.31335,0.25702 -0.71912,0.38912 -1.07869,0.58368 -0.46602,0.11102 -0.926,0.24826 -1.39806,0.33302 -1.10742,0.19889 -2.97691,0.36396 -4.04832,0.46457 -2.13184,0.20025 -4.26671,0.35247 -6.39784,0.55889 -0.52557,0.0548 -1.05113,0.10959 -1.5767,0.16438 0,0 5.20943,3.51038 5.20943,3.51038 l 0,0 c 0.50046,-0.0685 1.00093,-0.13703 1.50138,-0.20554 2.09671,-0.24899 4.19462,-0.43759 6.29977,-0.61122 1.10263,-0.091 3.14677,-0.21181 4.28117,-0.44204 0.52723,-0.10699 1.02972,-0.30416 1.54459,-0.45625 0.39527,-0.26522 0.85444,-0.46034 1.18581,-0.79568 1.38164,-1.39822 1.67473,-4.22919 1.83671,-5.96683 0.27074,-2.90428 0.26094,-6.72647 0.30507,-9.54466 0.159,-8.22307 0.42902,-16.43957 0.79667,-24.65695 0.20128,-4.49894 0.67592,-14.09922 1.0284,-18.67647 0.20725,-2.69131 0.50997,-5.37517 0.76496,-8.06276 0.46764,-4.22022 0.85206,-7.35295 1.18902,-11.48423 0.0927,-1.13698 0.21609,-2.27449 0.21837,-3.4149 0.001,-0.71302 0.32607,-1.62957 -0.2073,-2.12993 -4.23168,-3.96963 -4.36222,-3.79387 -7.84677,-4.30381 -4.17936,0.40351 -8.31068,1.46253 -12.54355,1.23674 0,0 5.37402,3.71858 5.37402,3.71858 z"
       inkscape:connector-curvature="0" />
    <path
       style="opacity:1;fill:#ff63a2;fill-opacity:0.57647059;stroke:none;stroke-width:0.1;stroke-miterlimit:4;stroke-dasharray:none;stroke-opacity:1"
       id="path4777-7-9"
       d="m 867.32929,352.82605 c -3.53065,-0.1868 -6.9787,-1.05185 -10.48891,-1.38388 -0.60275,-0.057 -1.21042,-0.0471 -1.81564,-0.0707 -0.46099,0.13587 -1.81098,0.61994 -1.38299,0.40762 1.48622,-0.73731 2.89706,-1.9601 4.57253,-1.98994 0.69336,-0.0123 -0.43675,1.26246 -0.5229,1.91782 -0.15226,1.15817 -0.17053,2.32993 -0.18898,3.49701 -0.0643,4.07231 0.16862,7.75306 0.34599,11.85787 0.63233,12.12798 0.81512,24.2714 1.50518,36.39737 0.23849,4.19094 0.72362,10.70946 1.0365,15.03794 0.27155,3.03253 0.45283,6.14906 1.03639,9.15548 0.32957,1.6979 0.84549,4.12784 2.34096,5.35445 0.31336,0.25702 0.71913,0.38913 1.0787,0.58369 0.46602,0.11101 0.926,0.24825 1.39806,0.33303 1.10742,0.19886 2.97691,0.36394 4.04833,0.46457 2.13183,0.20022 4.2667,0.35245 6.39783,0.55889 0.52557,0.0548 1.05113,0.10959 1.57669,0.16437 0,0 -5.20943,3.51039 -5.20943,3.51039 l 0,0 c -0.50046,-0.0685 -1.00091,-0.13703 -1.50137,-0.20555 -2.09671,-0.24898 -4.19462,-0.43758 -6.29977,-0.61122 -1.10263,-0.091 -3.14676,-0.21181 -4.28117,-0.44203 -0.52722,-0.10699 -1.02972,-0.30416 -1.54459,-0.45625 -0.39527,-0.26523 -0.85444,-0.46034 -1.18581,-0.79568 -1.38164,-1.39823 -1.67473,-4.2292 -1.83671,-5.96685 -0.27074,-2.90428 -0.26094,-6.72647 -0.30507,-9.54465 -0.159,-8.22308 -0.42902,-16.43957 -0.79667,-24.65695 -0.20128,-4.49895 -0.67592,-14.09923 -1.0284,-18.67647 -0.20725,-2.69132 -0.50997,-5.37518 -0.76496,-8.06276 -0.46763,-4.22023 -0.85207,-7.35296 -1.18902,-11.48423 -0.0927,-1.13699 -0.21609,-2.27449 -0.21837,-3.41491 -10e-4,-0.71301 -0.32607,-1.62957 0.2073,-2.12992 4.23168,-3.96964 4.36222,-3.79387 7.84677,-4.30382 4.17937,0.40352 8.31068,1.46253 12.54355,1.23674 0,0 -5.37402,3.71858 -5.37402,3.71858 z"
       inkscape:connector-curvature="0" />
    <path
       style="opacity:1;fill:#ff63a2;fill-opacity:0.57647059;stroke:none;stroke-width:0.1;stroke-miterlimit:4;stroke-dasharray:none;stroke-opacity:1"
       id="path4777-8-3-2"
       d="m 943.74091,354.62421 c 3.53066,-0.1868 6.97871,-1.05184 10.48891,-1.38388 0.60276,-0.057 1.21042,-0.0471 1.81564,-0.0707 0.461,0.13587 1.81098,0.61995 1.38299,0.40762 -1.48621,-0.73731 -2.89705,-1.9601 -4.57253,-1.98994 -0.69336,-0.0123 0.43675,1.26246 0.52291,1.91782 0.15226,1.15817 0.17053,2.32993 0.18897,3.49701 0.0644,4.07231 -0.16862,7.75306 -0.34599,11.85787 -0.63233,12.12799 -0.81512,24.2714 -1.50518,36.39737 -0.23849,4.19094 -0.72362,10.70946 -1.0365,15.03793 -0.27155,3.03254 -0.45283,6.14907 -1.03639,9.15549 -0.32957,1.6979 -0.84549,4.12784 -2.34096,5.35446 -0.31335,0.25701 -0.71913,0.38911 -1.07869,0.58368 -0.46603,0.11101 -0.92601,0.24825 -1.39807,0.33301 -1.10742,0.1989 -2.97691,0.36396 -4.04832,0.46457 -2.13184,0.20026 -4.2667,0.35247 -6.39784,0.5589 -0.52556,0.0548 -1.05113,0.10959 -1.57669,0.16437 0,0 5.20943,3.51039 5.20943,3.51039 l 0,0 c 0.50046,-0.0685 1.00092,-0.13703 1.50137,-0.20555 2.09672,-0.24898 4.19462,-0.43759 6.29978,-0.61121 1.10262,-0.091 3.14676,-0.21181 4.28117,-0.44205 0.52722,-0.10699 1.02972,-0.30415 1.54458,-0.45624 0.39528,-0.26523 0.85444,-0.46034 1.18582,-0.79569 1.38163,-1.39822 1.67473,-4.22918 1.83671,-5.96682 0.27073,-2.90429 0.26093,-6.72648 0.30507,-9.54467 0.15899,-8.22307 0.42902,-16.43956 0.79666,-24.65694 0.20128,-4.49895 0.67592,-14.09923 1.0284,-18.67647 0.20725,-2.69131 0.50998,-5.37518 0.76496,-8.06276 0.46764,-4.22023 0.85207,-7.35296 1.18902,-11.48423 0.0927,-1.13699 0.21609,-2.27449 0.21837,-3.41491 10e-4,-0.71302 0.32608,-1.62957 -0.2073,-2.12992 -4.23168,-3.96964 -4.36222,-3.79387 -7.84677,-4.30381 -4.17936,0.40351 -8.31068,1.46252 -12.54355,1.23673 0,0 5.37402,3.71858 5.37402,3.71858 z"
       inkscape:connector-curvature="0" />
    <path
       style="opacity:1;fill:#5c5c5c;fill-opacity:0.77142861;stroke:none;stroke-width:0.1;stroke-miterlimit:4;stroke-dasharray:none;stroke-opacity:1"
       id="path4834-7"
       d="m 726.17688,338.06132 c -1.99606,1.39443 -3.65554,3.15419 -5.14958,5.11291 -2.23486,3.61947 -4.13608,7.46689 -6.14835,11.2312 -2.68428,4.53429 -3.41357,9.63696 -3.86635,14.85745 -0.75584,7.86583 -0.0451,15.67508 1.04622,23.45465 1.28361,9.38162 3.84144,18.46559 6.95189,27.32996 1.98549,5.05953 4.35294,9.97486 7.05459,14.6503 0.91825,1.5014 1.91438,2.92876 2.99084,4.30494 0,0 -11.20506,7.08939 -11.20506,7.08939 l 0,0 c -1.07287,-1.45822 -2.11081,-2.94095 -3.05167,-4.50001 -2.58827,-4.86376 -4.70438,-10.00038 -6.58044,-15.21273 -3.04595,-8.97864 -5.63546,-18.12283 -7.02584,-27.57139 -0.45797,-2.8253 -1.02147,-6.02292 -1.31437,-8.885 -0.49791,-4.86549 -0.40965,-9.77167 -0.22359,-14.65189 0.3145,-5.35591 0.76133,-10.66098 3.50665,-15.33774 2.02368,-3.7179 3.88376,-7.51734 5.80627,-11.291 1.4178,-1.97597 2.84721,-3.93012 4.80058,-5.35908 0,0 12.40821,-5.22196 12.40821,-5.22196 z"
       inkscape:connector-curvature="0" />
    <path
       style="opacity:1;fill:#5c5c5c;fill-opacity:0.77142861;stroke:none;stroke-width:0.1;stroke-miterlimit:4;stroke-dasharray:none;stroke-opacity:1"
       id="path4836-2"
       d="m 971.60266,335.71827 c 1.50882,1.2717 2.97323,2.59064 4.24246,4.13011 1.65506,2.36688 3.36141,4.69298 4.74221,7.25351 1.88899,4.77176 2.85341,9.89328 4.09518,14.88368 1.856,7.41749 2.34911,15.05322 2.00571,22.68725 -0.78103,7.8366 -2.12706,15.62012 -3.92723,23.26491 -1.74863,7.08906 -3.69302,14.11155 -6.39205,20.86397 -0.91649,2.30698 -2.15743,4.44232 -3.32856,6.60875 0,0 -11.76561,5.53836 -11.76561,5.53836 l 0,0 c 1.20493,-2.15477 2.46298,-4.28189 3.49502,-6.53858 1.00051,-2.18056 1.67256,-3.53259 2.50169,-5.85413 1.73308,-4.85257 2.82065,-9.92667 4.19094,-14.89693 1.86172,-7.57802 3.23508,-15.312 4.13456,-23.08231 0.0732,-1.37873 0.20595,-2.75536 0.2197,-4.13619 0.0605,-6.08327 -0.93344,-12.16259 -2.26939,-18.05482 -1.25801,-4.82845 -2.35954,-9.7561 -4.30145,-14.34006 -1.40181,-2.43264 -2.94817,-4.76811 -4.6774,-6.95481 -1.23714,-1.3502 -2.57031,-2.68235 -4.13407,-3.59637 0,0 11.16829,-7.77634 11.16829,-7.77634 z"
       inkscape:connector-curvature="0" />
    <path
       style="opacity:1;fill:#000000;fill-opacity:1;stroke:none;stroke-width:0.1;stroke-miterlimit:4;stroke-dasharray:none;stroke-opacity:1"
       id="path4890"
       d="m 463.81904,362.48568 c 9.02997,2.88489 18.36962,4.18872 27.61573,5.70856 11.51288,1.60584 22.9475,3.86539 34.42284,5.78559 0,0 -6.24538,5.20961 -6.24538,5.20961 l 0,0 c -11.25588,-2.18745 -22.48712,-4.56824 -33.80399,-6.28752 -9.74097,-1.58158 -19.53433,-2.74262 -29.24101,-4.58365 0,0 7.25181,-5.83259 7.25181,-5.83259 z"
       inkscape:connector-curvature="0" />
    <path
       style="opacity:1;fill:#000000;fill-opacity:1;stroke:none;stroke-width:0.1;stroke-miterlimit:4;stroke-dasharray:none;stroke-opacity:1"
       id="path4890-0"
       d="m 464.36452,395.50569 c 9.02997,2.88489 18.36962,4.18872 27.61573,5.70857 11.51288,1.60584 22.9475,3.8654 34.42284,5.78558 0,0 -6.24538,5.20962 -6.24538,5.20962 l 0,0 c -11.25588,-2.18745 -22.48712,-4.56824 -33.80399,-6.28752 -9.74097,-1.58158 -19.53434,-2.74262 -29.24101,-4.58366 0,0 7.25181,-5.83259 7.25181,-5.83259 z"
       inkscape:connector-curvature="0" />
    <path
       style="opacity:1;fill:#a7a4a4;fill-opacity:0.51999998;stroke:none;stroke-width:0.1;stroke-miterlimit:4;stroke-dasharray:none;stroke-opacity:1"
       id="path4915"
       d="m 197.27275,347.63738 c 6.57352,9.06974 15.13831,16.70104 23.44627,24.37768 11.27124,10.03102 22.2228,20.35995 33.16938,30.69195 0,0 -3.56064,2.00539 -3.56064,2.00539 l 0,0 c -2.21919,-2.28401 -4.40353,-4.59745 -6.65757,-6.85203 -8.33678,-8.33875 -16.99641,-16.40784 -26.05957,-24.07207 -8.91529,-7.46132 -17.9495,-14.83114 -26.21138,-22.92475 0,0 5.87351,-3.22617 5.87351,-3.22617 z"
       inkscape:connector-curvature="0" />
    <path
       style="opacity:1;fill:#a7a4a4;fill-opacity:0.51999996;stroke:none;stroke-width:0.1;stroke-miterlimit:4;stroke-dasharray:none;stroke-opacity:1"
       id="path4915-6"
       d="m 754.62893,360.96755 c 6.57352,9.06974 15.13831,16.70104 23.44627,24.37768 11.27124,10.03102 22.2228,20.35995 33.16938,30.69195 0,0 -3.56064,2.00539 -3.56064,2.00539 l 0,0 c -2.21919,-2.28401 -4.40353,-4.59745 -6.65757,-6.85203 -8.33678,-8.33875 -16.99641,-16.40784 -26.05957,-24.07207 -8.91529,-7.46132 -17.9495,-14.83114 -26.21138,-22.92475 0,0 5.87351,-3.22617 5.87351,-3.22617 z"
       inkscape:connector-curvature="0" />
    <text
       xml:space="preserve"
       style="font-style:normal;font-weight:normal;font-size:25px;line-height:125%;font-family:sans-serif;letter-spacing:0px;word-spacing:0px;fill:#000000;fill-opacity:1;stroke:none;stroke-width:1px;stroke-linecap:butt;stroke-linejoin:miter;stroke-opacity:1"
       x="85.714287"
       y="555.21936"
       id="text4932"
       sodipodi:linespacing="125%"><tspan
         sodipodi:role="line"
         id="tspan4934"
         x="85.714287"
         y="555.21936">If B = identity then</tspan><tspan
         sodipodi:role="line"
         x="85.714287"
         y="586.46936"
         id="tspan4936">mat mul is associative.</tspan><tspan
         sodipodi:role="line"
         x="85.714287"
         y="617.71936"
         id="tspan4938">if B is not full rank</tspan><tspan
         sodipodi:role="line"
         x="85.714287"
         y="648.96936"
         id="tspan4940">identity then is still</tspan><tspan
         sodipodi:role="line"
         x="85.714287"
         y="680.21936"
         id="tspan4942">associative.</tspan></text>
    <text
       xml:space="preserve"
       style="font-style:normal;font-weight:normal;font-size:25px;line-height:125%;font-family:sans-serif;letter-spacing:0px;word-spacing:0px;fill:#000000;fill-opacity:1;stroke:none;stroke-width:1px;stroke-linecap:butt;stroke-linejoin:miter;stroke-opacity:1"
       x="267.14285"
       y="923.79077"
       id="text4944"
       sodipodi:linespacing="125%"><tspan
         sodipodi:role="line"
         id="tspan4946"
         x="267.14285"
         y="923.79077">therefore (AB)C = A(BC).</tspan><tspan
         sodipodi:role="line"
         x="267.14285"
         y="955.04077"
         id="tspan4948">where B = relu.</tspan><tspan
         sodipodi:role="line"
         x="267.14285"
         y="986.29077"
         id="tspan4950">so A.relu.B is associative</tspan></text>
  </g>
</svg>
