<?xml version="1.0" encoding="UTF-8" standalone="no"?>
<!-- Created with Inkscape (http://www.inkscape.org/) -->

<svg
   xmlns:dc="http://purl.org/dc/elements/1.1/"
   xmlns:cc="http://creativecommons.org/ns#"
   xmlns:rdf="http://www.w3.org/1999/02/22-rdf-syntax-ns#"
   xmlns:svg="http://www.w3.org/2000/svg"
   xmlns="http://www.w3.org/2000/svg"
   xmlns:sodipodi="http://sodipodi.sourceforge.net/DTD/sodipodi-0.dtd"
   xmlns:inkscape="http://www.inkscape.org/namespaces/inkscape"
   width="297mm"
   height="210mm"
   viewBox="0 0 1052.3622 744.09448"
   id="svg2"
   version="1.1"
   inkscape:version="0.91 r13725"
   sodipodi:docname="DiamondNet.svg">
  <defs
     id="defs4" />
  <sodipodi:namedview
     id="base"
     pagecolor="#ffffff"
     bordercolor="#666666"
     borderopacity="1.0"
     inkscape:pageopacity="0.0"
     inkscape:pageshadow="2"
     inkscape:zoom="1"
     inkscape:cx="497.66899"
     inkscape:cy="405.71429"
     inkscape:document-units="px"
     inkscape:current-layer="layer1"
     showgrid="false"
     inkscape:window-width="1356"
     inkscape:window-height="723"
     inkscape:window-x="4"
     inkscape:window-y="1"
     inkscape:window-maximized="1" />
  <metadata
     id="metadata7">
    <rdf:RDF>
      <cc:Work
         rdf:about="">
        <dc:format>image/svg+xml</dc:format>
        <dc:type
           rdf:resource="http://purl.org/dc/dcmitype/StillImage" />
        <dc:title></dc:title>
      </cc:Work>
    </rdf:RDF>
  </metadata>
  <g
     inkscape:label="Layer 1"
     inkscape:groupmode="layer"
     id="layer1"
     transform="translate(0,-308.26772)">
    <ellipse
       style="opacity:1;fill:#6d4ee2;fill-opacity:1;stroke:none;stroke-width:0.1;stroke-miterlimit:4;stroke-dasharray:none;stroke-opacity:1"
       id="path4136"
       cx="297.85715"
       cy="636.64789"
       rx="15"
       ry="15.714286" />
    <ellipse
       style="opacity:1;fill:#4ea7e2;fill-opacity:1;stroke:none;stroke-width:0.1;stroke-miterlimit:4;stroke-dasharray:none;stroke-opacity:1"
       id="path4136-5"
       cx="544.28571"
       cy="639.50507"
       rx="15"
       ry="15.714286" />
    <path
       style="opacity:1;fill:#000000;fill-opacity:0.74285715;stroke:none;stroke-width:0.1;stroke-miterlimit:4;stroke-dasharray:none;stroke-opacity:1"
       id="path4174"
       d="m 317.09762,646.20407 c 12.7454,11.79666 26.37598,22.63083 39.85588,33.57289 16.08223,13.05578 31.61894,26.75827 46.09945,41.573 3.13786,3.31584 6.35375,6.5334 9.37634,9.95404 0,0 -17.49785,10.51569 -17.49785,10.51569 l 0,0 c -2.79545,-3.50471 -5.78251,-6.83323 -8.62788,-10.29835 -13.43583,-15.45517 -28.37149,-29.51102 -44.35936,-42.31405 -13.97614,-10.96387 -28.18778,-21.5972 -42.70551,-31.83529 0,0 17.85893,-11.16793 17.85893,-11.16793 z"
       inkscape:connector-curvature="0" />
    <path
       style="opacity:1;fill:#000000;fill-opacity:0.74285715;stroke:none;stroke-width:0.1;stroke-miterlimit:4;stroke-dasharray:none;stroke-opacity:1"
       id="path4176"
       d="m 265.54481,644.26424 c -19.5668,-0.89729 -39.16413,-1.00433 -58.74824,-1.14575 -20.61741,0.0334 -41.23569,0.006 -61.84248,-0.69807 0,0 15.63058,-11.22242 15.63058,-11.22242 l 0,0 c 19.98924,1.59917 40.03986,2.04889 60.09136,1.83648 20.63584,-0.14611 41.28148,-0.28531 61.9022,-1.14575 0,0 -17.03342,12.37551 -17.03342,12.37551 z"
       inkscape:connector-curvature="0" />
    <path
       style="opacity:1;fill:#000000;fill-opacity:0.74285715;stroke:none;stroke-width:0.1;stroke-miterlimit:4;stroke-dasharray:none;stroke-opacity:1"
       id="path4174-3"
       d="m 395.87924,531.69725 c -12.7454,11.79666 -26.37598,22.63083 -39.85588,33.57289 -16.08223,13.05578 -31.61894,26.75827 -46.09945,41.573 -3.13786,3.31584 -6.35375,6.5334 -9.37634,9.95404 0,0 17.49785,10.51569 17.49785,10.51569 l 0,0 c 2.79545,-3.50471 5.78251,-6.83323 8.62788,-10.29835 13.43583,-15.45517 28.37149,-29.51102 44.35936,-42.31405 13.97614,-10.96387 28.18778,-21.5972 42.70551,-31.83529 0,0 -17.85893,-11.16793 -17.85893,-11.16793 z"
       inkscape:connector-curvature="0" />
    <path
       style="opacity:1;fill:#000000;fill-opacity:0.74285715;stroke:none;stroke-width:0.1;stroke-miterlimit:4;stroke-dasharray:none;stroke-opacity:1"
       id="path4174-9"
       d="m 523.10565,648.95066 c -12.7454,11.79666 -26.37598,22.63083 -39.85588,33.57289 -16.08223,13.05578 -31.61894,26.75827 -46.09945,41.573 -3.13786,3.31584 -6.35375,6.5334 -9.37634,9.95404 0,0 17.49785,10.51569 17.49785,10.51569 l 0,0 c 2.79545,-3.50471 5.78251,-6.83323 8.62788,-10.29835 13.43583,-15.45517 28.37149,-29.51102 44.35936,-42.31405 13.97614,-10.96387 28.18778,-21.5972 42.70551,-31.83529 0,0 -17.85893,-11.16793 -17.85893,-11.16793 z"
       inkscape:connector-curvature="0" />
    <path
       style="opacity:1;fill:#000000;fill-opacity:0.74285715;stroke:none;stroke-width:0.1;stroke-miterlimit:4;stroke-dasharray:none;stroke-opacity:1"
       id="path4176-5"
       d="m 576.65846,647.01083 c 19.5668,-0.89729 39.16413,-1.00433 58.74824,-1.14575 20.61741,0.0334 41.23569,0.006 61.84248,-0.69807 0,0 -15.63058,-11.22242 -15.63058,-11.22242 l 0,0 c -19.98924,1.59917 -40.03986,2.04889 -60.09136,1.83648 -20.63584,-0.14611 -41.28148,-0.28531 -61.9022,-1.14575 0,0 17.03342,12.37551 17.03342,12.37551 z"
       inkscape:connector-curvature="0" />
    <path
       style="opacity:1;fill:#000000;fill-opacity:0.74285715;stroke:none;stroke-width:0.1;stroke-miterlimit:4;stroke-dasharray:none;stroke-opacity:1"
       id="path4174-3-4"
       d="m 444.32403,534.44384 c 12.7454,11.79666 26.37598,22.63083 39.85588,33.57289 16.08223,13.05578 31.61894,26.75827 46.09945,41.573 3.13786,3.31584 6.35375,6.5334 9.37634,9.95404 0,0 -17.49785,10.51569 -17.49785,10.51569 l 0,0 c -2.79545,-3.50471 -5.78251,-6.83323 -8.62788,-10.29835 -13.43583,-15.45517 -28.37149,-29.51102 -44.35936,-42.31405 -13.97614,-10.96387 -28.18778,-21.5972 -42.70551,-31.83529 0,0 17.85893,-11.16793 17.85893,-11.16793 z"
       inkscape:connector-curvature="0" />
    <ellipse
       style="opacity:1;fill:#e24e6f;fill-opacity:1;stroke:none;stroke-width:0.1;stroke-miterlimit:4;stroke-dasharray:none;stroke-opacity:1"
       id="path4136-79"
       cx="891.14288"
       cy="637.50507"
       rx="15"
       ry="15.714286" />
    <path
       style="opacity:1;fill:#000000;fill-opacity:0.74285715;stroke:none;stroke-width:0.1;stroke-miterlimit:4;stroke-dasharray:none;stroke-opacity:1"
       id="path4176-2"
       d="m 860.35008,646.03819 c -19.5668,-0.89729 -39.16413,-1.00433 -58.74824,-1.14575 -20.61741,0.0334 -41.23569,0.006 -61.84248,-0.69807 0,0 15.63058,-11.22242 15.63058,-11.22242 l 0,0 c 19.98924,1.59917 40.03986,2.04889 60.09136,1.83648 20.63584,-0.14611 41.28148,-0.28531 61.9022,-1.14575 0,0 -17.03342,12.37551 -17.03342,12.37551 z"
       inkscape:connector-curvature="0" />
    <text
       xml:space="preserve"
       style="font-style:normal;font-weight:normal;font-size:38.62329483px;line-height:125%;font-family:sans-serif;letter-spacing:0px;word-spacing:0px;fill:#000000;fill-opacity:1;stroke:none;stroke-width:1px;stroke-linecap:butt;stroke-linejoin:miter;stroke-opacity:1"
       x="235.65836"
       y="654.70087"
       id="text4260"
       sodipodi:linespacing="125%"
       transform="scale(1.0736483,0.93140366)"><tspan
         sodipodi:role="line"
         id="tspan4262"
         x="235.65836"
         y="654.70087">A</tspan></text>
    <text
       xml:space="preserve"
       style="font-style:normal;font-weight:normal;font-size:35.3156662px;line-height:125%;font-family:sans-serif;letter-spacing:0px;word-spacing:0px;fill:#000000;fill-opacity:1;stroke:none;stroke-width:1px;stroke-linecap:butt;stroke-linejoin:miter;stroke-opacity:1"
       x="557.56488"
       y="596.64032"
       id="text4260-2"
       sodipodi:linespacing="125%"
       transform="scale(0.98170309,1.0186379)"><tspan
         sodipodi:role="line"
         id="tspan4262-7"
         x="557.56488"
         y="596.64032">B</tspan></text>
    <text
       xml:space="preserve"
       style="font-style:normal;font-weight:normal;font-size:25px;line-height:125%;font-family:sans-serif;letter-spacing:0px;word-spacing:0px;fill:#000000;fill-opacity:1;stroke:none;stroke-width:1px;stroke-linecap:butt;stroke-linejoin:miter;stroke-opacity:1"
       x="831.08276"
       y="612.90332"
       id="text4260-2-8"
       sodipodi:linespacing="125%"><tspan
         sodipodi:role="line"
         id="tspan4262-7-7"
         x="831.08276"
         y="612.90332">x</tspan></text>
    <text
       xml:space="preserve"
       style="font-style:normal;font-weight:normal;font-size:17.5px;line-height:125%;font-family:sans-serif;letter-spacing:0px;word-spacing:0px;fill:#000000;fill-opacity:1;stroke:none;stroke-width:1px;stroke-linecap:butt;stroke-linejoin:miter;stroke-opacity:1;"
       x="123.9399"
       y="661.47473"
       id="text4260-2-6"
       sodipodi:linespacing="125%"><tspan
         sodipodi:role="line"
         id="tspan4262-7-0"
         x="123.9399"
         y="661.47473" /></text>
    <text
       xml:space="preserve"
       style="font-style:normal;font-weight:normal;font-size:13.75px;line-height:125%;font-family:sans-serif;letter-spacing:0px;word-spacing:0px;fill:#000000;fill-opacity:1;stroke:none;stroke-width:1px;stroke-linecap:butt;stroke-linejoin:miter;stroke-opacity:1;"
       x="135"
       y="658.36218"
       id="text4358"
       sodipodi:linespacing="125%"><tspan
         sodipodi:role="line"
         id="tspan4360"
         x="135"
         y="658.36218" /></text>
    <text
       xml:space="preserve"
       style="font-style:normal;font-weight:normal;font-size:17.5px;line-height:125%;font-family:sans-serif;letter-spacing:0px;word-spacing:0px;fill:#000000;fill-opacity:1;stroke:none;stroke-width:1px;stroke-linecap:butt;stroke-linejoin:miter;stroke-opacity:1"
       x="143"
       y="661.36218"
       id="text4362"
       sodipodi:linespacing="125%"><tspan
         sodipodi:role="line"
         id="tspan4364"
         x="143"
         y="661.36218"
         style="font-size:13.75px">1</tspan></text>
    <text
       xml:space="preserve"
       style="font-style:normal;font-weight:normal;font-size:17.5px;line-height:125%;font-family:sans-serif;letter-spacing:0px;word-spacing:0px;fill:#000000;fill-opacity:1;stroke:none;stroke-width:1px;stroke-linecap:butt;stroke-linejoin:miter;stroke-opacity:1"
       x="390.50507"
       y="517.37408"
       id="text4362-0"
       sodipodi:linespacing="125%"><tspan
         sodipodi:role="line"
         id="tspan4364-1"
         x="390.50507"
         y="517.37408"
         style="font-size:13.75px">2</tspan></text>
    <text
       xml:space="preserve"
       style="font-style:normal;font-weight:normal;font-size:17.5px;line-height:125%;font-family:sans-serif;letter-spacing:0px;word-spacing:0px;fill:#000000;fill-opacity:1;stroke:none;stroke-width:1px;stroke-linecap:butt;stroke-linejoin:miter;stroke-opacity:1"
       x="387.50507"
       y="766.37408"
       id="text4362-5"
       sodipodi:linespacing="125%"><tspan
         sodipodi:role="line"
         id="tspan4364-5"
         x="387.50507"
         y="766.37408"
         style="font-size:13.75px">3</tspan></text>
    <text
       xml:space="preserve"
       style="font-style:normal;font-weight:normal;font-size:17.5px;line-height:125%;font-family:sans-serif;letter-spacing:0px;word-spacing:0px;fill:#000000;fill-opacity:1;stroke:none;stroke-width:1px;stroke-linecap:butt;stroke-linejoin:miter;stroke-opacity:1"
       x="442.50507"
       y="517.37408"
       id="text4362-8"
       sodipodi:linespacing="125%"><tspan
         sodipodi:role="line"
         id="tspan4364-3"
         x="442.50507"
         y="517.37408"
         style="font-size:13.75px">1</tspan></text>
    <text
       xml:space="preserve"
       style="font-style:normal;font-weight:normal;font-size:17.5px;line-height:125%;font-family:sans-serif;letter-spacing:0px;word-spacing:0px;fill:#000000;fill-opacity:1;stroke:none;stroke-width:1px;stroke-linecap:butt;stroke-linejoin:miter;stroke-opacity:1"
       x="440.50507"
       y="763.37408"
       id="text4362-87"
       sodipodi:linespacing="125%"><tspan
         sodipodi:role="line"
         id="tspan4364-12"
         x="440.50507"
         y="763.37408"
         style="font-size:13.75px">2</tspan></text>
    <text
       xml:space="preserve"
       style="font-style:normal;font-weight:normal;font-size:17.5px;line-height:125%;font-family:sans-serif;letter-spacing:0px;word-spacing:0px;fill:#000000;fill-opacity:1;stroke:none;stroke-width:1px;stroke-linecap:butt;stroke-linejoin:miter;stroke-opacity:1"
       x="675.50507"
       y="674.37408"
       id="text4362-2"
       sodipodi:linespacing="125%"><tspan
         sodipodi:role="line"
         id="tspan4364-7"
         x="675.50507"
         y="674.37408"
         style="font-size:13.75px">3</tspan></text>
    <text
       xml:space="preserve"
       style="font-style:normal;font-weight:normal;font-size:17.5px;line-height:125%;font-family:sans-serif;letter-spacing:0px;word-spacing:0px;fill:#000000;fill-opacity:1;stroke:none;stroke-width:1px;stroke-linecap:butt;stroke-linejoin:miter;stroke-opacity:1"
       x="747.50507"
       y="674.37408"
       id="text4362-86"
       sodipodi:linespacing="125%"><tspan
         sodipodi:role="line"
         id="tspan4364-2"
         x="747.50507"
         y="674.37408"
         style="font-size:13.75px">1</tspan></text>
  </g>
</svg>
