<?xml version="1.0" encoding="UTF-8" standalone="no"?>
<!-- Created with Inkscape (http://www.inkscape.org/) -->

<svg
   xmlns:dc="http://purl.org/dc/elements/1.1/"
   xmlns:cc="http://creativecommons.org/ns#"
   xmlns:rdf="http://www.w3.org/1999/02/22-rdf-syntax-ns#"
   xmlns:svg="http://www.w3.org/2000/svg"
   xmlns="http://www.w3.org/2000/svg"
   xmlns:sodipodi="http://sodipodi.sourceforge.net/DTD/sodipodi-0.dtd"
   xmlns:inkscape="http://www.inkscape.org/namespaces/inkscape"
   width="297mm"
   height="210mm"
   viewBox="0 0 1052.3622 744.09448"
   id="svg2"
   version="1.1"
   inkscape:version="0.91 r13725"
   sodipodi:docname="Molecules8.svg"
   inkscape:export-filename="/Users/act65/Desktop/Molecules8.png"
   inkscape:export-xdpi="90"
   inkscape:export-ydpi="90">
  <defs
     id="defs4" />
  <sodipodi:namedview
     id="base"
     pagecolor="#ffffff"
     bordercolor="#666666"
     borderopacity="1.0"
     inkscape:pageopacity="0.0"
     inkscape:pageshadow="2"
     inkscape:zoom="0.7"
     inkscape:cx="299.74066"
     inkscape:cy="385.10126"
     inkscape:document-units="px"
     inkscape:current-layer="layer1"
     showgrid="false"
     inkscape:window-width="1356"
     inkscape:window-height="723"
     inkscape:window-x="4"
     inkscape:window-y="1"
     inkscape:window-maximized="1" />
  <metadata
     id="metadata7">
    <rdf:RDF>
      <cc:Work
         rdf:about="">
        <dc:format>image/svg+xml</dc:format>
        <dc:type
           rdf:resource="http://purl.org/dc/dcmitype/StillImage" />
        <dc:title />
      </cc:Work>
    </rdf:RDF>
  </metadata>
  <g
     inkscape:label="Layer 1"
     inkscape:groupmode="layer"
     id="layer1"
     transform="translate(0,-308.26772)">
    <g
       id="g4439"
       transform="matrix(0.44391099,0,0,0.43524001,-182.37758,349.34634)">
      <path
         inkscape:connector-curvature="0"
         d="m 834.38819,500.73995 c 15.61592,1.1743 31.34887,0.83084 47.00403,0.69744 11.34231,-0.14467 22.68123,-0.45197 34.02055,-0.73695 0,0 -16.42386,11.94474 -16.42386,11.94474 l 0,0 c -10.85175,-0.18131 -21.70413,-0.3391 -32.55779,-0.32154 -16.39209,0.095 -32.78559,0.68302 -49.172,0.57401 0,0 17.12907,-12.1577 17.12907,-12.1577 z"
         id="path4236"
         style="opacity:1;fill:#000000;fill-opacity:0.75686275;stroke:none;stroke-width:0.1;stroke-miterlimit:4;stroke-dasharray:none;stroke-opacity:1" />
      <ellipse
         transform="scale(-1,-1)"
         ry="13.571428"
         rx="12.857142"
         cy="-509.5051"
         cx="-630.57141"
         id="path4155-2"
         style="opacity:1;fill:#6047b0;fill-opacity:1;stroke:none;stroke-width:0.1;stroke-miterlimit:4;stroke-dasharray:none;stroke-opacity:1" />
      <ellipse
         transform="scale(-1,-1)"
         ry="13.571428"
         rx="12.857142"
         cy="-509.5051"
         cx="-797.14282"
         id="path4155-0"
         style="opacity:1;fill:#6047b0;fill-opacity:1;stroke:none;stroke-width:0.1;stroke-miterlimit:4;stroke-dasharray:none;stroke-opacity:1" />
      <ellipse
         transform="scale(-1,-1)"
         ry="13.571428"
         rx="12.857142"
         cy="-649.50507"
         cx="-630.57141"
         id="path4155-4"
         style="opacity:1;fill:#6047b0;fill-opacity:1;stroke:none;stroke-width:0.1;stroke-miterlimit:4;stroke-dasharray:none;stroke-opacity:1" />
      <ellipse
         transform="scale(-1,-1)"
         ry="13.571428"
         rx="12.857142"
         cy="-649.50507"
         cx="-797.14282"
         id="path4155-25"
         style="opacity:1;fill:#6047b0;fill-opacity:1;stroke:none;stroke-width:0.1;stroke-miterlimit:4;stroke-dasharray:none;stroke-opacity:1" />
      <path
         inkscape:connector-curvature="0"
         d="m 616.33445,487.20298 c 0.78488,-14.14799 0.92585,-28.32388 1.30151,-42.48671 0.44135,-19.15082 1.43217,-38.33722 -0.17137,-57.45335 0,0 17.40803,-8.99241 17.40803,-8.99241 l 0,0 c 0.14054,4.89024 0.34046,10.35145 0.27856,15.20504 -0.18223,14.28899 -1.14749,28.5708 -1.01681,42.86754 -0.0728,13.77181 0.14072,27.55095 0.95975,41.30137 0,0 -18.75967,9.55852 -18.75967,9.55852 z"
         id="path4224"
         style="opacity:1;fill:#000000;fill-opacity:0.75686275;stroke:none;stroke-width:0.1;stroke-miterlimit:4;stroke-dasharray:none;stroke-opacity:1" />
      <path
         inkscape:connector-curvature="0"
         d="m 589.14356,512.8769 c -17.62363,-0.8885 -35.27533,-1.00426 -52.91659,-1.2125 -17.7621,-0.25036 -35.52393,-0.21574 -53.2865,-0.0947 0,0 13.5485,-9.84357 13.5485,-9.84357 l 0,0 c 17.84948,0.12397 35.69816,0.15044 53.5472,-0.0947 18.754,-0.2144 37.51553,-0.36176 56.25431,-1.2125 0,0 -17.14692,12.45797 -17.14692,12.45797 z"
         id="path4226"
         style="opacity:1;fill:#000000;fill-opacity:0.75686275;stroke:none;stroke-width:0.1;stroke-miterlimit:4;stroke-dasharray:none;stroke-opacity:1" />
      <path
         inkscape:connector-curvature="0"
         d="m 585.98249,658.5637 c -16.3278,-0.71915 -32.67649,-0.84433 -49.01701,-1.02982 -22.00652,0.14957 -44.00122,-0.15676 -65.9831,-1.21656 0,0 15.11939,-10.83972 15.11939,-10.83972 l 0,0 c 21.66233,1.70958 43.37427,2.09292 65.10011,1.71293 17.2856,-0.19028 34.57737,-0.33719 51.85186,-1.02982 0,0 -17.07125,12.40299 -17.07125,12.40299 z"
         id="path4228"
         style="opacity:1;fill:#000000;fill-opacity:0.75686275;stroke:none;stroke-width:0.1;stroke-miterlimit:4;stroke-dasharray:none;stroke-opacity:1" />
      <path
         inkscape:connector-curvature="0"
         d="m 633.72805,675.54836 c -0.56292,11.75274 -2.36461,23.4104 -4.09574,35.03666 -1.84238,11.92668 -2.97424,23.93822 -3.87006,35.96676 0,0 -17.31377,8.61714 -17.31377,8.61714 l 0,0 c 1.38019,-12.08528 2.73501,-24.17404 4.25768,-36.24243 1.33456,-11.16821 2.95938,-22.49101 2.13722,-33.75591 0,0 18.88467,-9.62222 18.88467,-9.62222 z"
         id="path4230"
         style="opacity:1;fill:#000000;fill-opacity:0.75686275;stroke:none;stroke-width:0.1;stroke-miterlimit:4;stroke-dasharray:none;stroke-opacity:1" />
      <path
         inkscape:connector-curvature="0"
         d="m 827.17859,641.90248 c 22.50836,1.18698 45.06678,1.14244 67.6,1.03605 4.21966,-0.0531 8.43932,-0.10617 12.65897,-0.15925 0,0 -14.58196,10.59442 -14.58196,10.59442 l 0,0 c -4.07353,-0.0531 -8.14707,-0.10617 -12.2206,-0.15925 -23.48509,-0.11235 -46.98847,-0.0867 -70.452,1.03605 0,0 16.99559,-12.34802 16.99559,-12.34802 z"
         id="path4232"
         style="opacity:1;fill:#000000;fill-opacity:0.75686275;stroke:none;stroke-width:0.1;stroke-miterlimit:4;stroke-dasharray:none;stroke-opacity:1" />
      <path
         inkscape:connector-curvature="0"
         d="m 805.31404,677.08333 c 2.4497,13.76876 3.37613,27.75985 4.18782,41.70359 0.42387,7.64834 0.63541,15.30562 0.91091,22.96007 0,0 -17.50873,8.93978 -17.50873,8.93978 l 0,0 c 0.143,-7.75424 0.20119,-15.50979 -0.11683,-23.26205 -0.7683,-13.5358 -1.82264,-27.25984 -5.98915,-40.24844 0,0 18.51598,-10.09295 18.51598,-10.09295 z"
         id="path4234"
         style="opacity:1;fill:#000000;fill-opacity:0.75686275;stroke:none;stroke-width:0.1;stroke-miterlimit:4;stroke-dasharray:none;stroke-opacity:1" />
      <path
         inkscape:connector-curvature="0"
         d="m 789.07026,486.08804 c -1.57496,-13.93447 -1.87413,-27.95228 -2.15266,-41.95986 0.1143,-15.58164 -1.45692,-31.05367 -4.43918,-46.32733 0,0 17.27416,-9.16609 17.27416,-9.16609 l 0,0 c 2.20027,15.60262 3.41693,31.31634 3.52714,47.08053 0.73346,13.55989 1.24653,27.27291 4.45111,40.52873 0,0 -18.66057,9.84402 -18.66057,9.84402 z"
         id="path4238"
         style="opacity:1;fill:#000000;fill-opacity:0.75686275;stroke:none;stroke-width:0.1;stroke-miterlimit:4;stroke-dasharray:none;stroke-opacity:1" />
      <path
         inkscape:connector-curvature="0"
         d="m 800.8084,534.66428 c -0.96247,14.75259 -1.50794,29.52275 -1.92622,44.29943 -0.13703,12.38163 -0.10517,6.37834 -0.1078,18.00982 0,0 -17.03095,8.64386 -17.03095,8.64386 l 0,0 c 0.36689,-11.79555 0.19465,-5.72059 0.51051,-18.22506 0.19575,-14.38285 0.78435,-28.80558 -0.2052,-43.16953 0,0 18.75966,-9.55852 18.75966,-9.55852 z"
         id="path4240"
         style="opacity:1;fill:#000000;fill-opacity:0.75686275;stroke:none;stroke-width:0.1;stroke-miterlimit:4;stroke-dasharray:none;stroke-opacity:1" />
      <path
         inkscape:connector-curvature="0"
         d="m 642.09629,530.66449 c -2.81001,15.25916 -3.03292,30.85884 -3.42945,46.32537 -0.455,9.73181 -0.92139,19.46304 -1.37026,29.19512 0,0 -17.04859,8.54895 -17.04859,8.54895 l 0,0 c 0.80653,-9.78291 1.6399,-19.56842 1.92442,-29.38472 0.26774,-15.11789 0.21524,-30.26066 1.10382,-45.35628 0,0 18.82006,-9.32844 18.82006,-9.32844 z"
         id="path4244"
         style="opacity:1;fill:#000000;fill-opacity:0.75686275;stroke:none;stroke-width:0.1;stroke-miterlimit:4;stroke-dasharray:none;stroke-opacity:1" />
      <path
         inkscape:connector-curvature="0"
         d="m 667.9993,647.56179 c 20.39001,1.16372 40.83574,1.08639 61.25252,1.05859 14.75551,-0.087 29.50763,-0.41427 44.26025,-0.69355 0,0 -16.14207,11.72789 -16.14207,11.72789 l 0,0 c -14.11614,-0.28193 -28.23174,-0.61272 -42.35105,-0.69356 -21.38955,-0.0292 -42.79996,-0.0431 -64.16657,1.0586 0,0 17.14692,-12.45797 17.14692,-12.45797 z"
         id="path4246"
         style="opacity:1;fill:#000000;fill-opacity:0.75686275;stroke:none;stroke-width:0.1;stroke-miterlimit:4;stroke-dasharray:none;stroke-opacity:1" />
      <path
         inkscape:connector-curvature="0"
         d="m 675.81708,501.84751 c 20.39001,1.16372 40.83574,1.08639 61.25252,1.05859 14.75551,-0.087 29.50763,-0.41427 44.26025,-0.69355 0,0 -16.14207,11.72789 -16.14207,11.72789 l 0,0 c -14.11614,-0.28193 -28.23174,-0.61272 -42.35105,-0.69356 -21.38955,-0.0292 -42.79996,-0.0431 -64.16657,1.0586 0,0 17.14692,-12.45797 17.14692,-12.45797 z"
         id="path4246-1"
         style="opacity:1;fill:#000000;fill-opacity:0.75686275;stroke:none;stroke-width:0.1;stroke-miterlimit:4;stroke-dasharray:none;stroke-opacity:1" />
    </g>
    <g
       id="g4363"
       transform="translate(-57.142857,-104.28571)">
      <ellipse
         ry="7.7205272"
         rx="7.2315631"
         cy="504.85565"
         cx="196.11755"
         id="path4155"
         style="opacity:1;fill:#6047b0;fill-opacity:1;stroke:none;stroke-width:0.1;stroke-miterlimit:4;stroke-dasharray:none;stroke-opacity:1" />
      <path
         inkscape:connector-curvature="0"
         d="m 189.24652,491.65884 c 0.46754,-6.65039 0.37206,-13.34008 0.91261,-19.98517 0.17543,-2.15652 0.47267,-4.30111 0.70901,-6.45166 1.10855,-7.87395 2.22504,-15.74086 2.96942,-23.65917 0,0 9.52197,-4.77967 9.52197,-4.77967 l 0,0 c -0.9184,7.95704 -2.21098,15.85687 -3.25238,23.79808 -0.19847,2.1066 -0.46279,4.20791 -0.59541,6.3198 -0.40444,6.44071 -0.1021,12.89946 0.26281,19.33221 0,0 -10.52803,5.42558 -10.52803,5.42558 z"
         id="path4204"
         style="opacity:1;fill:#000000;fill-opacity:0.75428569;stroke:none;stroke-width:0.1;stroke-miterlimit:4;stroke-dasharray:none;stroke-opacity:1" />
      <path
         inkscape:connector-curvature="0"
         d="m 174.57371,508.78991 c -12.23624,-0.60833 -24.49196,-0.67287 -36.74024,-0.77847 -9.78404,-0.0913 -19.56366,-0.004 -29.34465,0.22445 0,0 7.81125,-5.75335 7.81125,-5.75335 l 0,0 c 9.67217,0.0143 19.34427,0.0679 29.01645,0.03 12.95473,-0.10913 25.91473,-0.19662 38.859,-0.77848 0,0 -9.60181,7.05583 -9.60181,7.05583 z"
         id="path4206"
         style="opacity:1;fill:#000000;fill-opacity:0.75428569;stroke:none;stroke-width:0.1;stroke-miterlimit:4;stroke-dasharray:none;stroke-opacity:1" />
      <path
         inkscape:connector-curvature="0"
         d="m 219.1646,501.91338 c 7.02899,0.82811 14.13211,0.83471 21.19989,0.91859 4.45977,0.0551 8.91956,0.006 13.379,-0.047 0,0 -8.93223,6.55788 -8.93223,6.55788 l 0,0 c -4.34712,-0.0919 -8.69441,-0.18239 -13.04254,-0.2083 -7.45876,-0.0703 -14.93497,0.0714 -22.38277,-0.3295 0,0 9.77865,-6.89167 9.77865,-6.89167 z"
         id="path4208"
         style="opacity:1;fill:#000000;fill-opacity:0.75428569;stroke:none;stroke-width:0.1;stroke-miterlimit:4;stroke-dasharray:none;stroke-opacity:1" />
      <path
         inkscape:connector-curvature="0"
         d="m 199.10083,522.81422 c 0.0584,0.62877 0.14365,1.25558 0.17535,1.8863 0.0928,1.84748 0.14953,7.05103 0.16939,8.49991 0.087,6.34225 0.17602,12.68443 0.25317,19.02681 0.14331,8.18363 0.0543,4.2312 0.25926,11.85749 0,0 -9.3941,4.85229 -9.3941,4.85229 l 0,0 c 0.064,-7.73374 0.0589,-3.73889 0.004,-11.98456 -0.20076,-9.49445 -0.13874,-19.12124 -1.87006,-28.48389 0,0 10.40314,-5.65435 10.40314,-5.65435 z"
         id="path4210"
         style="opacity:1;fill:#000000;fill-opacity:0.75428569;stroke:none;stroke-width:0.1;stroke-miterlimit:4;stroke-dasharray:none;stroke-opacity:1" />
      <path
         inkscape:connector-curvature="0"
         d="m 215.27922,518.25331 c 0.71658,0.88686 1.3642,1.83563 2.14975,2.66058 4.55747,4.78607 7.63959,7.23866 13.13707,11.43219 10.53775,8.03828 21.66883,15.07526 32.86551,22.11705 3.44437,2.08946 6.88874,4.17892 10.33312,6.26839 0,0 -7.37732,4.81219 -7.37732,4.81219 l 0,0 c -3.33378,-2.16273 -6.66757,-4.32546 -10.00135,-6.4882 -11.25858,-7.15153 -22.55712,-14.2403 -33.60914,-21.71755 -5.5742,-3.77123 -9.60739,-6.56061 -14.78444,-10.56932 -1.00984,-0.78195 -1.96559,-1.63286 -2.94839,-2.4493 0,0 10.23519,-6.06603 10.23519,-6.06603 z"
         id="path4216"
         style="opacity:1;fill:#000000;fill-opacity:0.75428569;stroke:none;stroke-width:0.1;stroke-miterlimit:4;stroke-dasharray:none;stroke-opacity:1" />
      <path
         inkscape:connector-curvature="0"
         d="m 172.1776,493.39018 c -9.43249,-11.72287 -19.89998,-22.5405 -30.42116,-33.25373 -6.49243,-6.51492 -13.0977,-12.91253 -19.71376,-19.29829 0,0 8.50733,-5.26724 8.50733,-5.26724 l 0,0 c 6.19741,6.69982 12.41714,13.38101 18.91228,19.78958 10.73868,10.79469 21.37788,21.75169 32.86498,31.7389 0,0 -10.14967,6.29078 -10.14967,6.29078 z"
         id="path4218"
         style="opacity:1;fill:#000000;fill-opacity:0.75428569;stroke:none;stroke-width:0.1;stroke-miterlimit:4;stroke-dasharray:none;stroke-opacity:1" />
      <path
         inkscape:connector-curvature="0"
         d="m 214.57829,498.83778 c 0.71659,-0.88686 1.3642,-1.83563 2.14976,-2.66058 4.55747,-4.78607 7.63959,-7.23866 13.13706,-11.43218 10.53775,-8.03829 21.66883,-15.07527 32.86551,-22.11705 3.44437,-2.08947 6.88875,-4.17893 10.33313,-6.2684 0,0 -7.37733,-4.81219 -7.37733,-4.81219 l 0,0 c -3.33378,2.16273 -6.66756,4.32547 -10.00135,6.4882 -11.25858,7.15153 -22.55712,14.2403 -33.60913,21.71755 -5.5742,3.77123 -9.6074,6.56062 -14.78444,10.56933 -1.00984,0.78194 -1.9656,1.63286 -2.9484,2.44929 0,0 10.23519,6.06603 10.23519,6.06603 z"
         id="path4216-3"
         style="opacity:1;fill:#000000;fill-opacity:0.75428569;stroke:none;stroke-width:0.1;stroke-miterlimit:4;stroke-dasharray:none;stroke-opacity:1" />
      <path
         inkscape:connector-curvature="0"
         d="m 172.72079,515.36135 c -9.43249,11.72287 -19.89998,22.5405 -30.42116,33.25373 -6.49243,6.51492 -13.0977,12.91254 -19.71375,19.29829 0,0 8.50732,5.26724 8.50732,5.26724 l 0,0 c 6.19741,-6.69982 12.41714,-13.38101 18.91228,-19.78958 10.73868,-10.79469 21.37788,-21.75169 32.86498,-31.7389 0,0 -10.14967,-6.29078 -10.14967,-6.29078 z"
         id="path4218-4"
         style="opacity:1;fill:#000000;fill-opacity:0.75428569;stroke:none;stroke-width:0.1;stroke-miterlimit:4;stroke-dasharray:none;stroke-opacity:1" />
    </g>
    <g
       id="g4987"
       transform="matrix(0.95545214,0,0,0.9236674,-254.02746,314.89038)">
      <ellipse
         transform="scale(-1,-1)"
         ry="6.0267782"
         rx="5.1280828"
         cy="-449.32816"
         cx="-676.80231"
         id="path4155-25-6-9"
         style="opacity:1;fill:#6047b0;fill-opacity:1;stroke:none;stroke-width:0.1;stroke-miterlimit:4;stroke-dasharray:none;stroke-opacity:1" />
      <ellipse
         transform="scale(-1,-1)"
         ry="6.0267782"
         rx="5.1280828"
         cy="-484.8544"
         cx="-710.9895"
         id="path4155-25-6-5"
         style="opacity:1;fill:#6047b0;fill-opacity:1;stroke:none;stroke-width:0.1;stroke-miterlimit:4;stroke-dasharray:none;stroke-opacity:1" />
      <ellipse
         transform="scale(-1,-1)"
         ry="6.0267782"
         rx="5.1280828"
         cy="-517.84308"
         cx="-710.9895"
         id="path4155-25-6-32"
         style="opacity:1;fill:#6047b0;fill-opacity:1;stroke:none;stroke-width:0.1;stroke-miterlimit:4;stroke-dasharray:none;stroke-opacity:1" />
      <ellipse
         transform="scale(-1,-1)"
         ry="6.0267782"
         rx="5.1280828"
         cy="-553.36938"
         cx="-676.80231"
         id="path4155-25-6-8"
         style="opacity:1;fill:#6047b0;fill-opacity:1;stroke:none;stroke-width:0.1;stroke-miterlimit:4;stroke-dasharray:none;stroke-opacity:1" />
      <ellipse
         transform="scale(1,-1)"
         ry="6.0267782"
         rx="5.1280828"
         cy="-448.82062"
         cx="646.88849"
         id="path4155-25-6-9-7"
         style="opacity:1;fill:#6047b0;fill-opacity:1;stroke:none;stroke-width:0.1;stroke-miterlimit:4;stroke-dasharray:none;stroke-opacity:1" />
      <ellipse
         transform="scale(1,-1)"
         ry="6.0267782"
         rx="5.1280828"
         cy="-485.23505"
         cx="611.90356"
         id="path4155-25-6-5-0"
         style="opacity:1;fill:#6047b0;fill-opacity:1;stroke:none;stroke-width:0.1;stroke-miterlimit:4;stroke-dasharray:none;stroke-opacity:1" />
      <ellipse
         transform="scale(1,-1)"
         ry="6.0267782"
         rx="5.1280828"
         cy="-518.22369"
         cx="611.90356"
         id="path4155-25-6-32-3"
         style="opacity:1;fill:#6047b0;fill-opacity:1;stroke:none;stroke-width:0.1;stroke-miterlimit:4;stroke-dasharray:none;stroke-opacity:1" />
      <ellipse
         transform="scale(1,-1)"
         ry="6.0267782"
         rx="5.1280828"
         cy="-552.86188"
         cx="646.88849"
         id="path4155-25-6-8-0"
         style="opacity:1;fill:#6047b0;fill-opacity:1;stroke:none;stroke-width:0.1;stroke-miterlimit:4;stroke-dasharray:none;stroke-opacity:1" />
      <path
         inkscape:connector-curvature="0"
         d="m 615.09046,491.07386 c 1.10677,2.81097 1.36356,5.84537 1.62837,8.86438 0.20349,2.82123 0.11281,1.43044 0.27372,4.17223 0,0 -7.15048,4.1131 -7.15048,4.1131 l 0,0 c -0.11629,-2.73441 -0.0419,-1.35031 -0.22575,-4.15214 -0.28446,-2.85831 -0.55647,-5.79874 -1.88061,-8.33503 0,0 7.35475,-4.66254 7.35475,-4.66254 z"
         id="path4547"
         style="opacity:1;fill:#000000;fill-opacity:0.75686275;stroke:none;stroke-width:0.1;stroke-miterlimit:4;stroke-dasharray:none;stroke-opacity:1" />
      <path
         inkscape:connector-curvature="0"
         d="m 688.61866,453.57393 c 1.23872,2.00454 2.93688,3.57654 4.50102,5.24715 1.82073,1.94467 2.13436,2.35924 3.9197,4.4434 3.68684,4.84199 7.34476,9.71041 11.24404,14.34322 0,0 -6.59212,4.44433 -6.59212,4.44433 l 0,0 c -3.71718,-4.79886 -7.41197,-9.61957 -11.26161,-14.2888 -2.93259,-3.25191 -6.07965,-6.21935 -9.08081,-9.38583 0,0 7.26978,-4.80347 7.26978,-4.80347 z"
         id="path4559"
         style="opacity:1;fill:#000000;fill-opacity:0.75686275;stroke:none;stroke-width:0.1;stroke-miterlimit:4;stroke-dasharray:none;stroke-opacity:1" />
      <path
         inkscape:connector-curvature="0"
         d="m 714.21453,493.16583 c 0.20002,3.32567 0.2194,6.66262 0.29251,9.99423 0.0528,1.95255 0.0997,3.90534 0.16847,5.85728 0,0 -7.37405,4.19024 -7.37405,4.19024 l 0,0 c 0.0444,-1.98694 0.059,-3.97461 0.0423,-5.96214 -0.0537,-3.21727 -0.0738,-6.46674 -0.58254,-9.64286 0,0 7.45332,-4.43675 7.45332,-4.43675 z"
         id="path4561"
         style="opacity:1;fill:#000000;fill-opacity:0.75686275;stroke:none;stroke-width:0.1;stroke-miterlimit:4;stroke-dasharray:none;stroke-opacity:1" />
      <path
         inkscape:connector-curvature="0"
         d="m 621.12314,524.25347 c 4.34102,4.08043 8.51194,8.35481 12.5919,12.75583 2.31886,2.60945 4.59758,5.25934 6.8279,7.96229 0,0 -6.68242,4.48738 -6.68242,4.48738 l 0,0 c -2.06101,-2.80337 -4.17204,-5.56039 -6.51744,-8.08015 -4.18945,-4.39968 -8.53223,-8.60534 -13.29012,-12.23759 0,0 7.07018,-4.88776 7.07018,-4.88776 z"
         id="path4567"
         style="opacity:1;fill:#000000;fill-opacity:0.75686275;stroke:none;stroke-width:0.1;stroke-miterlimit:4;stroke-dasharray:none;stroke-opacity:1" />
      <path
         inkscape:connector-curvature="0"
         d="m 621.62578,476.52204 c 4.34103,-4.08042 8.51194,-8.35481 12.59191,-12.75582 2.31886,-2.60946 4.59757,-5.25934 6.8279,-7.96229 0,0 -6.68243,-4.48738 -6.68243,-4.48738 l 0,0 c -2.06101,2.80336 -4.17204,5.56039 -6.51744,8.08014 -4.18944,4.39968 -8.53223,8.60535 -13.29011,12.2376 0,0 7.07017,4.88775 7.07017,4.88775 z"
         id="path4567-3"
         style="opacity:1;fill:#000000;fill-opacity:0.75686275;stroke:none;stroke-width:0.1;stroke-miterlimit:4;stroke-dasharray:none;stroke-opacity:1" />
      <path
         inkscape:connector-curvature="0"
         d="m 704.05921,524.27229 c -4.34102,4.08042 -8.51193,8.35481 -12.5919,12.75582 -2.31886,2.60946 -4.59757,5.25934 -6.8279,7.96229 0,0 6.68243,4.48738 6.68243,4.48738 l 0,0 c 2.06101,-2.80336 4.17204,-5.56039 6.51743,-8.08014 4.18945,-4.39968 8.53224,-8.60535 13.29012,-12.2376 0,0 -7.07018,-4.88775 -7.07018,-4.88775 z"
         id="path4567-1"
         style="opacity:1;fill:#000000;fill-opacity:0.75686275;stroke:none;stroke-width:0.1;stroke-miterlimit:4;stroke-dasharray:none;stroke-opacity:1" />
      <path
         inkscape:connector-curvature="0"
         d="m 671.44394,452.84013 c -2.98696,0.2227 -5.98406,0.24428 -8.97636,0.32568 -1.75369,0.0587 -3.5076,0.11104 -5.26074,0.18757 0,0 -3.76348,-8.21023 -3.76348,-8.21023 l 0,0 c 1.78458,0.0494 3.56981,0.0657 5.35492,0.0471 2.88961,-0.0598 5.80813,-0.0822 8.66077,-0.64859 0,0 3.98489,8.29848 3.98489,8.29848 z"
         id="path4561-5"
         style="opacity:1;fill:#000000;fill-opacity:0.75686275;stroke:none;stroke-width:0.1;stroke-miterlimit:4;stroke-dasharray:none;stroke-opacity:1" />
      <path
         inkscape:connector-curvature="0"
         d="m 669.84853,557.26199 c -2.98695,0.2227 -5.98406,0.24428 -8.97635,0.32568 -1.7537,0.0587 -3.5076,0.11104 -5.26075,0.18757 0,0 -3.76348,-8.21023 -3.76348,-8.21023 l 0,0 c 1.78458,0.0494 3.56981,0.0657 5.35492,0.0471 2.88961,-0.0598 5.80813,-0.0822 8.66078,-0.64859 0,0 3.98488,8.29848 3.98488,8.29848 z"
         id="path4561-7"
         style="opacity:1;fill:#000000;fill-opacity:0.75686275;stroke:none;stroke-width:0.1;stroke-miterlimit:4;stroke-dasharray:none;stroke-opacity:1" />
      <path
         inkscape:connector-curvature="0"
         d="m 639.43538,438.87048 c 0.30689,-5.64421 0.36172,-11.29915 0.37936,-16.9521 0.0329,-4.41746 -0.0703,-8.83359 -0.14406,-13.24977 0,0 7.02833,-3.98718 7.02833,-3.98718 l 0,0 c -0.0733,4.47067 -0.17613,8.9413 -0.14406,13.41321 0.0173,5.50944 0.0646,11.02159 0.37936,16.52168 0,0 -7.49893,4.25416 -7.49893,4.25416 z"
         id="path4611"
         style="opacity:1;fill:#000000;fill-opacity:0.75686275;stroke:none;stroke-width:0.1;stroke-miterlimit:4;stroke-dasharray:none;stroke-opacity:1" />
      <path
         inkscape:connector-curvature="0"
         d="m 673.54719,438.16417 c -0.42884,-5.03338 -0.52472,-10.09385 -0.65463,-15.14523 -0.0427,-2.55377 0.0119,-5.10743 0.0408,-7.66091 0,0 7.14455,-4.01621 7.14455,-4.01621 l 0,0 c -0.14025,2.56895 -0.25306,5.13947 -0.24906,7.71433 0.12555,4.9063 0.19361,9.873 1.09547,14.69414 0,0 -7.37713,4.41388 -7.37713,4.41388 z"
         id="path4613"
         style="opacity:1;fill:#000000;fill-opacity:0.75686275;stroke:none;stroke-width:0.1;stroke-miterlimit:4;stroke-dasharray:none;stroke-opacity:1" />
      <path
         inkscape:connector-curvature="0"
         d="m 724.23008,480.85609 c 10.64311,0.64478 21.30903,0.60989 31.96394,0.52409 0,0 -5.45276,4.41089 -5.45276,4.41089 l 0,0 c -11.08739,-0.0911 -22.18257,-0.0834 -33.25971,0.52409 0,0 6.74853,-5.45907 6.74853,-5.45907 z"
         id="path4615"
         style="opacity:1;fill:#000000;fill-opacity:0.75686275;stroke:none;stroke-width:0.1;stroke-miterlimit:4;stroke-dasharray:none;stroke-opacity:1" />
      <path
         inkscape:connector-curvature="0"
         d="m 726.20617,514.44865 c 5.84601,0.20114 11.70242,-0.0163 17.54839,-0.18245 4.00678,-0.16175 8.06756,-0.17392 12.00464,-1.10534 0,0 -6.612,5.54842 -6.612,5.54842 l 0,0 c -3.80559,0.59451 -7.67515,0.42489 -11.50599,0.52246 -6.09127,0.0903 -12.18033,0.27328 -18.25902,0.73702 0,0 6.82398,-5.52011 6.82398,-5.52011 z"
         id="path4617"
         style="opacity:1;fill:#000000;fill-opacity:0.75686275;stroke:none;stroke-width:0.1;stroke-miterlimit:4;stroke-dasharray:none;stroke-opacity:1" />
      <path
         inkscape:connector-curvature="0"
         d="m 680.56005,563.74645 c -0.61144,4.92376 -0.66269,9.89337 -0.64332,14.85409 0.0308,3.0783 0.13987,6.15424 0.25632,9.22961 0,0 -7.01764,4.00217 -7.01764,4.00217 l 0,0 c -0.003,-3.11373 -0.0148,-6.22747 -0.0761,-9.34062 -0.092,-4.82755 -0.17203,-9.65383 -0.0347,-14.48167 0,0 7.51555,-4.26358 7.51555,-4.26358 z"
         id="path4619"
         style="opacity:1;fill:#000000;fill-opacity:0.75686275;stroke:none;stroke-width:0.1;stroke-miterlimit:4;stroke-dasharray:none;stroke-opacity:1" />
      <path
         inkscape:connector-curvature="0"
         d="m 652.0707,562.47765 c -0.34552,4.877 0.0273,9.77304 0.27482,14.645 0.13837,2.68338 0.31049,5.3642 0.49539,8.04401 0,0 -7.11154,4.08088 -7.11154,4.08088 l 0,0 c -0.0418,-2.7258 -0.0989,-5.45151 -0.24654,-8.17338 -0.2764,-4.78116 -0.7059,-9.5483 -0.92767,-14.33292 0,0 7.51554,-4.26359 7.51554,-4.26359 z"
         id="path4621"
         style="opacity:1;fill:#000000;fill-opacity:0.75686275;stroke:none;stroke-width:0.1;stroke-miterlimit:4;stroke-dasharray:none;stroke-opacity:1" />
      <path
         inkscape:connector-curvature="0"
         d="m 595.85166,519.8323 c -7.39043,-0.79345 -14.8342,-0.78594 -22.25265,-0.8288 -1.44826,-0.0193 -2.89651,-0.0385 -4.34477,-0.0578 0,0 5.97729,-4.81255 5.97729,-4.81255 l 0,0 c 1.40228,0.0516 2.80456,0.10312 4.20684,0.15467 7.74838,0.0941 15.49731,0.0649 23.24523,0.14548 0,0 -6.83194,5.39897 -6.83194,5.39897 z"
         id="path4623"
         style="opacity:1;fill:#000000;fill-opacity:0.75686275;stroke:none;stroke-width:0.1;stroke-miterlimit:4;stroke-dasharray:none;stroke-opacity:1" />
      <path
         inkscape:connector-curvature="0"
         d="m 594.41136,487.62058 c -6.84863,-0.38216 -13.71036,-0.41864 -20.56628,-0.46038 -6.89071,0.0231 -3.53721,-0.002 -10.06051,0.071 0,0 5.87639,-4.75358 5.87639,-4.75358 l 0,0 c 6.37699,0.0735 3.08201,0.0481 9.88496,0.071 7.23555,-0.0434 14.47525,-0.096 21.7045,-0.46036 0,0 -6.83906,5.53231 -6.83906,5.53231 z"
         id="path4625"
         style="opacity:1;fill:#000000;fill-opacity:0.75686275;stroke:none;stroke-width:0.1;stroke-miterlimit:4;stroke-dasharray:none;stroke-opacity:1" />
    </g>
    <g
       id="g4856"
       transform="matrix(0.43565578,0,0,0.46788948,-154.23036,370.83786)">
      <ellipse
         transform="scale(-1,-1)"
         ry="13.571428"
         rx="12.857142"
         cy="-748.07648"
         cx="-702.85712"
         id="path4155-25-6-97"
         style="opacity:1;fill:#6047b0;fill-opacity:1;stroke:none;stroke-width:0.1;stroke-miterlimit:4;stroke-dasharray:none;stroke-opacity:1" />
      <ellipse
         transform="scale(-1,-1)"
         ry="13.571428"
         rx="12.857142"
         cy="-842.36218"
         cx="-584"
         id="path4155-25-6-1"
         style="opacity:1;fill:#6047b0;fill-opacity:1;stroke:none;stroke-width:0.1;stroke-miterlimit:4;stroke-dasharray:none;stroke-opacity:1" />
      <ellipse
         transform="scale(-1,-1)"
         ry="13.571428"
         rx="12.857142"
         cy="-842.36218"
         cx="-824"
         id="path4155-25-6-18"
         style="opacity:1;fill:#6047b0;fill-opacity:1;stroke:none;stroke-width:0.1;stroke-miterlimit:4;stroke-dasharray:none;stroke-opacity:1" />
      <ellipse
         transform="scale(-1,-1)"
         ry="13.571428"
         rx="12.857142"
         cy="-930.36218"
         cx="-500"
         id="path4155-25-6-53"
         style="opacity:1;fill:#6047b0;fill-opacity:1;stroke:none;stroke-width:0.1;stroke-miterlimit:4;stroke-dasharray:none;stroke-opacity:1" />
      <ellipse
         transform="scale(-1,-1)"
         ry="13.571428"
         rx="12.857142"
         cy="-930.36218"
         cx="-644.28571"
         id="path4155-25-6-99"
         style="opacity:1;fill:#6047b0;fill-opacity:1;stroke:none;stroke-width:0.1;stroke-miterlimit:4;stroke-dasharray:none;stroke-opacity:1" />
      <ellipse
         transform="scale(-1,-1)"
         ry="13.571428"
         rx="12.857142"
         cy="-930.36218"
         cx="-757.14288"
         id="path4155-25-6-3"
         style="opacity:1;fill:#6047b0;fill-opacity:1;stroke:none;stroke-width:0.1;stroke-miterlimit:4;stroke-dasharray:none;stroke-opacity:1" />
      <ellipse
         transform="scale(-1,-1)"
         ry="13.571428"
         rx="12.857142"
         cy="-930.36218"
         cx="-925.71429"
         id="path4155-25-6-33"
         style="opacity:1;fill:#6047b0;fill-opacity:1;stroke:none;stroke-width:0.1;stroke-miterlimit:4;stroke-dasharray:none;stroke-opacity:1" />
      <path
         inkscape:connector-curvature="0"
         d="m 609.99156,853.60724 c 8.05135,10.3319 16.39569,20.42379 24.69344,30.55753 1.6957,2.00791 3.3914,4.01582 5.08711,6.02373 0,0 -16.52954,9.91409 -16.52954,9.91409 l 0,0 c -1.64499,-2.0382 -3.28998,-4.0764 -4.93497,-6.1146 -8.40154,-10.08434 -16.70014,-20.35645 -26.24857,-29.39168 0,0 17.93253,-10.98907 17.93253,-10.98907 z"
         id="path4784"
         style="opacity:1;fill:#000000;fill-opacity:0.75686275;stroke:none;stroke-width:0.1;stroke-miterlimit:4;stroke-dasharray:none;stroke-opacity:1" />
      <path
         inkscape:connector-curvature="0"
         d="m 735.35409,758.63865 c 11.67558,10.84535 24.25872,20.64229 36.79749,30.45427 14.33245,10.92107 28.24937,22.37811 41.90423,34.13165 0,0 -16.52511,10.22721 -16.52511,10.22721 l 0,0 c -12.7436,-12.4184 -25.93682,-24.41213 -40.33206,-34.91511 -13.12377,-9.69798 -26.30292,-19.33549 -39.7571,-28.56848 0,0 17.91255,-11.32954 17.91255,-11.32954 z"
         id="path4786"
         style="opacity:1;fill:#000000;fill-opacity:0.75686275;stroke:none;stroke-width:0.1;stroke-miterlimit:4;stroke-dasharray:none;stroke-opacity:1" />
      <path
         inkscape:connector-curvature="0"
         d="m 859.6398,857.21008 c 11.74431,8.26295 23.67749,16.25592 35.60467,24.25164 8.08164,5.23617 15.86796,10.90221 23.65516,16.56003 0,0 -16.16997,10.21826 -16.16997,10.21826 l 0,0 c -7.47181,-5.88454 -15.00341,-11.70086 -23.03555,-16.81745 -12.35077,-8.12192 -24.83105,-16.07281 -37.96685,-22.88295 0,0 17.91254,-11.32953 17.91254,-11.32953 z"
         id="path4788"
         style="opacity:1;fill:#000000;fill-opacity:0.75686275;stroke:none;stroke-width:0.1;stroke-miterlimit:4;stroke-dasharray:none;stroke-opacity:1" />
      <path
         inkscape:connector-curvature="0"
         d="m 817.21456,859.46634 c -7.1937,9.24824 -14.38998,18.50237 -21.44829,27.8571 -3.95003,5.43808 -7.93031,10.85686 -12.02038,16.19064 0,0 -18.73644,8.00075 -18.73644,8.00075 l 0,0 c 4.46195,-5.31903 8.67845,-10.84666 12.77665,-16.45001 6.82761,-9.03494 14.02078,-17.84238 20.09162,-27.41441 0,0 19.33684,-8.18407 19.33684,-8.18407 z"
         id="path4790"
         style="opacity:1;fill:#000000;fill-opacity:0.75686275;stroke:none;stroke-width:0.1;stroke-miterlimit:4;stroke-dasharray:none;stroke-opacity:1" />
      <path
         inkscape:connector-curvature="0"
         d="m 497.17094,953.86728 c -0.8081,0.8646 -1.56466,1.78044 -2.42432,2.5938 -5.22794,4.94636 -11.05068,9.27871 -16.47772,13.99645 -7.1488,6.21447 -6.8949,6.17323 -13.53741,12.75097 -5.75833,5.73574 -11.05681,11.87842 -15.7293,18.5221 0,0 -18.56895,8.0525 -18.56895,8.0525 l 0,0 c 5.03065,-6.9328 10.72859,-13.30991 16.81802,-19.33774 6.13852,-6.15415 6.81896,-7.01022 13.31191,-12.82065 5.01157,-4.48478 10.32548,-8.66562 15.24308,-13.25644 0.74459,-0.69511 1.41005,-1.47041 2.11508,-2.20561 0,0 19.24961,-8.29538 19.24961,-8.29538 z"
         id="path4792"
         style="opacity:1;fill:#000000;fill-opacity:0.75686275;stroke:none;stroke-width:0.1;stroke-miterlimit:4;stroke-dasharray:none;stroke-opacity:1" />
      <path
         inkscape:connector-curvature="0"
         d="m 513.79582,955.57583 c 0.17399,0.60196 0.27209,1.23124 0.52195,1.80587 1.06927,2.45915 2.60813,4.64636 4.1479,6.82447 3.84444,5.43825 8.13089,10.55143 12.27026,15.76364 8.05908,9.97637 17.21815,18.87993 26.85959,27.29619 0,0 -16.65325,10.3195 -16.65325,10.3195 l 0,0 c -9.38015,-8.8026 -18.50953,-17.84162 -26.86158,-27.64414 -4.29954,-5.17407 -8.73552,-10.24098 -12.93763,-15.49499 -1.62123,-2.02708 -3.68847,-4.61843 -5.05058,-6.91149 -0.38645,-0.65058 -0.65007,-1.36667 -0.97511,-2.05001 0,0 18.67845,-9.90904 18.67845,-9.90904 z"
         id="path4794"
         style="opacity:1;fill:#000000;fill-opacity:0.75686275;stroke:none;stroke-width:0.1;stroke-miterlimit:4;stroke-dasharray:none;stroke-opacity:1" />
      <path
         inkscape:connector-curvature="0"
         d="m 762.07667,950.28035 c -3.16465,4.81177 -4.26461,10.74409 -5.92227,16.17497 -2.40552,7.88105 -2.24901,7.1989 -4.94485,15.01466 -2.08945,5.69725 -4.27261,11.3593 -6.43784,17.02796 0,0 -18.22309,8.40606 -18.22309,8.40606 l 0,0 c 2.51307,-5.7088 4.98423,-11.43676 7.21247,-17.26473 2.16998,-6.23312 3.06235,-8.40054 4.73358,-14.7504 1.41872,-5.39042 2.16303,-10.97639 4.11766,-16.22061 0,0 19.46434,-8.38791 19.46434,-8.38791 z"
         id="path4800"
         style="opacity:1;fill:#000000;fill-opacity:0.75686275;stroke:none;stroke-width:0.1;stroke-miterlimit:4;stroke-dasharray:none;stroke-opacity:1" />
      <path
         inkscape:connector-curvature="0"
         d="m 770.99026,959.22462 c 6.57785,10.52004 14.32027,20.26575 21.70018,30.22609 5.01203,6.7601 10.352,13.25239 15.83519,19.63039 0,0 -16.70791,10.005 -16.70791,10.005 l 0,0 c -5.12229,-6.6546 -10.14418,-13.3838 -15.26968,-20.03606 -7.81845,-9.92379 -15.78977,-19.72102 -23.99763,-29.32606 0,0 18.43985,-10.49936 18.43985,-10.49936 z"
         id="path4802"
         style="opacity:1;fill:#000000;fill-opacity:0.75686275;stroke:none;stroke-width:0.1;stroke-miterlimit:4;stroke-dasharray:none;stroke-opacity:1" />
      <path
         inkscape:connector-curvature="0"
         d="m 920.26722,952.1263 c -7.58674,8.12181 -14.39869,16.91259 -21.27967,25.62692 -5.44473,6.74589 -10.74383,13.59281 -15.50151,20.84086 0,0 -18.32846,8.02332 -18.32846,8.02332 l 0,0 c 4.96618,-7.39786 10.54923,-14.32528 16.12329,-21.27297 6.45483,-8.38742 12.76475,-16.89641 19.60024,-24.98145 0,0 19.38611,-8.23668 19.38611,-8.23668 z"
         id="path4804"
         style="opacity:1;fill:#000000;fill-opacity:0.75686275;stroke:none;stroke-width:0.1;stroke-miterlimit:4;stroke-dasharray:none;stroke-opacity:1" />
      <path
         inkscape:connector-curvature="0"
         d="m 935.96825,960.88791 c 9.9535,10.2481 21.27899,19.13469 32.45664,28.00663 7.71172,5.99106 3.93322,3.15204 11.31849,8.53966 0,0 -16.58891,10.4789 -16.58891,10.4789 l 0,0 c -7.12312,-5.6255 -3.48504,-2.6746 -10.89886,-8.8714 -11.22313,-9.20197 -22.67906,-18.09623 -34.06118,-27.09857 0,0 17.77382,-11.05522 17.77382,-11.05522 z"
         id="path4806"
         style="opacity:1;fill:#000000;fill-opacity:0.75686275;stroke:none;stroke-width:0.1;stroke-miterlimit:4;stroke-dasharray:none;stroke-opacity:1" />
      <path
         inkscape:connector-curvature="0"
         d="m 676.96601,756.66993 c -11.67558,10.84535 -24.25872,20.64229 -36.79749,30.45427 -14.33245,10.92107 -28.24937,22.37811 -41.90423,34.13165 0,0 16.52511,10.22721 16.52511,10.22721 l 0,0 c 12.7436,-12.4184 25.93682,-24.41213 40.33206,-34.91511 13.12377,-9.69798 26.30292,-19.33549 39.7571,-28.56848 0,0 -17.91255,-11.32954 -17.91255,-11.32954 z"
         id="path4786-5"
         style="opacity:1;fill:#000000;fill-opacity:0.75686275;stroke:none;stroke-width:0.1;stroke-miterlimit:4;stroke-dasharray:none;stroke-opacity:1" />
      <path
         inkscape:connector-curvature="0"
         d="m 564.95936,858.27581 c -11.74431,8.26295 -23.67749,16.25592 -35.60467,24.25164 -8.08164,5.23617 -15.86796,10.90221 -23.65516,16.56003 0,0 16.16997,10.21826 16.16997,10.21826 l 0,0 c 7.47181,-5.88454 15.00341,-11.70086 23.03555,-16.81745 12.35077,-8.12192 24.83105,-16.07281 37.96685,-22.88295 0,0 -17.91254,-11.32953 -17.91254,-11.32953 z"
         id="path4788-7"
         style="opacity:1;fill:#000000;fill-opacity:0.75686275;stroke:none;stroke-width:0.1;stroke-miterlimit:4;stroke-dasharray:none;stroke-opacity:1" />
      <path
         inkscape:connector-curvature="0"
         d="m 638.82526,947.95934 c -3.16465,4.81177 -4.26461,10.74409 -5.92227,16.17497 -2.40552,7.88105 -2.24901,7.1989 -4.94485,15.01466 -2.08945,5.69725 -4.27261,11.3593 -6.43784,17.02796 0,0 -18.22309,8.40607 -18.22309,8.40607 l 0,0 c 2.51307,-5.70881 4.98423,-11.43677 7.21247,-17.26474 2.16998,-6.23312 3.06235,-8.40054 4.73358,-14.7504 1.41872,-5.39042 2.16303,-10.97639 4.11766,-16.22061 0,0 19.46434,-8.38791 19.46434,-8.38791 z"
         id="path4800-7"
         style="opacity:1;fill:#000000;fill-opacity:0.75686275;stroke:none;stroke-width:0.1;stroke-miterlimit:4;stroke-dasharray:none;stroke-opacity:1" />
      <path
         inkscape:connector-curvature="0"
         d="m 647.73885,956.90361 c 6.57785,10.52004 14.32027,20.26575 21.70018,30.22609 5.01203,6.7601 10.352,13.2524 15.83519,19.6304 0,0 -16.70791,10.005 -16.70791,10.005 l 0,0 c -5.12229,-6.6546 -10.14418,-13.3838 -15.26968,-20.03607 -7.81845,-9.92379 -15.78977,-19.72102 -23.99763,-29.32606 0,0 18.43985,-10.49936 18.43985,-10.49936 z"
         id="path4802-9"
         style="opacity:1;fill:#000000;fill-opacity:0.75686275;stroke:none;stroke-width:0.1;stroke-miterlimit:4;stroke-dasharray:none;stroke-opacity:1" />
    </g>
    <g
       id="g5259"
       transform="matrix(0.34148844,0,0,0.37105608,358.0489,279.48874)">
      <ellipse
         transform="scale(-1,-1)"
         ry="13.571428"
         rx="12.857142"
         cy="-653.79077"
         cx="-532.85712"
         id="path4155-4-5-8"
         style="opacity:1;fill:#6047b0;fill-opacity:1;stroke:none;stroke-width:0.1;stroke-miterlimit:4;stroke-dasharray:none;stroke-opacity:1" />
      <ellipse
         transform="scale(-1,-1)"
         ry="13.571428"
         rx="12.857142"
         cy="-730.93365"
         cx="-627.14288"
         id="path4155-4-5-8-9"
         style="opacity:1;fill:#6047b0;fill-opacity:1;stroke:none;stroke-width:0.1;stroke-miterlimit:4;stroke-dasharray:none;stroke-opacity:1" />
      <path
         inkscape:connector-curvature="0"
         d="m 499.89458,638.31961 c -11.13987,-10.04618 -23.01676,-19.20273 -35.10248,-28.06941 -6.50888,-4.77967 -13.15708,-9.37558 -19.99194,-13.67621 0,0 17.08176,-10.91624 17.08176,-10.91624 l 0,0 c 6.4048,4.6938 12.65929,9.58764 18.93893,14.44688 12.17188,9.203 24.17646,18.65976 36.89223,27.10673 0,0 -17.8185,11.10825 -17.8185,11.10825 z"
         id="path5106"
         style="opacity:1;fill:#000000;fill-opacity:0.75686275;stroke:none;stroke-width:0.1;stroke-miterlimit:4;stroke-dasharray:none;stroke-opacity:1" />
      <path
         inkscape:connector-curvature="0"
         d="m 558.27761,661.80235 c 9.48322,9.89545 20.4508,18.28908 31.18936,26.76522 8.92727,7.3163 18.36641,13.93165 28.14124,20.05087 0,0 -16.41169,10.5178 -16.41169,10.5178 l 0,0 c -9.43059,-6.57306 -18.61322,-13.47011 -27.69107,-20.52279 -11.0514,-8.63584 -22.17548,-17.17708 -33.27315,-25.75292 0,0 18.04531,-11.05818 18.04531,-11.05818 z"
         id="path5128"
         style="opacity:1;fill:#000000;fill-opacity:0.75686275;stroke:none;stroke-width:0.1;stroke-miterlimit:4;stroke-dasharray:none;stroke-opacity:1" />
      <path
         inkscape:connector-curvature="0"
         d="m 507.7855,665.12384 c -9.48322,9.89545 -20.4508,18.28908 -31.18936,26.76522 -8.92727,7.3163 -18.36641,13.93165 -28.14124,20.05087 0,0 16.41169,10.5178 16.41169,10.5178 l 0,0 c 9.43059,-6.57306 18.61322,-13.47011 27.69107,-20.52279 11.0514,-8.63584 22.17548,-17.17708 33.27315,-25.75292 0,0 -18.04531,-11.05818 -18.04531,-11.05818 z"
         id="path5128-0"
         style="opacity:1;fill:#000000;fill-opacity:0.75686275;stroke:none;stroke-width:0.1;stroke-miterlimit:4;stroke-dasharray:none;stroke-opacity:1" />
      <path
         inkscape:connector-curvature="0"
         d="m 597.7855,742.26669 c -9.48322,9.89545 -20.4508,18.28908 -31.18936,26.76522 -8.92727,7.3163 -18.36641,13.93165 -28.14124,20.05087 0,0 16.41169,10.5178 16.41169,10.5178 l 0,0 c 9.43059,-6.57306 18.61322,-13.47011 27.69107,-20.52279 11.0514,-8.63584 22.17548,-17.17708 33.27315,-25.75292 0,0 -18.04531,-11.05818 -18.04531,-11.05818 z"
         id="path5128-0-3"
         style="opacity:1;fill:#000000;fill-opacity:0.75686275;stroke:none;stroke-width:0.1;stroke-miterlimit:4;stroke-dasharray:none;stroke-opacity:1" />
      <ellipse
         transform="scale(-1,-1)"
         ry="13.571428"
         rx="12.857142"
         cy="-809.73724"
         cx="-726.48688"
         id="path4155-4-5-8-9-9"
         style="opacity:1;fill:#6047b0;fill-opacity:1;stroke:none;stroke-width:0.1;stroke-miterlimit:4;stroke-dasharray:none;stroke-opacity:1" />
      <path
         inkscape:connector-curvature="0"
         d="m 657.62158,740.60595 c 9.48322,9.89545 20.4508,18.28908 31.18936,26.76522 8.92727,7.3163 18.36641,13.93165 28.14124,20.05087 0,0 -16.41169,10.5178 -16.41169,10.5178 l 0,0 c -9.43059,-6.57306 -18.61322,-13.47011 -27.69107,-20.52279 -11.0514,-8.63584 -22.17548,-17.17708 -33.27315,-25.75292 0,0 18.04531,-11.05818 18.04531,-11.05818 z"
         id="path5128-1"
         style="opacity:1;fill:#000000;fill-opacity:0.75686275;stroke:none;stroke-width:0.1;stroke-miterlimit:4;stroke-dasharray:none;stroke-opacity:1" />
      <path
         inkscape:connector-curvature="0"
         d="m 697.12947,821.07029 c -9.48322,9.89545 -20.4508,18.28908 -31.18936,26.76522 -8.92727,7.3163 -18.36641,13.93165 -28.14124,20.05087 0,0 16.41169,10.5178 16.41169,10.5178 l 0,0 c 9.43059,-6.57306 18.61322,-13.47011 27.69107,-20.52279 11.0514,-8.63584 22.17548,-17.17708 33.27315,-25.75292 0,0 -18.04531,-11.05818 -18.04531,-11.05818 z"
         id="path5128-0-3-3"
         style="opacity:1;fill:#000000;fill-opacity:0.75686275;stroke:none;stroke-width:0.1;stroke-miterlimit:4;stroke-dasharray:none;stroke-opacity:1" />
      <ellipse
         transform="scale(-1,-1)"
         ry="13.571428"
         rx="12.857142"
         cy="-881.16583"
         cx="-825.05829"
         id="path4155-4-5-8-9-4"
         style="opacity:1;fill:#6047b0;fill-opacity:1;stroke:none;stroke-width:0.1;stroke-miterlimit:4;stroke-dasharray:none;stroke-opacity:1" />
      <path
         inkscape:connector-curvature="0"
         d="m 756.19301,812.03452 c 9.48322,9.89545 20.4508,18.28908 31.18936,26.76522 8.92727,7.3163 18.36641,13.93165 28.14124,20.05087 0,0 -16.41169,10.5178 -16.41169,10.5178 l 0,0 c -9.43059,-6.57306 -18.61322,-13.47011 -27.69107,-20.52279 -11.0514,-8.63584 -22.17548,-17.17708 -33.27315,-25.75292 0,0 18.04531,-11.05818 18.04531,-11.05818 z"
         id="path5128-7"
         style="opacity:1;fill:#000000;fill-opacity:0.75686275;stroke:none;stroke-width:0.1;stroke-miterlimit:4;stroke-dasharray:none;stroke-opacity:1" />
      <path
         inkscape:connector-curvature="0"
         d="m 795.7009,892.49886 c -9.48322,9.89545 -20.4508,18.28908 -31.18936,26.76522 -8.92727,7.3163 -18.36641,13.93165 -28.14124,20.05087 0,0 16.41169,10.5178 16.41169,10.5178 l 0,0 c 9.43059,-6.57306 18.61322,-13.47011 27.69107,-20.52279 11.0514,-8.63584 22.17548,-17.17708 33.27315,-25.75292 0,0 -18.04531,-11.05818 -18.04531,-11.05818 z"
         id="path5128-0-3-7"
         style="opacity:1;fill:#000000;fill-opacity:0.75686275;stroke:none;stroke-width:0.1;stroke-miterlimit:4;stroke-dasharray:none;stroke-opacity:1" />
      <ellipse
         transform="scale(-1,-1)"
         ry="13.571428"
         rx="12.857142"
         cy="-958.30865"
         cx="-927.91541"
         id="path4155-4-5-8-9-2"
         style="opacity:1;fill:#6047b0;fill-opacity:1;stroke:none;stroke-width:0.1;stroke-miterlimit:4;stroke-dasharray:none;stroke-opacity:1" />
      <path
         inkscape:connector-curvature="0"
         d="m 859.05015,889.17738 c 9.48322,9.89545 20.4508,18.28908 31.18936,26.76522 8.92727,7.3163 18.36641,13.93165 28.14124,20.05087 0,0 -16.41169,10.5178 -16.41169,10.5178 l 0,0 c -9.43059,-6.57306 -18.61322,-13.47011 -27.69107,-20.52279 -11.0514,-8.63584 -22.17548,-17.17708 -33.27315,-25.75292 0,0 18.04531,-11.05818 18.04531,-11.05818 z"
         id="path5128-4"
         style="opacity:1;fill:#000000;fill-opacity:0.75686275;stroke:none;stroke-width:0.1;stroke-miterlimit:4;stroke-dasharray:none;stroke-opacity:1" />
      <path
         inkscape:connector-curvature="0"
         d="m 898.55804,969.64172 c -9.48322,9.89545 -20.4508,18.28908 -31.18936,26.76522 -8.92727,7.31626 -18.36641,13.93166 -28.14124,20.05086 0,0 16.41169,10.5178 16.41169,10.5178 l 0,0 c 9.43059,-6.5731 18.61322,-13.4701 27.69107,-20.5228 11.0514,-8.63582 22.17548,-17.17706 33.27315,-25.7529 0,0 -18.04531,-11.05818 -18.04531,-11.05818 z"
         id="path5128-0-3-5"
         style="opacity:1;fill:#000000;fill-opacity:0.75686275;stroke:none;stroke-width:0.1;stroke-miterlimit:4;stroke-dasharray:none;stroke-opacity:1" />
      <ellipse
         transform="scale(-1,-1)"
         ry="13.571428"
         rx="12.857142"
         cy="-1032.5945"
         cx="-1023.6297"
         id="path4155-4-5-8-9-96"
         style="opacity:1;fill:#6047b0;fill-opacity:1;stroke:none;stroke-width:0.1;stroke-miterlimit:4;stroke-dasharray:none;stroke-opacity:1" />
      <path
         inkscape:connector-curvature="0"
         d="m 954.76444,963.46309 c 9.48322,9.89545 20.4508,18.28908 31.18936,26.76522 8.92727,7.3163 18.3664,13.93169 28.1413,20.05089 0,0 -16.41174,10.5178 -16.41174,10.5178 l 0,0 c -9.4306,-6.5731 -18.61323,-13.4701 -27.69108,-20.5228 -11.0514,-8.63585 -22.17548,-17.17709 -33.27315,-25.75293 0,0 18.04531,-11.05818 18.04531,-11.05818 z"
         id="path5128-8"
         style="opacity:1;fill:#000000;fill-opacity:0.75686275;stroke:none;stroke-width:0.1;stroke-miterlimit:4;stroke-dasharray:none;stroke-opacity:1" />
      <path
         inkscape:connector-curvature="0"
         d="m 994.27233,1043.9274 c -9.48322,9.8955 -20.4508,18.2891 -31.18936,26.7652 -8.92727,7.3163 -18.36641,13.9317 -28.14124,20.0509 0,0 16.41169,10.5178 16.41169,10.5178 l 0,0 c 9.43059,-6.5731 18.61322,-13.4701 27.69107,-20.5228 11.0514,-8.6358 22.17551,-17.1771 33.27321,-25.7529 0,0 -18.04537,-11.0582 -18.04537,-11.0582 z"
         id="path5128-0-3-56"
         style="opacity:1;fill:#000000;fill-opacity:0.75686275;stroke:none;stroke-width:0.1;stroke-miterlimit:4;stroke-dasharray:none;stroke-opacity:1" />
      <path
         inkscape:connector-curvature="0"
         d="m 1053.6431,1040.8381 c 9.4832,9.8955 20.4508,18.2891 31.1894,26.7652 8.9272,7.3163 18.3664,13.9317 28.1412,20.0509 0,0 -16.4117,10.5178 -16.4117,10.5178 l 0,0 c -9.4306,-6.573 -18.6132,-13.4701 -27.6911,-20.5228 -11.0514,-8.6358 -22.1754,-17.1771 -33.2731,-25.7529 0,0 18.0453,-11.0582 18.0453,-11.0582 z"
         id="path5128-4-1"
         style="opacity:1;fill:#000000;fill-opacity:0.75686275;stroke:none;stroke-width:0.1;stroke-miterlimit:4;stroke-dasharray:none;stroke-opacity:1" />
    </g>
    <g
       id="g5384"
       transform="matrix(0.43868105,0,0,0.49150746,7.347947,155.05656)">
      <ellipse
         transform="scale(-1,-1)"
         ry="13.571428"
         rx="12.857142"
         cy="-899.50507"
         cx="-807.14288"
         id="path4155-25-6-0"
         style="opacity:1;fill:#6047b0;fill-opacity:1;stroke:none;stroke-width:0.1;stroke-miterlimit:4;stroke-dasharray:none;stroke-opacity:1" />
      <ellipse
         transform="scale(-1,-1)"
         ry="13.571428"
         rx="12.857142"
         cy="-815.79077"
         cx="-706"
         id="path4155-25-6-7"
         style="opacity:1;fill:#6047b0;fill-opacity:1;stroke:none;stroke-width:0.1;stroke-miterlimit:4;stroke-dasharray:none;stroke-opacity:1" />
      <ellipse
         transform="scale(-1,-1)"
         ry="13.571428"
         rx="12.857142"
         cy="-982.93365"
         cx="-706"
         id="path4155-25-6-94"
         style="opacity:1;fill:#6047b0;fill-opacity:1;stroke:none;stroke-width:0.1;stroke-miterlimit:4;stroke-dasharray:none;stroke-opacity:1" />
      <path
         inkscape:connector-curvature="0"
         d="m 742.76359,823.07351 c 11.31352,8.49387 21.30035,18.58597 31.55873,28.28886 7.10917,6.86905 14.25971,13.69097 21.50015,20.42118 0,0 -16.20682,9.97133 -16.20682,9.97133 l 0,0 c -6.94087,-6.95495 -13.80996,-13.98637 -21.01216,-20.6744 -10.58946,-9.55894 -21.08449,-19.60428 -33.60221,-26.63396 0,0 17.76231,-11.37301 17.76231,-11.37301 z"
         id="path5319"
         style="opacity:1;fill:#000000;fill-opacity:0.75686275;stroke:none;stroke-width:0.1;stroke-miterlimit:4;stroke-dasharray:none;stroke-opacity:1" />
      <path
         inkscape:connector-curvature="0"
         d="m 771.934,914.4501 c -11.31352,8.49387 -21.30035,18.58597 -31.55873,28.28886 -7.10917,6.86905 -14.25971,13.69097 -21.50015,20.42118 0,0 16.20682,9.97133 16.20682,9.97133 l 0,0 c 6.94087,-6.95495 13.80996,-13.98637 21.01216,-20.6744 10.58946,-9.55894 21.08449,-19.60428 33.60221,-26.63396 0,0 -17.76231,-11.37301 -17.76231,-11.37301 z"
         id="path5319-1"
         style="opacity:1;fill:#000000;fill-opacity:0.75686275;stroke:none;stroke-width:0.1;stroke-miterlimit:4;stroke-dasharray:none;stroke-opacity:1" />
      <path
         inkscape:connector-curvature="0"
         d="m 689.08216,788.74715 c -1.33246,-11.72055 -2.75124,-23.4324 -3.88604,-35.17811 -0.64239,-6.9172 -0.33403,-3.64092 -0.92265,-9.82907 0,0 17.95283,-9.2907 17.95283,-9.2907 l 0,0 c 0.20408,6.33743 0.0661,2.99312 0.43556,10.03202 0.86308,11.58853 1.94566,23.23635 5.05707,34.47614 0,0 -18.63677,9.78972 -18.63677,9.78972 z"
         id="path5340"
         style="opacity:1;fill:#000000;fill-opacity:0.75686275;stroke:none;stroke-width:0.1;stroke-miterlimit:4;stroke-dasharray:none;stroke-opacity:1" />
      <path
         inkscape:connector-curvature="0"
         d="m 661.24088,824.23675 c -14.97026,0.21012 -29.94101,0.26458 -44.91047,0.56482 0,0 15.24667,-11.11082 15.24667,-11.11082 l 0,0 c 15.55381,-0.13303 31.11565,-0.45344 46.62155,-1.77453 0,0 -16.95775,12.32053 -16.95775,12.32053 z"
         id="path5342"
         style="opacity:1;fill:#000000;fill-opacity:0.75686275;stroke:none;stroke-width:0.1;stroke-miterlimit:4;stroke-dasharray:none;stroke-opacity:1" />
      <path
         inkscape:connector-curvature="0"
         d="m 659.96427,989.96478 c -13.75194,-0.97497 -27.4954,0.54383 -41.1929,1.62447 -10.53202,0.84995 -5.45378,0.43749 -15.23479,1.23631 0,0 15.7193,-11.58922 15.7193,-11.58922 l 0,0 c 9.46138,-0.54575 4.52803,-0.23813 14.79929,-0.93529 14.28997,-1.11466 28.56148,-2.50137 42.90469,-2.68428 0,0 -16.99559,12.34801 -16.99559,12.34801 z"
         id="path5344"
         style="opacity:1;fill:#000000;fill-opacity:0.75686275;stroke:none;stroke-width:0.1;stroke-miterlimit:4;stroke-dasharray:none;stroke-opacity:1" />
      <path
         inkscape:connector-curvature="0"
         d="m 709.4215,1007.1584 c -0.3365,6.3995 -0.33822,12.8138 -0.35327,19.2208 -0.009,4.5627 0.0451,9.1248 0.1221,13.6867 0,0 -18.38066,9.3654 -18.38066,9.3654 l 0,0 c 0.0764,-4.6034 0.13081,-9.2069 0.1221,-13.8111 -0.0148,-6.2869 -0.0104,-12.5819 -0.35327,-18.8608 0,0 18.843,-9.601 18.843,-9.601 z"
         id="path5346"
         style="opacity:1;fill:#000000;fill-opacity:0.75686275;stroke:none;stroke-width:0.1;stroke-miterlimit:4;stroke-dasharray:none;stroke-opacity:1" />
      <ellipse
         transform="scale(1,-1)"
         ry="13.571428"
         rx="12.857142"
         cy="-810.49841"
         cx="910.82233"
         id="path4155-25-6-7-2"
         style="opacity:1;fill:#6047b0;fill-opacity:1;stroke:none;stroke-width:0.1;stroke-miterlimit:4;stroke-dasharray:none;stroke-opacity:1" />
      <ellipse
         transform="scale(1,-1)"
         ry="13.571428"
         rx="12.857142"
         cy="-977.6413"
         cx="910.82233"
         id="path4155-25-6-94-3"
         style="opacity:1;fill:#6047b0;fill-opacity:1;stroke:none;stroke-width:0.1;stroke-miterlimit:4;stroke-dasharray:none;stroke-opacity:1" />
      <path
         inkscape:connector-curvature="0"
         d="m 874.05875,817.78114 c -11.31352,8.49387 -21.30033,18.58597 -31.55873,28.28886 -7.1092,6.86905 -14.2597,13.69097 -21.5001,20.42118 0,0 16.2068,9.97133 16.2068,9.97133 l 0,0 c 6.9408,-6.95495 13.8099,-13.98637 21.01213,-20.6744 10.58946,-9.55894 21.08449,-19.60428 33.60221,-26.63396 0,0 -17.76231,-11.37301 -17.76231,-11.37301 z"
         id="path5319-6"
         style="opacity:1;fill:#000000;fill-opacity:0.75686275;stroke:none;stroke-width:0.1;stroke-miterlimit:4;stroke-dasharray:none;stroke-opacity:1" />
      <path
         inkscape:connector-curvature="0"
         d="m 844.88832,909.15773 c 11.3135,8.49387 21.30037,18.58597 31.55875,28.28886 7.10917,6.86905 14.25971,13.69097 21.50015,20.42118 0,0 -16.20682,9.97133 -16.20682,9.97133 l 0,0 c -6.94087,-6.95495 -13.80996,-13.98637 -21.01216,-20.6744 -10.58942,-9.55894 -21.08452,-19.60428 -33.60222,-26.63396 0,0 17.7623,-11.37301 17.7623,-11.37301 z"
         id="path5319-1-3"
         style="opacity:1;fill:#000000;fill-opacity:0.75686275;stroke:none;stroke-width:0.1;stroke-miterlimit:4;stroke-dasharray:none;stroke-opacity:1" />
      <path
         inkscape:connector-curvature="0"
         d="m 927.74018,783.45478 c 1.33246,-11.72055 2.75124,-23.4324 3.88604,-35.17811 0.64239,-6.9172 0.33403,-3.64092 0.92265,-9.82907 0,0 -17.95283,-9.2907 -17.95283,-9.2907 l 0,0 c -0.20408,6.33743 -0.0661,2.99312 -0.43556,10.03202 -0.86308,11.58853 -1.94566,23.23635 -5.05707,34.47614 0,0 18.63677,9.78972 18.63677,9.78972 z"
         id="path5340-3"
         style="opacity:1;fill:#000000;fill-opacity:0.75686275;stroke:none;stroke-width:0.1;stroke-miterlimit:4;stroke-dasharray:none;stroke-opacity:1" />
      <path
         inkscape:connector-curvature="0"
         d="m 955.58146,818.94438 c 14.97026,0.21012 29.941,0.26458 44.91054,0.56482 0,0 -15.24674,-11.11082 -15.24674,-11.11082 l 0,0 c -15.55381,-0.13303 -31.11565,-0.45344 -46.62155,-1.77453 0,0 16.95775,12.32053 16.95775,12.32053 z"
         id="path5342-6"
         style="opacity:1;fill:#000000;fill-opacity:0.75686275;stroke:none;stroke-width:0.1;stroke-miterlimit:4;stroke-dasharray:none;stroke-opacity:1" />
      <path
         inkscape:connector-curvature="0"
         d="m 956.85807,984.67244 c 13.75194,-0.975 27.49539,0.5438 41.19289,1.6244 10.53204,0.85 5.45384,0.4375 15.23484,1.2364 0,0 -15.71934,-11.58927 -15.71934,-11.58927 l 0,0 c -9.4614,-0.54575 -4.528,-0.23813 -14.7993,-0.93529 -14.28996,-1.11466 -28.56147,-2.50137 -42.90468,-2.68428 0,0 16.99559,12.34804 16.99559,12.34804 z"
         id="path5344-4"
         style="opacity:1;fill:#000000;fill-opacity:0.75686275;stroke:none;stroke-width:0.1;stroke-miterlimit:4;stroke-dasharray:none;stroke-opacity:1" />
      <path
         inkscape:connector-curvature="0"
         d="m 907.40084,1001.866 c 0.3365,6.3995 0.33822,12.8138 0.35327,19.2208 0.009,4.5627 -0.0451,9.1248 -0.1221,13.6867 0,0 18.38066,9.3654 18.38066,9.3654 l 0,0 c -0.0764,-4.6034 -0.13081,-9.2069 -0.1221,-13.8111 0.0148,-6.2869 0.0104,-12.5819 0.35327,-18.8608 0,0 -18.843,-9.601 -18.843,-9.601 z"
         id="path5346-8"
         style="opacity:1;fill:#000000;fill-opacity:0.75686275;stroke:none;stroke-width:0.1;stroke-miterlimit:4;stroke-dasharray:none;stroke-opacity:1" />
    </g>
    <g
       id="g5500"
       transform="matrix(0.61209887,0,0,0.68998219,-131.28399,-236.99448)">
      <ellipse
         transform="scale(-1,-1)"
         ry="13.571428"
         rx="12.857142"
         cy="-918.07648"
         cx="-734.28571"
         id="path4155-25-6-51"
         style="opacity:1;fill:#6047b0;fill-opacity:1;stroke:none;stroke-width:0.1;stroke-miterlimit:4;stroke-dasharray:none;stroke-opacity:1" />
      <ellipse
         transform="scale(-1,-1)"
         ry="13.571428"
         rx="12.857142"
         cy="-918.07648"
         cx="-899.42859"
         id="path4155-25-6-71"
         style="opacity:1;fill:#6047b0;fill-opacity:1;stroke:none;stroke-width:0.1;stroke-miterlimit:4;stroke-dasharray:none;stroke-opacity:1" />
      <path
         inkscape:connector-curvature="0"
         d="m 774.77734,909.08657 c 24.62685,1.261 49.29621,1.20859 73.9476,1.12507 18.82316,0.0677 9.76346,0.0267 27.17911,0.11936 0,0 -14.63516,10.59022 -14.63516,10.59022 l 0,0 c -16.80416,-0.56518 -8.0281,-0.32381 -26.32898,-0.69417 -25.68458,-0.0878 -51.38165,-0.0709 -77.04466,1.12507 0,0 16.88209,-12.26555 16.88209,-12.26555 z"
         id="path5424"
         style="opacity:1;fill:#000000;fill-opacity:0.75686275;stroke:none;stroke-width:0.1;stroke-miterlimit:4;stroke-dasharray:none;stroke-opacity:1" />
      <path
         inkscape:connector-curvature="0"
         d="m 716.31362,898.81305 c 0.60176,-9.97106 1.97368,-19.88067 3.27825,-29.77919 0.8529,-6.39544 1.48242,-12.81629 2.00383,-19.24608 0,0 18.27845,-9.07567 18.27845,-9.07567 l 0,0 c -0.82714,6.53891 -1.75461,13.06408 -2.6103,19.59929 -1.19143,9.57429 -2.70438,19.25337 -2.1489,28.92189 0,0 -18.80133,9.57976 -18.80133,9.57976 z"
         id="path5426"
         style="opacity:1;fill:#000000;fill-opacity:0.75686275;stroke:none;stroke-width:0.1;stroke-miterlimit:4;stroke-dasharray:none;stroke-opacity:1" />
      <path
         inkscape:connector-curvature="0"
         d="m 747.93392,948.59383 c -2.2142,12.58634 -2.15497,25.51136 -1.93109,38.24963 0.7875,11.9355 0.31612,6.13685 1.38613,17.39824 0,0 -16.99656,8.834 -16.99656,8.834 l 0,0 c -0.77124,-11.4567 -0.40021,-5.5694 -1.10454,-17.6624 -0.41103,-12.51511 -0.53635,-25.05464 -0.42068,-37.5739 0,0 19.06674,-9.24557 19.06674,-9.24557 z"
         id="path5428"
         style="opacity:1;fill:#000000;fill-opacity:0.75686275;stroke:none;stroke-width:0.1;stroke-miterlimit:4;stroke-dasharray:none;stroke-opacity:1" />
      <path
         inkscape:connector-curvature="0"
         d="m 891.45648,893.09877 c 0.78946,-12.72606 0.86764,-25.48402 0.95918,-38.23005 -0.075,-11.0963 -0.0157,-5.70675 -0.17036,-16.16875 0,0 17.22369,-8.77591 17.22369,-8.77591 l 0,0 c -0.15437,10.59632 -0.0952,5.14889 -0.17036,16.34236 0.0898,12.41998 0.15142,24.85397 0.95918,37.25259 0,0 -18.80133,9.57976 -18.80133,9.57976 z"
         id="path5430"
         style="opacity:1;fill:#000000;fill-opacity:0.75686275;stroke:none;stroke-width:0.1;stroke-miterlimit:4;stroke-dasharray:none;stroke-opacity:1" />
      <path
         inkscape:connector-curvature="0"
         d="m 908.85007,952.87271 c -0.67042,13.01352 -2.09957,25.9785 -3.34976,38.94702 -1.09502,12.65297 -0.61096,6.46861 -1.46593,18.55187 0,0 -16.98583,8.4817 -16.98583,8.4817 l 0,0 c 1.11973,-12.1872 0.56568,-5.9661 1.65777,-18.6639 1.02605,-12.53277 2.33648,-25.13921 1.30075,-37.7157 0,0 18.843,-9.60099 18.843,-9.60099 z"
         id="path5432"
         style="opacity:1;fill:#000000;fill-opacity:0.75686275;stroke:none;stroke-width:0.1;stroke-miterlimit:4;stroke-dasharray:none;stroke-opacity:1" />
      <path
         inkscape:connector-curvature="0"
         d="m 695.52212,913.93661 c -9.47473,-6.89301 -19.57678,-12.89085 -29.78016,-18.63094 -9.29856,-5.15785 -18.81791,-9.90061 -28.24072,-14.82517 0,0 16.96329,-11.04351 16.96329,-11.04351 l 0,0 c 8.96014,5.42087 18.21842,10.30243 27.3733,15.38216 10.5327,5.82713 20.90743,11.92952 31.44661,17.74445 0,0 -17.76232,11.37301 -17.76232,11.37301 z"
         id="path5463"
         style="opacity:1;fill:#000000;fill-opacity:0.75686275;stroke:none;stroke-width:0.1;stroke-miterlimit:4;stroke-dasharray:none;stroke-opacity:1" />
      <path
         inkscape:connector-curvature="0"
         d="m 697.27214,924.3981 c -9.47473,6.89301 -19.57678,12.89085 -29.78016,18.63094 -9.29856,5.15785 -18.81791,9.90061 -28.24072,14.82517 0,0 16.96329,11.04351 16.96329,11.04351 l 0,0 c 8.96014,-5.42087 18.21842,-10.30243 27.3733,-15.38216 10.5327,-5.82713 20.90743,-11.92952 31.44661,-17.74445 0,0 -17.76232,-11.37301 -17.76232,-11.37301 z"
         id="path5463-8"
         style="opacity:1;fill:#000000;fill-opacity:0.75686275;stroke:none;stroke-width:0.1;stroke-miterlimit:4;stroke-dasharray:none;stroke-opacity:1" />
      <path
         inkscape:connector-curvature="0"
         d="m 933.03142,915.70289 c 9.47473,-6.89301 19.57678,-12.89085 29.78016,-18.63094 9.29856,-5.15785 18.81791,-9.90061 28.24072,-14.82517 0,0 -16.96329,-11.04351 -16.96329,-11.04351 l 0,0 c -8.96014,5.42087 -18.21842,10.30243 -27.3733,15.38216 -10.5327,5.82713 -20.90743,11.92952 -31.44661,17.74445 0,0 17.76232,11.37301 17.76232,11.37301 z"
         id="path5463-6"
         style="opacity:1;fill:#000000;fill-opacity:0.75686275;stroke:none;stroke-width:0.1;stroke-miterlimit:4;stroke-dasharray:none;stroke-opacity:1" />
      <path
         inkscape:connector-curvature="0"
         d="m 931.2814,926.16438 c 9.47473,6.89301 19.57678,12.89085 29.78016,18.63094 9.29856,5.15785 18.81791,9.90061 28.24074,14.82517 0,0 -16.96331,11.04351 -16.96331,11.04351 l 0,0 c -8.96014,-5.42087 -18.21842,-10.30243 -27.3733,-15.38216 -10.5327,-5.82713 -20.90743,-11.92952 -31.44659,-17.74445 0,0 17.7623,-11.37301 17.7623,-11.37301 z"
         id="path5463-8-8"
         style="opacity:1;fill:#000000;fill-opacity:0.75686275;stroke:none;stroke-width:0.1;stroke-miterlimit:4;stroke-dasharray:none;stroke-opacity:1" />
    </g>
    <g
       id="g5652"
       transform="matrix(0.47089744,0,0,0.60720541,321.09133,-141.85303)">
      <ellipse
         transform="scale(-1,-1)"
         ry="13.571428"
         rx="12.857142"
         cy="-903.45886"
         cx="-659.93286"
         id="path4155-4-5"
         style="opacity:1;fill:#6047b0;fill-opacity:1;stroke:none;stroke-width:0.1;stroke-miterlimit:4;stroke-dasharray:none;stroke-opacity:1" />
      <ellipse
         transform="scale(-1,-1)"
         ry="13.571428"
         rx="12.857142"
         cy="-903.45886"
         cx="-826.50427"
         id="path4155-25-6"
         style="opacity:1;fill:#6047b0;fill-opacity:1;stroke:none;stroke-width:0.1;stroke-miterlimit:4;stroke-dasharray:none;stroke-opacity:1" />
      <path
         inkscape:connector-curvature="0"
         d="m 615.34395,912.51749 c -16.3278,-0.71915 -32.67649,-0.84433 -49.01701,-1.02982 -22.00652,0.14957 -44.00122,-0.15676 -65.9831,-1.21656 0,0 15.11939,-10.83972 15.11939,-10.83972 l 0,0 c 21.66233,1.70958 43.37427,2.09292 65.10011,1.71293 17.2856,-0.19028 34.57737,-0.33719 51.85186,-1.02982 0,0 -17.07125,12.40299 -17.07125,12.40299 z"
         id="path4228-1"
         style="opacity:1;fill:#000000;fill-opacity:0.75686275;stroke:none;stroke-width:0.1;stroke-miterlimit:4;stroke-dasharray:none;stroke-opacity:1" />
      <path
         inkscape:connector-curvature="0"
         d="m 663.08951,929.50215 c -0.56292,11.75274 -2.36461,23.4104 -4.09574,35.03666 -1.84238,11.92672 -2.97424,23.93822 -3.87006,35.96669 0,0 -17.31377,8.6172 -17.31377,8.6172 l 0,0 c 1.38019,-12.08527 2.73501,-24.17407 4.25768,-36.24247 1.33456,-11.16816 2.95938,-22.49096 2.13722,-33.75586 0,0 18.88467,-9.62222 18.88467,-9.62222 z"
         id="path4230-5"
         style="opacity:1;fill:#000000;fill-opacity:0.75686275;stroke:none;stroke-width:0.1;stroke-miterlimit:4;stroke-dasharray:none;stroke-opacity:1" />
      <path
         inkscape:connector-curvature="0"
         d="m 856.54005,895.85627 c 22.50836,1.18698 45.06678,1.14244 67.6,1.03605 4.21966,-0.0531 8.43932,-0.10617 12.65897,-0.15925 0,0 -14.58196,10.59442 -14.58196,10.59442 l 0,0 c -4.07353,-0.0531 -8.14707,-0.10617 -12.2206,-0.15925 -23.48509,-0.11235 -46.98847,-0.0867 -70.452,1.03605 0,0 16.99559,-12.34802 16.99559,-12.34802 z"
         id="path4232-4"
         style="opacity:1;fill:#000000;fill-opacity:0.75686275;stroke:none;stroke-width:0.1;stroke-miterlimit:4;stroke-dasharray:none;stroke-opacity:1" />
      <path
         inkscape:connector-curvature="0"
         d="m 663.24693,806.75141 c 2.4497,13.76876 3.37613,27.75985 4.18782,41.70361 0.42387,7.6483 0.63541,15.3056 0.91091,22.96 0,0 -17.50873,8.93977 -17.50873,8.93977 l 0,0 c 0.143,-7.75417 0.20119,-15.50977 -0.11683,-23.26197 -0.7683,-13.53582 -1.82264,-27.25986 -5.98915,-40.24846 0,0 18.51598,-10.09295 18.51598,-10.09295 z"
         id="path4234-1"
         style="opacity:1;fill:#000000;fill-opacity:0.75686275;stroke:none;stroke-width:0.1;stroke-miterlimit:4;stroke-dasharray:none;stroke-opacity:1" />
      <path
         inkscape:connector-curvature="0"
         d="m 697.36076,901.51558 c 20.39001,1.16372 40.83574,1.08639 61.25252,1.05859 14.75551,-0.087 29.50763,-0.41427 44.26025,-0.69355 0,0 -16.14207,11.72789 -16.14207,11.72789 l 0,0 c -14.11614,-0.28193 -28.23174,-0.61272 -42.35105,-0.69356 -21.38955,-0.0292 -42.79996,-0.0431 -64.16657,1.0586 0,0 17.14692,-12.45797 17.14692,-12.45797 z"
         id="path4246-8"
         style="opacity:1;fill:#000000;fill-opacity:0.75686275;stroke:none;stroke-width:0.1;stroke-miterlimit:4;stroke-dasharray:none;stroke-opacity:1" />
      <ellipse
         transform="scale(-1,-1)"
         ry="13.571428"
         rx="12.857142"
         cy="-906.64789"
         cx="-471.42856"
         id="path4155-4-5-1"
         style="opacity:1;fill:#6047b0;fill-opacity:1;stroke:none;stroke-width:0.1;stroke-miterlimit:4;stroke-dasharray:none;stroke-opacity:1" />
      <path
         inkscape:connector-curvature="0"
         d="m 838.58314,921.07016 c -0.56292,11.75274 -2.36461,23.4104 -4.09574,35.03666 -1.84238,11.92672 -2.97424,23.93822 -3.87006,35.96669 0,0 -17.31377,8.61719 -17.31377,8.61719 l 0,0 c 1.38019,-12.08526 2.73501,-24.17406 4.25768,-36.24246 1.33456,-11.16816 2.95938,-22.49096 2.13722,-33.75586 0,0 18.88467,-9.62222 18.88467,-9.62222 z"
         id="path4230-5-5"
         style="opacity:1;fill:#000000;fill-opacity:0.75686275;stroke:none;stroke-width:0.1;stroke-miterlimit:4;stroke-dasharray:none;stroke-opacity:1" />
      <path
         inkscape:connector-curvature="0"
         d="m 838.74056,798.31942 c 2.4497,13.76876 3.37613,27.75985 4.18782,41.70361 0.42387,7.6483 0.63541,15.3056 0.91091,22.96 0,0 -17.50873,8.93977 -17.50873,8.93977 l 0,0 c 0.143,-7.75417 0.20119,-15.50977 -0.11683,-23.26197 -0.7683,-13.53582 -1.82264,-27.25986 -5.98915,-40.24846 0,0 18.51598,-10.09295 18.51598,-10.09295 z"
         id="path4234-1-0"
         style="opacity:1;fill:#000000;fill-opacity:0.75686275;stroke:none;stroke-width:0.1;stroke-miterlimit:4;stroke-dasharray:none;stroke-opacity:1" />
      <path
         inkscape:connector-curvature="0"
         d="m 482.86885,929.64159 c -0.56292,11.75274 -2.36461,23.4104 -4.09574,35.03666 -1.84238,11.92672 -2.97424,23.93822 -3.87006,35.96665 0,0 -17.31377,8.6172 -17.31377,8.6172 l 0,0 c 1.38019,-12.08523 2.73501,-24.17403 4.25768,-36.24243 1.33456,-11.16816 2.95938,-22.49096 2.13722,-33.75586 0,0 18.88467,-9.62222 18.88467,-9.62222 z"
         id="path4230-5-6"
         style="opacity:1;fill:#000000;fill-opacity:0.75686275;stroke:none;stroke-width:0.1;stroke-miterlimit:4;stroke-dasharray:none;stroke-opacity:1" />
      <path
         inkscape:connector-curvature="0"
         d="m 483.02627,806.89085 c 2.4497,13.76876 3.37613,27.75985 4.18782,41.70361 0.42387,7.6483 0.63541,15.3056 0.91091,22.96 0,0 -17.50873,8.93977 -17.50873,8.93977 l 0,0 c 0.143,-7.75417 0.20119,-15.50977 -0.11683,-23.26197 -0.7683,-13.53582 -1.82264,-27.25986 -5.98915,-40.24846 0,0 18.51598,-10.09295 18.51598,-10.09295 z"
         id="path4234-1-3"
         style="opacity:1;fill:#000000;fill-opacity:0.75686275;stroke:none;stroke-width:0.1;stroke-miterlimit:4;stroke-dasharray:none;stroke-opacity:1" />
      <path
         inkscape:connector-curvature="0"
         d="m 359.79688,901.90248 c 22.50836,1.18698 45.06678,1.14244 67.6,1.03605 4.21966,-0.0531 8.43932,-0.10617 12.65897,-0.15925 0,0 -14.58196,10.59442 -14.58196,10.59442 l 0,0 c -4.07353,-0.0531 -8.14707,-0.10617 -12.2206,-0.15925 -23.48509,-0.11235 -46.98847,-0.0867 -70.452,1.03605 0,0 16.99559,-12.34802 16.99559,-12.34802 z"
         id="path4232-4-4"
         style="opacity:1;fill:#000000;fill-opacity:0.75686275;stroke:none;stroke-width:0.1;stroke-miterlimit:4;stroke-dasharray:none;stroke-opacity:1" />
    </g>
    <ellipse
       style="opacity:1;fill:#6047b0;fill-opacity:1;stroke:none;stroke-width:0.1;stroke-miterlimit:4;stroke-dasharray:none;stroke-opacity:1"
       id="path4155-25-6-19-5-4"
       cx="-562.25098"
       cy="-735.62415"
       rx="5.7719059"
       ry="6.296742"
       transform="scale(-1,-1)" />
    <ellipse
       style="opacity:1;fill:#6047b0;fill-opacity:1;stroke:none;stroke-width:0.1;stroke-miterlimit:4;stroke-dasharray:none;stroke-opacity:1"
       id="path4155-25-6-19-5-2"
       cx="-534.67407"
       cy="-771.28357"
       rx="5.7719059"
       ry="6.296742"
       transform="scale(-1,-1)" />
    <ellipse
       style="opacity:1;fill:#6047b0;fill-opacity:1;stroke:none;stroke-width:0.1;stroke-miterlimit:4;stroke-dasharray:none;stroke-opacity:1"
       id="path4155-25-6-19-5-8"
       cx="-589.5072"
       cy="-775.2605"
       rx="5.7719059"
       ry="6.296742"
       transform="scale(-1,-1)" />
    <ellipse
       style="opacity:1;fill:#6047b0;fill-opacity:1;stroke:none;stroke-width:0.1;stroke-miterlimit:4;stroke-dasharray:none;stroke-opacity:1"
       id="path4155-25-6-19-5-5"
       cx="-562.25098"
       cy="-809.19659"
       rx="5.7719059"
       ry="6.296742"
       transform="scale(-1,-1)" />
    <ellipse
       style="opacity:1;fill:#6047b0;fill-opacity:1;stroke:none;stroke-width:0.1;stroke-miterlimit:4;stroke-dasharray:none;stroke-opacity:1"
       id="path4155-25-6-19-5-8-7"
       cx="-641.13367"
       cy="-777.91174"
       rx="5.7719059"
       ry="6.296742"
       transform="scale(-1,-1)" />
    <path
       style="opacity:1;fill:#000000;fill-opacity:0.75686275;stroke:none;stroke-width:0.1;stroke-miterlimit:4;stroke-dasharray:none;stroke-opacity:1"
       id="path5835"
       d="m 533.82621,763.53351 c 2.12871,-2.76589 4.16845,-5.60206 6.31527,-8.35448 1.97008,-2.53617 3.94302,-5.08177 5.71413,-7.77254 0.92945,-1.4639 2.27077,-2.53319 3.59054,-3.59515 0,0 8.74945,-3.57495 8.74945,-3.57495 l 0,0 c -1.37416,0.94001 -2.70289,2.046 -3.79001,3.32421 -1.86891,2.7244 -3.89943,5.3264 -5.90953,7.94 -2.10749,2.62993 -4.12945,5.32668 -5.94716,8.18136 0,0 -8.72269,3.85155 -8.72269,3.85155 z"
       inkscape:connector-curvature="0" />
    <path
       style="opacity:1;fill:#000000;fill-opacity:0.75686275;stroke:none;stroke-width:0.1;stroke-miterlimit:4;stroke-dasharray:none;stroke-opacity:1"
       id="path5837"
       d="m 573.10123,739.41734 c 3.47731,5.15577 8.02799,9.40088 12.34115,13.78656 2.14614,2.09211 4.11528,4.35935 6.05842,6.64896 0,0 -7.66213,4.75581 -7.66213,4.75581 l 0,0 c -1.80384,-2.34668 -3.67815,-4.62802 -5.71795,-6.76329 -4.35019,-4.49313 -8.87787,-8.79961 -13.12642,-13.39753 0,0 8.10693,-5.03051 8.10693,-5.03051 z"
       inkscape:connector-curvature="0" />
    <path
       style="opacity:1;fill:#000000;fill-opacity:0.75686275;stroke:none;stroke-width:0.1;stroke-miterlimit:4;stroke-dasharray:none;stroke-opacity:1"
       id="path5839"
       d="m 588.66517,785.75604 c -2.74625,2.88654 -5.59938,5.66116 -8.32137,8.57305 -1.79254,1.8986 -0.93713,0.97467 -2.56988,2.7682 0,0 -8.43445,3.63888 -8.43445,3.63888 l 0,0 c 1.69924,-1.84516 0.81171,-0.90445 2.66691,-2.81778 2.61058,-2.82237 5.35088,-5.51223 7.95586,-8.34078 0,0 8.70293,-3.82157 8.70293,-3.82157 z"
       inkscape:connector-curvature="0" />
    <path
       style="opacity:1;fill:#000000;fill-opacity:0.75686275;stroke:none;stroke-width:0.1;stroke-miterlimit:4;stroke-dasharray:none;stroke-opacity:1"
       id="path5841"
       d="m 546.34222,780.65242 c 3.64045,4.02674 7.33696,8.00183 10.94973,12.05848 0.63338,0.71001 1.26676,1.42003 1.90014,2.13005 0,0 -7.5768,4.73883 -7.5768,4.73883 l 0,0 c -0.60677,-0.72319 -1.21354,-1.44637 -1.8203,-2.16956 -3.60099,-4.11725 -7.34382,-8.10774 -11.45252,-11.69126 0,0 7.99975,-5.06654 7.99975,-5.06654 z"
       inkscape:connector-curvature="0" />
    <path
       style="opacity:1;fill:#000000;fill-opacity:0.75686275;stroke:none;stroke-width:0.1;stroke-miterlimit:4;stroke-dasharray:none;stroke-opacity:1"
       id="path5843"
       d="m 605.87696,773.72153 c 7.88769,0.40422 15.74465,1.23962 23.61832,1.84992 0,0 -6.75907,4.98905 -6.75907,4.98905 l 0,0 c -8.13698,-0.74075 -16.31281,-1.57484 -24.489,-1.10986 0,0 7.62975,-5.72911 7.62975,-5.72911 z"
       inkscape:connector-curvature="0" />
    <path
       style="opacity:1;fill:#000000;fill-opacity:0.75686275;stroke:none;stroke-width:0.1;stroke-miterlimit:4;stroke-dasharray:none;stroke-opacity:1"
       id="path5845"
       d="m 558.78591,724.37281 c 1.80537,-5.07914 2.0633,-10.46843 1.9933,-15.81976 -0.13105,-3.15371 -0.76385,-6.23888 -1.37262,-9.31952 0,0 7.82469,-4.31174 7.82469,-4.31174 l 0,0 c 0.52791,3.16457 1.08628,6.33064 1.2673,9.54304 0.16568,5.26619 0.0881,10.5518 -1.19305,15.68995 0,0 -8.51962,4.21803 -8.51962,4.21803 z"
       inkscape:connector-curvature="0" />
    <path
       style="opacity:1;fill:#000000;fill-opacity:0.75686275;stroke:none;stroke-width:0.1;stroke-miterlimit:4;stroke-dasharray:none;stroke-opacity:1"
       id="path5847"
       d="m 647.29656,790.65785 c 0.0327,3.97167 0.92753,7.92464 1.48628,11.85094 0.94038,5.44027 2.05438,10.8478 3.11063,16.26563 0,0 -7.88027,4.32693 -7.88027,4.32693 l 0,0 c -0.77024,-5.49316 -1.8254,-10.92863 -2.94963,-16.3554 -0.60055,-3.15635 -0.53845,-2.91895 -1.1516,-5.83584 -0.34937,-1.66203 -0.81227,-3.34016 -1.04738,-5.02691 -0.0351,-0.25154 -0.0306,-0.50728 -0.0458,-0.76092 0,0 8.47782,-4.46443 8.47782,-4.46443 z"
       inkscape:connector-curvature="0" />
    <path
       style="opacity:1;fill:#000000;fill-opacity:0.75686275;stroke:none;stroke-width:0.1;stroke-miterlimit:4;stroke-dasharray:none;stroke-opacity:1"
       id="path5849"
       d="m 516.76923,774.1545 c -7.74106,-0.3851 -15.49607,-0.39358 -23.24453,-0.39754 -6.6988,0.0264 -3.45212,-4.2e-4 -9.74008,0.0754 0,0 6.78883,-5.09767 6.78883,-5.09767 l 0,0 c 6.12326,0.0763 2.94355,0.0492 9.53917,0.0754 8.10166,-0.004 16.20818,-0.0304 24.30335,-0.39754 0,0 -7.64674,5.74187 -7.64674,5.74187 z"
       inkscape:connector-curvature="0" />
    <path
       style="opacity:1;fill:#000000;fill-opacity:0.75686275;stroke:none;stroke-width:0.1;stroke-miterlimit:4;stroke-dasharray:none;stroke-opacity:1"
       id="path5851"
       d="m 565.8392,824.54563 c -0.33993,5.16384 -0.33255,10.34417 -0.33696,15.51739 0.0228,4.13046 0.005,2.11623 0.0525,6.04272 0,0 -7.89025,4.155 -7.89025,4.155 l 0,0 c 0.0478,-3.96949 0.0297,-1.93682 0.0525,-6.09804 -0.004,-5.05473 0.0117,-10.11782 -0.33696,-15.1625 0,0 8.45911,-4.45457 8.45911,-4.45457 z"
       inkscape:connector-curvature="0" />
    <ellipse
       style="opacity:1;fill:#6047b0;fill-opacity:1;stroke:none;stroke-width:0.1;stroke-miterlimit:4;stroke-dasharray:none;stroke-opacity:1"
       id="path4155-25-6-19-5-4-6"
       cx="-730.758"
       cy="-742.2702"
       rx="5.7719059"
       ry="6.296742"
       transform="scale(-1,-1)" />
    <ellipse
       style="opacity:1;fill:#6047b0;fill-opacity:1;stroke:none;stroke-width:0.1;stroke-miterlimit:4;stroke-dasharray:none;stroke-opacity:1"
       id="path4155-25-6-19-5-2-9"
       cx="-703.18109"
       cy="-777.92969"
       rx="5.7719059"
       ry="6.296742"
       transform="scale(-1,-1)" />
    <ellipse
       style="opacity:1;fill:#6047b0;fill-opacity:1;stroke:none;stroke-width:0.1;stroke-miterlimit:4;stroke-dasharray:none;stroke-opacity:1"
       id="path4155-25-6-19-5-8-9"
       cx="-758.01422"
       cy="-781.90656"
       rx="5.7719059"
       ry="6.296742"
       transform="scale(-1,-1)" />
    <ellipse
       style="opacity:1;fill:#6047b0;fill-opacity:1;stroke:none;stroke-width:0.1;stroke-miterlimit:4;stroke-dasharray:none;stroke-opacity:1"
       id="path4155-25-6-19-5-5-9"
       cx="-730.758"
       cy="-815.84271"
       rx="5.7719059"
       ry="6.296742"
       transform="scale(-1,-1)" />
    <path
       style="opacity:1;fill:#000000;fill-opacity:0.75686275;stroke:none;stroke-width:0.1;stroke-miterlimit:4;stroke-dasharray:none;stroke-opacity:1"
       id="path5835-4"
       d="m 702.33324,770.17959 c 2.12871,-2.76589 4.16845,-5.60206 6.31526,-8.35448 1.97007,-2.53617 3.94301,-5.08177 5.71411,-7.77254 0.92946,-1.4639 2.27076,-2.53319 3.59056,-3.59515 0,0 8.74943,-3.57495 8.74943,-3.57495 l 0,0 c -1.37416,0.94001 -2.70289,2.046 -3.79001,3.32421 -1.86888,2.7244 -3.89942,5.3264 -5.90953,7.94 -2.10748,2.62993 -4.12945,5.32668 -5.94715,8.18136 0,0 -8.72267,3.85155 -8.72267,3.85155 z"
       inkscape:connector-curvature="0" />
    <path
       style="opacity:1;fill:#000000;fill-opacity:0.75686275;stroke:none;stroke-width:0.1;stroke-miterlimit:4;stroke-dasharray:none;stroke-opacity:1"
       id="path5837-2"
       d="m 741.60825,746.06342 c 3.47729,5.15577 8.02801,9.40088 12.34115,13.78656 2.14614,2.09211 4.11526,4.35935 6.05839,6.64896 0,0 -7.66209,4.75581 -7.66209,4.75581 l 0,0 c -1.80387,-2.34668 -3.67818,-4.62802 -5.71797,-6.76329 -4.35018,-4.49313 -8.87787,-8.79961 -13.12641,-13.39753 0,0 8.10693,-5.03051 8.10693,-5.03051 z"
       inkscape:connector-curvature="0" />
    <path
       style="opacity:1;fill:#000000;fill-opacity:0.75686275;stroke:none;stroke-width:0.1;stroke-miterlimit:4;stroke-dasharray:none;stroke-opacity:1"
       id="path5839-2"
       d="m 757.1722,792.40212 c -2.74626,2.88654 -5.59941,5.66116 -8.32138,8.57305 -1.79257,1.8986 -0.93714,0.97467 -2.56988,2.7682 0,0 -8.43447,3.63888 -8.43447,3.63888 l 0,0 c 1.69923,-1.84516 0.8117,-0.90445 2.66694,-2.81778 2.61055,-2.82237 5.35088,-5.51223 7.95586,-8.34078 0,0 8.70293,-3.82157 8.70293,-3.82157 z"
       inkscape:connector-curvature="0" />
    <path
       style="opacity:1;fill:#000000;fill-opacity:0.75686275;stroke:none;stroke-width:0.1;stroke-miterlimit:4;stroke-dasharray:none;stroke-opacity:1"
       id="path5841-2"
       d="m 714.84925,787.2985 c 3.64043,4.02674 7.33693,8.00183 10.94971,12.05848 0.63339,0.71001 1.26678,1.42003 1.90017,2.13005 0,0 -7.57684,4.73883 -7.57684,4.73883 l 0,0 c -0.60677,-0.72319 -1.21354,-1.44637 -1.82031,-2.16956 -3.60097,-4.11725 -7.3438,-8.10774 -11.4525,-11.69126 0,0 7.99977,-5.06654 7.99977,-5.06654 z"
       inkscape:connector-curvature="0" />
    <path
       style="opacity:1;fill:#000000;fill-opacity:0.75686275;stroke:none;stroke-width:0.1;stroke-miterlimit:4;stroke-dasharray:none;stroke-opacity:1"
       id="path5843-3"
       d="m 774.38398,780.36761 c 7.88767,0.40422 15.74464,1.23962 23.61831,1.84992 0,0 -6.75908,4.98905 -6.75908,4.98905 l 0,0 c -8.13696,-0.74075 -16.3128,-1.57484 -24.489,-1.10986 0,0 7.62977,-5.72911 7.62977,-5.72911 z"
       inkscape:connector-curvature="0" />
    <path
       style="opacity:1;fill:#000000;fill-opacity:0.75686275;stroke:none;stroke-width:0.1;stroke-miterlimit:4;stroke-dasharray:none;stroke-opacity:1"
       id="path5845-5"
       d="m 727.29294,731.01889 c 1.80536,-5.07914 2.06331,-10.46843 1.99328,-15.81976 -0.13105,-3.15371 -0.76385,-6.23888 -1.3726,-9.31952 0,0 7.82465,-4.31174 7.82465,-4.31174 l 0,0 c 0.52794,3.16457 1.08631,6.33064 1.26732,9.54304 0.1657,5.26619 0.088,10.5518 -1.19302,15.68995 0,0 -8.51963,4.21803 -8.51963,4.21803 z"
       inkscape:connector-curvature="0" />
    <path
       style="opacity:1;fill:#000000;fill-opacity:0.75686275;stroke:none;stroke-width:0.1;stroke-miterlimit:4;stroke-dasharray:none;stroke-opacity:1"
       id="path5849-7"
       d="m 685.27625,780.80058 c -7.74106,-0.3851 -15.49608,-0.39358 -23.24454,-0.39754 -6.69877,0.0264 -3.45211,-4.2e-4 -9.74006,0.0754 0,0 6.78882,-5.09767 6.78882,-5.09767 l 0,0 c 6.12326,0.0763 2.94356,0.0492 9.53914,0.0754 8.10168,-0.004 16.2082,-0.0304 24.30337,-0.39754 0,0 -7.64673,5.74187 -7.64673,5.74187 z"
       inkscape:connector-curvature="0" />
    <path
       style="opacity:1;fill:#000000;fill-opacity:0.75686275;stroke:none;stroke-width:0.1;stroke-miterlimit:4;stroke-dasharray:none;stroke-opacity:1"
       id="path5851-3"
       d="m 734.3462,831.19171 c -0.33993,5.16384 -0.33252,10.34417 -0.33692,15.51739 0.0229,4.13046 0.004,2.11623 0.0525,6.04272 0,0 -7.89028,4.155 -7.89028,4.155 l 0,0 c 0.0478,-3.96949 0.0296,-1.93682 0.0525,-6.09804 -0.004,-5.05473 0.0117,-10.11782 -0.33692,-15.1625 0,0 8.45907,-4.45457 8.45907,-4.45457 z"
       inkscape:connector-curvature="0" />
    <path
       style="opacity:1;fill:#000000;fill-opacity:0.75686275;stroke:none;stroke-width:0.1;stroke-miterlimit:4;stroke-dasharray:none;stroke-opacity:1"
       id="path5847-0"
       d="m 639.94043,734.9976 c 0.0327,3.97167 0.92753,7.92464 1.48628,11.85094 0.94038,5.44027 2.05438,10.8478 3.11063,16.26563 0,0 -7.88027,4.32693 -7.88027,4.32693 l 0,0 c -0.77024,-5.49316 -1.8254,-10.92863 -2.94963,-16.3554 -0.60055,-3.15635 -0.53845,-2.91895 -1.1516,-5.83584 -0.34937,-1.66203 -0.81227,-3.34016 -1.04738,-5.02691 -0.0351,-0.25154 -0.0306,-0.50728 -0.0458,-0.76092 0,0 8.47782,-4.46443 8.47782,-4.46443 z"
       inkscape:connector-curvature="0" />
  </g>
</svg>
